<?xml version="1.0" standalone="no"?>
<!DOCTYPE svg PUBLIC "-//W3C//DTD SVG 1.1//EN" "http://www.w3.org/Graphics/SVG/1.1/DTD/svg11.dtd" >
<svg xmlns="http://www.w3.org/2000/svg" xmlns:xlink="http://www.w3.org/1999/xlink" version="1.1">
<metadata></metadata>
<defs>
<font id="fk_groteskbold_italic" horiz-adv-x="1771" >
<font-face units-per-em="2048" ascent="1638" descent="-410" />
<missing-glyph horiz-adv-x="532" />
<glyph unicode="&#xfb01;" horiz-adv-x="1310" d="M74 0l319 877h-248l70 188h246l59 164q88 246 340 246h481l-67 -189h-447l-22 -16l-74 -205h660l-387 -1065h-271l320 877h-391l-318 -877h-270z" />
<glyph unicode="&#xfb02;" horiz-adv-x="1310" d="M74 0l319 877h-248l70 188h246l59 164q88 246 340 246h277l-68 -189h-242l-22 -16l-74 -205h246l-70 -188h-245l-318 -877h-270zM733 0l537 1475h270l-536 -1475h-271z" />
<glyph horiz-adv-x="0" />
<glyph horiz-adv-x="682" />
<glyph unicode=" "  horiz-adv-x="532" />
<glyph unicode="&#x09;" horiz-adv-x="532" />
<glyph unicode="&#xa0;" horiz-adv-x="532" />
<glyph unicode="!" horiz-adv-x="552" d="M-82 0l105 287h327l-104 -287h-328zM125 430l186 594l164 451h287l-164 -451l-260 -594h-213z" />
<glyph unicode="&#x22;" horiz-adv-x="890" d="M172 891l51 143h43q87 0 131 26t74 99l12 29h-174l105 287h338l-115 -316q-51 -143 -148 -205.5t-270 -62.5h-47zM582 891l51 143h43q87 0 131 26t74 99l12 29h-174l104 287h338l-114 -316q-51 -143 -148 -205.5t-270 -62.5h-47z" />
<glyph unicode="#" horiz-adv-x="1748" d="M33 397l82 226h350l156 237h-418l78 217h481l260 398h274v-31l-239 -367h227l260 398h275v-31l-240 -367h285l-78 -217h-348l-156 -237h416l-82 -226h-481l-261 -397h-274v31l240 366h-228l-260 -397h-274v31l239 366h-284zM752 618h237l160 246h-238z" />
<glyph unicode="$" horiz-adv-x="1439" d="M33 485l2 43h282q-10 -163 89 -253.5t274 -90.5q154 0 249 65.5t95 170.5q0 71 -48.5 110.5t-172.5 83.5l-154 56q-162 59 -243.5 149.5t-81.5 237.5q0 194 163 317t439 129l73 197h275l-84 -227q169 -48 263.5 -163.5t94.5 -279.5l-2 -39h-282l2 31q0 125 -94.5 196.5 t-241.5 71.5q-150 0 -237 -57.5t-87 -157.5q0 -69 42 -108.5t140 -73.5l154 -55q192 -70 280.5 -163t88.5 -233q0 -200 -162 -331t-449 -140l-75 -207h-275l86 232q-192 48 -297.5 174.5t-105.5 314.5z" />
<glyph unicode="%" horiz-adv-x="1916" d="M49 0v31l1639 1444h319v-31l-1638 -1444h-320zM330 1098q0 98 57 191t154 151.5t204 58.5q144 0 228 -78.5t84 -203.5q0 -73 -34.5 -146.5t-90.5 -129.5t-133 -91t-158 -35q-144 0 -227.5 79t-83.5 204zM553 1108q0 -47 27.5 -73.5t72.5 -26.5q74 0 127.5 59t53.5 139 q0 47 -28 74t-73 27q-74 0 -127 -59.5t-53 -139.5zM1010 258q0 98 57 191t154 151.5t204 58.5q144 0 228 -78.5t84 -203.5q0 -73 -34.5 -146.5t-90.5 -129.5t-133 -91t-158 -35q-144 0 -227.5 79t-83.5 204zM1233 268q0 -47 27.5 -73.5t72.5 -26.5q74 0 127 59.5t53 139.5 q0 47 -27.5 73.5t-72.5 26.5q-74 0 -127 -59.5t-53 -139.5z" />
<glyph unicode="&#x26;" horiz-adv-x="1579" d="M39 326q2 70 24 127.5t56 100.5t94 85t121 73.5t155 73.5q-52 77 -74 137.5t-22 135.5q0 123 71.5 224t197.5 158.5t280 57.5q168 0 278.5 -91t110.5 -230q0 -130 -119.5 -251.5t-337.5 -215.5l-14 -6l129 -195l340 278h320v-30l-527 -447l56 -84l24 -10h250l-80 -217 h-246q-78 0 -117.5 22t-78.5 84l-19 29q-109 -80 -216 -120t-236 -40q-192 0 -306 95.5t-114 255.5zM322 346q0 -63 44 -104t111 -41q69 0 138 31.5t163 105.5l-168 260q-154 -67 -221 -122t-67 -130zM672 1061q0 -45 14.5 -83.5t46.5 -88.5l41 18q279 120 279 248 q0 55 -42 89t-110 34q-98 0 -163.5 -60t-65.5 -157z" />
<glyph unicode="'" horiz-adv-x="481" d="M172 891l51 143h43q87 0 131 26t74 99l12 29h-174l105 287h338l-115 -316q-51 -143 -148 -205.5t-270 -62.5h-47z" />
<glyph unicode="(" horiz-adv-x="841" d="M100 229q0 878 719 1348h291v-21q-347 -236 -541 -552q-198 -320 -198 -775q0 -319 108 -618v-21h-246q-133 322 -133 639z" />
<glyph unicode=")" horiz-adv-x="843" d="M-229 -389q343 234 542 555q197 320 197 772q0 317 -109 618v21h246q133 -322 133 -639q0 -878 -719 -1348h-290v21z" />
<glyph unicode="*" horiz-adv-x="1142" d="M328 993v103h30l271 -27l6 18l-248 113l-27 14l52 91l26 -17l221 -158l13 13l-158 221l-16 27l90 51l14 -27l113 -248l18 7l-26 270v31h102v-31l-27 -270l19 -7l112 248l15 27l90 -51l-17 -27l-159 -221l14 -15l221 160l27 17l51 -91l-27 -14l-247 -113l6 -18l270 27h31 v-103h-31l-270 27l-6 -19l247 -112l27 -15l-51 -90l-27 17l-221 160l-12 -13l157 -223l17 -27l-90 -51l-15 27l-112 248l-19 -7l27 -270v-31h-102v31l26 270l-18 7l-113 -248l-14 -27l-90 51l16 27l160 221l-12 12l-224 -157l-26 -17l-52 90l27 15l248 112l-6 19l-271 -27 h-30z" />
<glyph unicode="+" horiz-adv-x="1474" d="M252 635l84 225h403l150 410h233l-149 -410h407l-84 -225h-405l-150 -410h-233l149 410h-405z" />
<glyph unicode="," horiz-adv-x="481" d="M-260 -297l51 143h43q87 0 131 26t74 99l12 29h-174l105 287h337l-114 -316q-51 -143 -148 -205.5t-270 -62.5h-47z" />
<glyph unicode="-" horiz-adv-x="819" d="M82 422l80 217h573l-80 -217h-573z" />
<glyph unicode="." horiz-adv-x="471" d="M-123 0l105 287h327l-104 -287h-328z" />
<glyph unicode="/" horiz-adv-x="1247" d="M-100 0v31l1314 1444h283v-31l-1315 -1444h-282z" />
<glyph unicode="0" horiz-adv-x="1482" d="M125 479q0 230 108 467q110 241 310 395q205 158 475 158q221 0 354 -139t133 -365q0 -234 -106 -467q-109 -238 -312 -395q-205 -158 -475 -158q-221 0 -354 139t-133 365zM395 496q0 -149 68 -226t196 -77q164 0 295 122q129 117 207 306q74 186 74 358q0 149 -68 226 t-196 77q-160 0 -293 -121q-135 -126 -207 -307q-76 -183 -76 -358z" />
<glyph unicode="1" horiz-adv-x="772" d="M178 0l385 1055h-332l74 205h127q117 0 176.5 38.5t100.5 145.5l10 31h262l-537 -1475h-266z" />
<glyph unicode="2" horiz-adv-x="1409" d="M-70 0l66 184l788 484q158 97 222 141q68 48 122 119q50 65 50 147q0 94 -68 148.5t-190 54.5q-132 0 -229 -70t-144 -204h-283v30q81 220 264 342.5t420 122.5q224 0 368 -115t144 -305q0 -155 -103.5 -282t-314.5 -246l-596 -334h777l-80 -217h-1213z" />
<glyph unicode="3" horiz-adv-x="1300" d="M-29 461h275q0 -126 65 -197t197 -71q168 0 292 99t124 238q0 95 -60.5 147t-165.5 52q-132 0 -266 -49h-24l77 215l602 362h-765l77 218h1139l-70 -191l-632 -379v-20h20q144 0 248 -82q102 -83 102 -252q3 -108 -53.5 -213.5t-153 -186t-233 -129.5t-283.5 -47 q-246 0 -379 130.5t-133 355.5z" />
<glyph unicode="4" horiz-adv-x="1529" d="M-12 410l71 200l1069 865h381l-309 -848h334l-80 -217h-332l-149 -410h-287l150 410h-848zM395 627h518l209 571h-20z" />
<glyph unicode="5" horiz-adv-x="1318" d="M-2 440h278q5 -122 66 -184.5t188 -62.5q176 0 298 111t122 267q0 91 -55.5 141t-155.5 50q-91 0 -157.5 -25.5t-151.5 -81.5h-270l348 820h1067l-78 -218h-801l-161 -376h20q140 90 303 90q170 0 270.5 -99.5t100.5 -279.5q2 -124 -47 -235.5t-138.5 -197.5t-227 -135.5 t-302.5 -48.5q-125 0 -225 38t-162.5 103t-95.5 148t-33 176z" />
<glyph unicode="6" horiz-adv-x="1400" d="M143 520q-1 116 26 235t78 229t128.5 206t171.5 166.5t213.5 110t247.5 36.5q219 0 360.5 -123t147.5 -323h-263q-15 229 -272 229q-141 0 -257 -71t-189.5 -191.5t-104.5 -275.5h21q153 202 430 202q188 0 299.5 -120.5t111.5 -307.5q2 -109 -47 -211t-133.5 -177.5 t-201.5 -120t-244 -42.5q-235 0 -379 152t-144 397zM432 410q0 -104 66 -163t174 -59q143 0 244.5 94t101.5 234q0 104 -66 162.5t-174 58.5q-143 0 -244.5 -93.5t-101.5 -233.5z" />
<glyph unicode="7" horiz-adv-x="1224" d="M111 0v31l1017 1226h-833l78 218h1163l-68 -189l-1058 -1286h-299z" />
<glyph unicode="8" horiz-adv-x="1421" d="M37 336q0 156 113.5 272t324.5 166v21q-162 88 -162 256q0 87 47.5 167.5t134 143t222 100t299.5 37.5q227 0 362 -90t135 -244q0 -161 -110 -265t-309 -150v-21q93 -43 142.5 -112.5t49.5 -159.5q2 -93 -50.5 -181t-146 -155t-232.5 -107t-298 -39q-243 0 -382.5 100 t-139.5 261zM319 371q0 -83 70.5 -130.5t202.5 -47.5q184 0 298 76.5t114 203.5q0 83 -70 130.5t-203 47.5q-184 0 -298 -76.5t-114 -203.5zM592 1030q0 -75 66.5 -118.5t189.5 -43.5q172 0 277.5 69.5t105.5 182.5q0 75 -66.5 118.5t-189.5 43.5q-172 0 -277.5 -69.5 t-105.5 -182.5z" />
<glyph unicode="9" horiz-adv-x="1402" d="M72 410h262q11 -105 79 -163.5t185 -58.5q194 0 336 148q138 144 188 389h-20q-56 -91 -167.5 -148t-252.5 -57q-183 0 -305.5 125.5t-122.5 306.5q-3 145 81 273.5t230.5 204.5t315.5 73q236 0 379 -150t143 -399q2 -151 -36 -297.5t-112 -271t-174.5 -219t-232.5 -147 t-277 -48.5q-216 0 -354.5 124.5t-144.5 314.5zM528 954q0 -104 66 -162.5t174 -58.5q143 0 244.5 95.5t101.5 236.5q0 104 -66 162.5t-174 58.5q-143 0 -244.5 -95.5t-101.5 -236.5z" />
<glyph unicode=":" horiz-adv-x="471" d="M-123 0l105 287h327l-104 -287h-328zM168 799l104 286h328l-104 -286h-328z" />
<glyph unicode=";" horiz-adv-x="481" d="M-260 -297l51 143h43q87 0 131 26t74 99l12 29h-174l105 287h337l-114 -316q-51 -143 -148 -205.5t-270 -62.5h-47zM168 799l104 286h328l-104 -286h-328z" />
<glyph unicode="&#x3c;" horiz-adv-x="1474" d="M281 655l67 185l1100 348h31l-88 -238l-725 -209v-20l565 -209l-74 -205h-31z" />
<glyph unicode="=" horiz-adv-x="1474" d="M195 451l81 225h1024l-81 -225h-1024zM330 819l82 225h1024l-82 -225h-1024z" />
<glyph unicode="&#x3e;" horiz-adv-x="1474" d="M154 307l88 238l725 209v20l-566 209l74 205h31l846 -348l-68 -185l-1100 -348h-30z" />
<glyph unicode="?" horiz-adv-x="1173" d="M158 0l104 287h328l-105 -287h-327zM248 1055q89 219 257 331.5t392 112.5q183 0 305 -90q119 -91 119 -250q0 -187 -188 -315q-96 -65 -236 -137l-205 -107l-14 -16l-35 -92l-57 -82h-226v82l23 61q35 93 104.5 161t186.5 126l69 34l37 19q109 54 155 83t75 66 q28 42 28 97q0 67 -48.5 105t-131.5 38q-224 0 -332 -227h-278z" />
<glyph unicode="@" horiz-adv-x="2344" d="M162 377q-3 152 41 298.5t125.5 270t199 228.5t256.5 177t303 111.5t334 36.5q175 2 330 -51.5t263.5 -147t170.5 -223t60 -274.5q0 -224 -75 -394.5t-216 -265t-330 -94.5q-187 0 -235 135h-19q-88 -77 -166.5 -109t-185.5 -32q-177 0 -277 99.5t-100 263.5 q-2 117 48.5 238t134.5 215.5t201.5 153.5t240.5 56q200 0 282 -176h27l113 133h159l-235 -649q-8 -16 -8 -39q0 -51 55 -51q140 0 236 134.5t96 371.5q0 222 -160 346q-159 123 -426 123q-197 4 -381 -67t-317 -190.5t-212 -283t-75 -336.5q0 -274 162 -414 q160 -139 424 -139q308 0 571 139h31l82 -180v-31q-169 -81 -335 -125.5t-364 -44.5q-378 0 -603.5 215.5t-225.5 571.5zM887 428q0 -86 50.5 -134t137.5 -48q93 -3 181.5 56t143 155.5t52.5 197.5q0 86 -50 135.5t-136 49.5q-93 3 -182.5 -55.5t-144.5 -156t-52 -200.5z " />
<glyph unicode="A" horiz-adv-x="1445" d="M-170 0v31l1034 1444h357l18 -1475h-278l4 350h-586l-242 -350h-307zM528 567h439l4 611h-21z" />
<glyph unicode="B" horiz-adv-x="1413" d="M-61 0l536 1475h647q194 0 304 -88t110 -242q0 -148 -119.5 -256t-329.5 -146v-20q100 -31 154.5 -99.5t54.5 -172.5q0 -90 -49 -171.5t-138 -144t-225 -99t-300 -36.5h-645zM303 213h315q179 0 285.5 78t106.5 190q0 76 -50 119t-143 43h-358zM537 856h368 q157 0 252.5 72t95.5 178q0 73 -45 114.5t-125 41.5h-399z" />
<glyph unicode="C" horiz-adv-x="1652" d="M141 571v14q1 104 29 211q30 114 88 218.5t146 195t194 156.5q108 68 242 104q124 34 256 33h22q147 0 264.5 -45t190.5 -121.5t111 -175.5q35 -92 34 -193v-16h-278q0 150 -91 238t-276 88h-11q-99 0 -194 -36q-100 -38 -179 -105.5t-139 -156t-92 -194.5 q-30 -99 -30 -199v-12q0 -178 105.5 -278t291.5 -100q164 0 288.5 88.5t195.5 236.5h278v-30q-33 -75 -81 -145.5t-120.5 -140t-157.5 -121t-198 -83.5q-110 -31 -229 -31h-8q-289 0 -470.5 166t-181.5 434z" />
<glyph unicode="D" horiz-adv-x="1560" d="M-61 0l536 1475h498q276 0 443 -146.5t167 -380.5v-17q-1 -137 -45 -270q-48 -141 -141 -261t-219 -211t-292 -141q-156 -48 -327 -48h-20h-600zM305 217h246h18q118 0 229 37q119 40 208.5 110.5t156.5 161.5t101 194q32 97 32 193v11q0 161 -103.5 247t-293.5 86h-217z " />
<glyph unicode="E" horiz-adv-x="1286" d="M-61 0l536 1475h1057l-76 -213h-772l-143 -398h663l-78 -213h-663l-160 -438h813l-78 -213h-1099z" />
<glyph unicode="F" horiz-adv-x="1187" d="M-61 0l536 1475h1018l-76 -213h-733l-152 -418h658l-78 -213h-657l-230 -631h-286z" />
<glyph unicode="G" horiz-adv-x="1681" d="M135 563v13q0 103 31 210q32 113 92.5 218.5t153.5 198t205 160.5t255 105q131 35 272 35h23q141 0 255.5 -43.5t187.5 -119t110 -175.5q34 -88 34 -187q0 -13 -1 -26h-274q0 152 -90.5 239t-270.5 87h-14q-136 0 -262 -56q-131 -59 -223 -157t-145 -227 q-52 -125 -52 -253v-10q0 -178 105.5 -278t291.5 -100q169 0 294.5 88.5t189.5 246.5h-488l76 205h754l-271 -737h-172l12 162h-20q-85 -93 -192.5 -142t-258.5 -49q-271 0 -439.5 164.5t-168.5 427.5z" />
<glyph unicode="H" horiz-adv-x="1462" d="M-61 0l536 1475h287l-227 -623h622l227 623h287l-536 -1475h-287l231 635h-622l-232 -635h-286z" />
<glyph unicode="I" horiz-adv-x="557" d="M-61 0l536 1475h291l-537 -1475h-290z" />
<glyph unicode="J" horiz-adv-x="1165" d="M-27 350q0 48 13 111h270q-12 -49 -12 -90q0 -86 47.5 -134.5t138.5 -48.5q101 0 167 53.5t105 161.5l392 1072h290l-399 -1096q-147 -408 -573 -408q-200 0 -319.5 101.5t-119.5 277.5z" />
<glyph unicode="K" horiz-adv-x="1495" d="M-61 0l536 1475h287l-232 -637h21l891 637h364v-31l-833 -574l295 -870h-299l-230 709l-342 -236l-172 -473h-286z" />
<glyph unicode="L" horiz-adv-x="1177" d="M-61 0l536 1475h287l-457 -1258h717l-80 -217h-1003z" />
<glyph unicode="M" horiz-adv-x="1966" d="M-61 0l536 1475h344l43 -1158h21l891 1158h401l-537 -1475h-282l354 973h-20l-752 -973h-305l-37 973h-21l-354 -973h-282z" />
<glyph unicode="N" horiz-adv-x="1523" d="M-61 0l536 1475h350l203 -1104h21l401 1104h283l-537 -1475h-350l-203 1104h-20l-402 -1104h-282z" />
<glyph unicode="O" d="M135 563v13q0 104 30 210q32 114 92.5 219t151.5 197.5t201 160.5q110 67 248 105q128 35 263 35h22q289 0 466 -164t177 -428v-13q0 -104 -30 -210q-32 -114 -92.5 -219t-151.5 -197.5t-201 -160.5q-110 -67 -248 -105q-128 -35 -263 -35h-22q-289 0 -466 164t-177 428z M422 575q0 -178 105.5 -278t291.5 -100h14q174 1 328 97q160 100 251 264q87 157 87 326v15q0 178 -105.5 278.5t-291.5 100.5h-13q-130 0 -252 -56q-128 -59 -219 -157q-91 -97 -145 -227q-51 -123 -51 -249v-14z" />
<glyph unicode="P" horiz-adv-x="1384" d="M-61 0l536 1475h625q187 0 300 -101t113 -260q0 -229 -189.5 -378.5t-498.5 -149.5h-387l-213 -586h-286zM516 799h313q186 0 294 78.5t108 222.5q0 76 -50 119t-143 43h-354z" />
<glyph unicode="Q" d="M135 563v13q0 103 30 210q32 113 92.5 217.5t151.5 196.5t201 159.5t248 104.5q128 35 263 35h22q289 0 466 -162.5t177 -425.5v-12q0 -119 -39 -242q-41 -129 -122.5 -246.5t-192 -211.5t-259 -153.5t-311.5 -68.5l-51 -141l10 -16h240l-70 -189h-235q-98 0 -153.5 46 t-55.5 128q0 52 22 113l29 76q-216 47 -339.5 198.5t-123.5 370.5zM422 575q0 -178 104 -276t293 -98h14q174 0 328 95q160 100 251 262q87 156 87 326v15q0 179 -104 277t-293 98h-13q-130 0 -252 -56q-128 -58 -219.5 -155t-145.5 -226q-50 -122 -50 -248v-14z" />
<glyph unicode="R" horiz-adv-x="1419" d="M-61 0l536 1475h649q188 0 305 -103t117 -264q0 -207 -155 -354t-414 -174l121 -580h-283l-108 573h-273l-209 -573h-286zM512 786h350q186 0 294 80.5t108 227.5q0 78 -53.5 123t-147.5 45h-379z" />
<glyph unicode="S" horiz-adv-x="1439" d="M33 485l2 43h282q-1 -15 -1 -29q0 -143 90 -225q99 -90 274 -90q154 0 249 65.5t95 170.5q0 71 -48.5 110.5t-172.5 83.5l-154 56q-162 59 -243.5 149.5t-81.5 237.5q0 200 171 323t459 123q269 0 431.5 -126.5t162.5 -344.5l-2 -41h-282l2 31q0 125 -94.5 196.5 t-241.5 71.5q-150 0 -237 -57.5t-87 -157.5q0 -69 42 -108.5t140 -73.5l154 -55q192 -70 280.5 -163t88.5 -233q0 -208 -174.5 -339.5t-481.5 -131.5q-286 0 -454 139t-168 375z" />
<glyph unicode="T" horiz-adv-x="1308" d="M283 1262l77 213h1274l-78 -213h-491l-459 -1262h-287l459 1262h-495z" />
<glyph unicode="U" horiz-adv-x="1488" d="M104 395q0 89 33 174l330 906h291l-350 -965q-21 -52 -21 -107q0 -98 70 -156.5t192 -58.5q158 0 256 76.5t160 245.5l352 965h291l-367 -1004q-95 -260 -263 -380t-447 -120q-235 0 -381 119t-146 305z" />
<glyph unicode="V" horiz-adv-x="1443" d="M354 1475h279l-10 -1178h20l813 1178h307v-31l-1034 -1444h-356z" />
<glyph unicode="W" horiz-adv-x="2154" d="M205 0l149 1475h287l-121 -1076h21l698 1076h344l-84 -1076h21l661 1076h293v-31l-897 -1444h-344l76 1112h-21l-731 -1112h-352z" />
<glyph unicode="X" horiz-adv-x="1503" d="M-152 0v31l799 745l-285 699h300l204 -551h21l577 551h324v-31l-766 -715l297 -729h-299l-217 580h-21l-610 -580h-324z" />
<glyph unicode="Y" horiz-adv-x="1417" d="M332 1475h274l154 -682h20l650 682h319v-31l-913 -944l-183 -500h-286l192 524z" />
<glyph unicode="Z" horiz-adv-x="1302" d="M-100 0l59 164l1139 1098h-760l78 213h1134l-59 -164l-1139 -1098h772l-77 -213h-1147z" />
<glyph unicode="[" horiz-adv-x="688" d="M-209 -410l725 1987h492l-70 -188h-225l-586 -1610h225l-69 -189h-492z" />
<glyph unicode="\" horiz-adv-x="1249" d="M403 1444v31h246l344 -1444v-31h-245z" />
<glyph unicode="]" horiz-adv-x="688" d="M-281 -410l70 189h225l586 1610h-225l69 188h492l-725 -1987h-492z" />
<glyph unicode="^" horiz-adv-x="1134" d="M141 778v31l607 666h294l121 -697h-293l-59 406h-20l-355 -406h-295z" />
<glyph unicode="_" horiz-adv-x="1146" d="M-178 -203l49 133h983l-49 -133h-983z" />
<glyph unicode="`" horiz-adv-x="1228" d="M502 1444v31h311l80 -297h-240z" />
<glyph unicode="a" horiz-adv-x="1329" d="M57 397v10q0 125 50 247q52 128 141 225q88 97 214 155q119 56 248 56h13q125 0 209 -58.5t121 -159.5h20l127 193h209l-387 -1065h-266l47 127h-21q-147 -147 -348 -147q-172 0 -274.5 113.5t-102.5 303.5zM319 414q0 -110 61.5 -170t172.5 -60q113 0 210.5 65.5 t153.5 173t56 228.5q0 110 -61.5 170t-172.5 60q-113 0 -210.5 -65.5t-153.5 -173t-56 -228.5z" />
<glyph unicode="b" horiz-adv-x="1327" d="M-82 0l537 1475h270l-193 -531h21q144 141 340 141q172 0 274.5 -113.5t102.5 -303.5v-10q0 -126 -50 -248q-52 -128 -141 -224q-89 -98 -215 -156q-119 -56 -247 -55h-13q-125 0 -209 58.5t-121 159.5h-20l-127 -193h-209zM354 414q0 -110 61.5 -170t172.5 -60 q113 0 210.5 65.5t153.5 173t56 228.5q0 110 -61.5 170t-172.5 60q-113 0 -210.5 -65.5t-153.5 -173t-56 -228.5z" />
<glyph unicode="c" horiz-adv-x="1208" d="M57 401v9q1 126 53 248q54 126 148 221t230 151q131 55 276 55h10q208 -1 320 -117q104 -108 105 -275q0 -13 -1 -27h-254q1 10 1 20q0 83 -47 136q-52 59 -159 59q-113 0 -212 -64.5t-157.5 -172.5t-58.5 -230q0 -110 60.5 -170t169.5 -60q195 0 288 185h267v-31 q-71 -142 -215 -250q-147 -108 -375 -108q-207 0 -328 117t-121 304z" />
<glyph unicode="d" horiz-adv-x="1329" d="M57 397v10q0 125 50 247q52 128 141 225q88 97 214 155q119 56 248 56h13q124 0 206.5 -58t119.5 -160h20l219 603h271l-537 -1475h-266l45 127h-21q-147 -147 -346 -147q-172 0 -274.5 113.5t-102.5 303.5zM319 414q0 -110 61.5 -170t172.5 -60q113 0 210.5 65.5 t153.5 173t56 228.5q0 110 -61.5 170t-172.5 60q-113 0 -210.5 -65.5t-153.5 -173t-56 -228.5z" />
<glyph unicode="e" horiz-adv-x="1232" d="M57 401v9q1 126 53 248q54 126 148 221t230 151q131 55 276 55h10q194 0 309 -110.5t115 -278.5q0 -80 -27 -157l-26 -82h-836q-2 -10 -2 -43q0 -110 61.5 -170t172.5 -60q177 0 272 164h262v-31q-65 -130 -207 -235q-138 -102 -362 -102q-207 0 -328 117t-121 304z M362 645h580q4 46 4 47q0 89 -54 139t-153 50q-120 0 -221 -64.5t-156 -171.5z" />
<glyph unicode="f" horiz-adv-x="856" d="M74 0l319 877h-248l70 188h246l59 164q45 125 137.5 185.5t243.5 60.5h307l-67 -189h-314l-22 -16l-74 -205h277l-70 -188h-276l-318 -877h-270z" />
<glyph unicode="g" horiz-adv-x="1312" d="M-113 -51h275q14 -83 81 -132.5t175 -49.5q131 0 205.5 65t126.5 205l38 108h-20q-138 -135 -330 -135q-170 0 -272.5 112t-102.5 298v10q0 121 49 239q51 123 137.5 216.5t208.5 150.5q117 54 242 54h13q125 0 207.5 -58t115.5 -160h21l127 193h209l-377 -1036 q-43 -114 -90.5 -192.5t-118.5 -142t-171 -95t-235 -33.5q-225 0 -356 104t-158 279zM326 434q0 -106 59.5 -162.5t169.5 -56.5q168 0 285.5 132.5t117.5 311.5q0 108 -59 165t-170 57t-204 -62t-146 -164.5t-53 -220.5z" />
<glyph unicode="h" horiz-adv-x="1239" d="M-80 0l535 1475h270l-195 -535h21q145 145 358 145q142 0 221.5 -72.5t79.5 -197.5q0 -87 -32 -166l-236 -649h-270l239 657q21 55 21 101q0 63 -42 97t-120 34q-120 0 -217.5 -76t-151.5 -225l-211 -588h-270z" />
<glyph unicode="i" horiz-adv-x="497" d="M-80 0l387 1065h271l-388 -1065h-270zM336 1219l92 256h320l-93 -256h-319z" />
<glyph unicode="j" horiz-adv-x="536" d="M-465 -410l72 197h258l22 16l459 1262h270l-446 -1229q-88 -246 -340 -246h-295zM377 1219l92 256h319l-92 -256h-319z" />
<glyph unicode="k" horiz-adv-x="1226" d="M-82 0l537 1475h270l-291 -801h21l594 391h340v-31l-588 -379l200 -655h-270l-153 510l-267 -172l-123 -338h-270z" />
<glyph unicode="l" horiz-adv-x="495" d="M-82 0l537 1475h270l-537 -1475h-270z" />
<glyph unicode="m" horiz-adv-x="1898" d="M-80 0l387 1065h266l-43 -115h21q75 71 150 103t173 32q102 0 174 -48.5t97 -133.5h20q153 182 381 182q143 0 229.5 -73t86.5 -197q0 -70 -29 -149l-242 -666h-270l248 684q18 50 18 88q0 56 -38.5 86.5t-106.5 30.5q-105 0 -191.5 -68.5t-138.5 -208.5l-221 -612h-270 l247 684q19 52 19 88q0 56 -39 86.5t-107 30.5q-107 0 -192 -68t-137 -209l-222 -612h-270z" />
<glyph unicode="n" horiz-adv-x="1239" d="M-80 0l387 1065h266l-49 -131h21q151 151 364 151q142 0 221.5 -72.5t79.5 -197.5q0 -87 -32 -166l-236 -649h-270l239 657q21 55 21 101q0 63 -42 97t-120 34q-120 0 -217.5 -76t-151.5 -225l-211 -588h-270z" />
<glyph unicode="o" horiz-adv-x="1275" d="M57 401v9q1 126 53 248q54 126 148 221t230 151q131 55 276 55h10q203 0 324 -117.5t121 -303.5v-9q-1 -127 -53 -249q-54 -126 -148 -220q-94 -96 -230 -152q-131 -55 -276 -54h-10q-203 0 -324 117.5t-121 303.5zM311 414q0 -110 61.5 -170t172.5 -60q113 0 210.5 65.5 t153.5 173t56 228.5q0 110 -61.5 170t-172.5 60q-113 0 -210.5 -65.5t-153.5 -173t-56 -228.5z" />
<glyph unicode="p" horiz-adv-x="1329" d="M-229 -410l536 1475h266l-45 -127h21q147 147 346 147q172 0 274.5 -113.5t102.5 -303.5v-10q0 -125 -50 -248q-52 -127 -141 -224t-215 -156q-119 -55 -247 -55h-13q-124 0 -206 58t-119 160h-21l-219 -603h-270zM356 414q0 -110 61.5 -170t172.5 -60q113 0 210.5 65.5 t153.5 173t56 228.5q0 110 -61.5 170t-172.5 60q-113 0 -210.5 -65.5t-153.5 -173t-56 -228.5z" />
<glyph unicode="q" horiz-adv-x="1327" d="M57 397v10q0 125 50 247q52 128 141 225t214 155q120 56 248 56h13q125 0 209 -58.5t121 -159.5h20l127 193h209l-537 -1475h-270l195 531h-21q-144 -141 -342 -141q-172 0 -274.5 113.5t-102.5 303.5zM319 414q0 -110 61.5 -170t172.5 -60q113 0 210.5 65.5t153.5 173 t56 228.5q0 110 -61.5 170t-172.5 60q-113 0 -210.5 -65.5t-153.5 -173t-56 -228.5z" />
<glyph unicode="r" horiz-adv-x="800" d="M-80 0l387 1065h266l-53 -147h21q105 151 317 151h96l-80 -221h-129q-131 0 -213 -65t-131 -197l-211 -586h-270z" />
<glyph unicode="s" horiz-adv-x="1116" d="M-14 379h245v-13q1 -86 63 -138q68 -56 195 -56q113 0 175.5 39t62.5 96q0 39 -30.5 63t-94.5 42l-147 41q-142 39 -211.5 110.5t-69.5 186.5q0 151 136 243t347 92q221 0 349 -106q122 -101 122 -257v-15h-245q-5 88 -69.5 137t-176.5 49q-98 0 -157.5 -36.5 t-59.5 -94.5q0 -40 29.5 -64.5t93.5 -42.5l147 -41q143 -39 213 -107.5t70 -178.5q0 -63 -30.5 -123t-89 -111t-155 -82.5t-215.5 -31.5q-242 0 -372 107q-125 103 -125 278v14z" />
<glyph unicode="t" horiz-adv-x="897" d="M145 877l70 188h236l104 287l272 82h31l-137 -369h272l-69 -188h-273l-239 -664l10 -16h311l-74 -197h-251q-115 0 -181.5 58t-66.5 153q0 58 20 108l201 558h-236z" />
<glyph unicode="u" horiz-adv-x="1239" d="M29 250q0 87 32 166l236 649h270l-239 -657q-21 -56 -21 -101q0 -63 42 -97t120 -34q121 0 218 76t151 225l211 588h270l-387 -1065h-266l49 131h-21q-151 -151 -364 -151q-142 0 -221.5 72.5t-79.5 197.5z" />
<glyph unicode="v" horiz-adv-x="1161" d="M205 1065h258l-4 -760h20l549 760h285v-31l-770 -1034h-320z" />
<glyph unicode="w" horiz-adv-x="1712" d="M145 0l91 1065h253l-90 -760h21l467 760h287l-70 -760h20l447 760h266v-31l-643 -1034h-324l68 741h-20l-457 -741h-316z" />
<glyph unicode="x" horiz-adv-x="1239" d="M-121 0v31l576 540l-187 494h269l116 -352h21l370 352h285v-31l-534 -502l200 -532h-270l-129 391h-21l-411 -391h-285z" />
<glyph unicode="y" horiz-adv-x="1181" d="M-266 -410l71 197h261l22 14l133 170l-16 1094h258l-4 -791h20l570 791h284v-31l-960 -1290q-65 -87 -135.5 -120.5t-180.5 -33.5h-323z" />
<glyph unicode="z" horiz-adv-x="1058" d="M-115 0l64 176l788 684h-538l80 205h882l-67 -172l-789 -684h569l-75 -209h-914z" />
<glyph unicode="{" horiz-adv-x="843" d="M8 -289q0 35 19 94l192 527q19 52 19 84q0 54 -43.5 74t-141.5 20l70 188q124 0 190 37t103 142l176 485q77 215 315 215h256l-69 -188h-209l-23 -17l-182 -504q-38 -107 -120.5 -174.5t-199.5 -91.5v-20q140 -36 140 -160q0 -52 -21 -107l-190 -520l10 -16h209l-70 -189 h-256q-174 0 -174 121z" />
<glyph unicode="|" horiz-adv-x="518" d="M-229 -410l686 1885h291l-687 -1885h-290z" />
<glyph unicode="}" horiz-adv-x="845" d="M-281 -410l70 189h209l22 16l183 504q38 107 120 174.5t199 91.5v21q-139 36 -139 159q0 54 20 107l191 520l-10 17h-209l69 188h256q174 0 174 -121q0 -38 -18 -94l-192 -526q-19 -52 -19 -84q0 -54 43 -74.5t141 -20.5l-69 -188q-125 0 -190.5 -37t-102.5 -141 l-176 -486q-77 -215 -316 -215h-256z" />
<glyph unicode="~" horiz-adv-x="1474" d="M154 358v31q67 170 183.5 264.5t252.5 94.5q63 0 107.5 -20t99.5 -66q46 -38 73.5 -52t63.5 -14q122 0 178 131h217v-31q-65 -169 -182 -263.5t-254 -94.5q-63 0 -107.5 20t-99.5 66q-45 37 -72.5 51t-64.5 14q-122 0 -178 -131h-217z" />
<glyph unicode="&#xa1;" horiz-adv-x="552" d="M-225 -451l164 451l260 594h213l-187 -594l-164 -451h-286zM186 737l105 287h327l-104 -287h-328z" />
<glyph unicode="&#xa2;" horiz-adv-x="1228" d="M57 401q-2 123 45 241.5t130.5 211.5t204.5 154.5t257 72.5l76 209h274l-86 -235q122 -44 185 -147.5t55 -241.5h-254q6 97 -46 156t-159 59q-113 0 -212 -64.5t-157.5 -172.5t-58.5 -230q0 -110 60.5 -170t169.5 -60q195 0 288 185h267v-31q-65 -132 -195 -236 q-132 -105 -334 -120l-75 -207h-275l88 241q-118 47 -183 148.5t-65 236.5z" />
<glyph unicode="&#xa3;" horiz-adv-x="1298" d="M-80 0l70 193q144 76 209 172q60 88 96 258h-201l72 196h164l12 64q55 302 232 459t444 157q195 0 312.5 -97t117.5 -267q0 -53 -12 -111h-279q14 43 14 92q0 75 -47 116.5t-137 41.5q-136 0 -235 -101t-129 -282l-13 -72h289l-72 -196h-252q-33 -160 -96.5 -253.5 t-185.5 -152.5h835l-77 -217h-1131z" />
<glyph unicode="&#xa4;" horiz-adv-x="1370" d="M-186 47l301 209q-27 68 -27 154q0 128 51 249t144 215l-138 199l197 141l139 -200q157 71 336 71q178 0 305 -92l301 209l133 -184l-301 -209q27 -68 27 -154q0 -128 -51 -249.5t-144 -215.5l138 -198l-197 -142l-139 201q-157 -71 -336 -71q-178 0 -305 92l-301 -209z M342 422q0 -114 67 -176t187 -62q115 0 215.5 65t158.5 170.5t58 223.5q0 114 -67 176t-187 62q-115 0 -215.5 -65t-158.5 -170.5t-58 -223.5z" />
<glyph unicode="&#xa5;" horiz-adv-x="1417" d="M109 246l67 188h350l37 103h-350l68 188h231l-180 750h274l154 -682h20l650 682h319v-31l-694 -719h209l-68 -188h-346l-39 -103h348l-67 -188h-349l-90 -246h-286l90 246h-348z" />
<glyph unicode="&#xa6;" horiz-adv-x="518" d="M-229 -410l237 652h291l-238 -652h-290zM219 823l238 652h291l-238 -652h-291z" />
<glyph unicode="&#xa7;" horiz-adv-x="1288" d="M49 117q0 7 4 57h273q-4 -32 -4 -37q0 -55 40.5 -86t114.5 -31q81 0 131.5 45.5t50.5 114.5q0 57 -30 93.5t-113 97.5l-139 100q-105 76 -152 147t-47 158q0 122 89.5 208t236.5 118v20q-21 58 -21 121q0 161 140 272t354 111q188 0 291.5 -83t103.5 -220q0 -5 -4 -55 h-272q4 32 4 35q0 51 -41.5 80.5t-114.5 29.5q-81 0 -131.5 -45.5t-50.5 -114.5q0 -57 30 -93t113 -97l139 -100q105 -76 152 -147.5t47 -158.5q0 -121 -89 -207t-236 -118v-21q20 -56 20 -121q0 -161 -140 -272t-354 -111q-187 0 -291 85.5t-104 224.5zM453 813 q0 -53 28.5 -90.5t98.5 -87.5l174 -123q15 -11 29 -22.5t21 -17t9 -7.5q72 17 114 59t42 97q0 53 -28.5 90.5t-98.5 87.5l-174 123q-15 11 -29 22.5t-21 17t-10 7.5q-72 -17 -113.5 -59t-41.5 -97z" />
<glyph unicode="&#xa8;" horiz-adv-x="1228" d="M283 1198l90 246h286l-90 -246h-286zM692 1198l90 246h287l-90 -246h-287z" />
<glyph unicode="&#xa9;" d="M199 737q-3 155 56.5 297.5t162 244.5t245 162t298.5 58q155 2 297 -58t244.5 -162t162 -244.5t57.5 -297.5q2 -156 -57.5 -298.5t-162 -245t-244.5 -162t-297 -56.5q-156 -3 -298.5 56.5t-245 162t-162 245t-56.5 298.5zM285 737q-2 -140 50 -266.5t142 -218 t216.5 -144.5t267.5 -51q139 -2 265.5 51t217 144.5t142.5 218t50 266.5q2 140 -50 266.5t-142.5 218t-217 144.5t-265.5 51q-141 2 -267.5 -51t-216.5 -144.5t-142 -218t-50 -266.5zM592 739q0 180 108.5 295t276.5 115q130 0 216 -69t107 -177v-31h-81q-14 87 -79 141 t-163 54q-134 0 -216.5 -89.5t-82.5 -238.5q0 -148 82.5 -237.5t216.5 -89.5q104 0 168.5 53t83.5 149h82v-30q-21 -111 -111.5 -182.5t-222.5 -71.5q-168 0 -276.5 115t-108.5 294z" />
<glyph unicode="&#xab;" horiz-adv-x="1187" d="M47 496l10 30l432 332h275v-31l-434 -340l202 -284v-31h-258zM498 496l10 30l432 332h274v-31l-434 -340l203 -284v-31h-258z" />
<glyph unicode="&#xad;" horiz-adv-x="819" d="M82 422l80 217h573l-80 -217h-573z" />
<glyph unicode="&#xae;" d="M199 737q-3 155 56.5 297.5t162 244.5t245 162t298.5 58q155 2 297 -58t244.5 -162t162 -244.5t57.5 -297.5q2 -156 -57.5 -298.5t-162 -245t-244.5 -162t-297 -56.5q-156 -3 -298.5 56.5t-245 162t-162 245t-56.5 298.5zM285 737q-2 -140 50 -266.5t142 -218 t216.5 -144.5t267.5 -51q139 -2 265.5 51t217 144.5t142.5 218t50 266.5q2 140 -50 266.5t-142.5 218t-217 144.5t-265.5 51q-141 2 -267.5 -51t-216.5 -144.5t-142 -218t-50 -266.5zM690 340v799h373q105 0 169 -63t64 -167q0 -99 -59 -161t-158 -68l164 -309v-31h-84 l-176 340h-207v-340h-86zM776 762h268q80 0 123 37.5t43 109.5t-43 110t-123 38h-268v-295z" />
<glyph unicode="&#xaf;" horiz-adv-x="1228" d="M336 1198l70 188h675l-69 -188h-676z" />
<glyph unicode="&#xb0;" horiz-adv-x="931" d="M330 1098q0 98 57 191t154 151.5t204 58.5q144 0 228 -78.5t84 -203.5q0 -73 -34.5 -146.5t-90.5 -129.5t-133 -91t-158 -35q-144 0 -227.5 79t-83.5 204zM553 1108q0 -47 27.5 -73.5t72.5 -26.5q74 0 127.5 59t53.5 139q0 47 -28 74t-73 27q-74 0 -127 -59.5t-53 -139.5 z" />
<glyph unicode="&#xb1;" horiz-adv-x="1474" d="M23 0l81 225h1045l-82 -225h-1044zM264 666l82 225h410l131 358h225l-131 -358h410l-82 -225h-408l-131 -359h-225l131 359h-412z" />
<glyph unicode="&#xb4;" horiz-adv-x="1228" d="M449 1178v30l243 267h336v-31l-321 -266h-258z" />
<glyph unicode="&#xb6;" horiz-adv-x="1570" d="M246 961q-3 140 81.5 259.5t234 188.5t327.5 66h1007l-77 -213h-197l-459 -1262h-282l458 1262h-180l-459 -1262h-282l233 647h-67q-159 0 -248.5 83.5t-89.5 230.5z" />
<glyph unicode="&#xb7;" horiz-adv-x="471" d="M37 436l104 287h328l-104 -287h-328z" />
<glyph unicode="&#xb8;" horiz-adv-x="1228" d="M-143 -358l51 133h31q33 -30 83 -49t103 -19q56 0 85.5 17.5t29.5 48.5q0 47 -66 47h-115v30l88 150h144l-58 -94l35 2q66 5 105 -27t39 -92q0 -89 -83 -154t-210 -65q-76 0 -146.5 20.5t-115.5 51.5z" />
<glyph unicode="&#xbb;" horiz-adv-x="1187" d="M-23 172v31l435 340l-203 284v31h258l227 -323l-10 -31l-432 -332h-275zM428 172v31l434 340l-203 284v31h259l227 -323l-10 -31l-433 -332h-274z" />
<glyph unicode="&#xbf;" horiz-adv-x="1173" d="M-162 -135q0 189 189 317q87 60 235 135l205 107l14 16l35 92l57 82h226v-82l-23 -61q-35 -93 -104.5 -161t-186.5 -126l-69 -34l-37 -19q-112 -56 -156 -83.5t-71 -65.5q-31 -42 -31 -97q0 -67 48.5 -105t131.5 -38q224 0 332 227h278q-89 -219 -257 -331.5t-392 -112.5 q-183 0 -305 90q-119 91 -119 250zM569 737l105 287h327l-104 -287h-328z" />
<glyph unicode="&#xc0;" horiz-adv-x="1445" d="M-170 0v31l1034 1444h357l18 -1475h-278l4 350h-586l-242 -350h-307zM528 567h439l4 611h-21zM827 1812v31h281l96 -256h-235z" />
<glyph unicode="&#xc1;" horiz-adv-x="1445" d="M-170 0v31l1034 1444h357l18 -1475h-278l4 350h-586l-242 -350h-307zM528 567h439l4 611h-21zM899 1587v31l223 225h330v-31l-289 -225h-264z" />
<glyph unicode="&#xc2;" horiz-adv-x="1445" d="M-170 0v31l1034 1444h357l18 -1475h-278l4 350h-586l-242 -350h-307zM528 567h439l4 611h-21zM678 1567v30l305 226h340l160 -226v-30h-236l-106 135l-197 -135h-266z" />
<glyph unicode="&#xc3;" horiz-adv-x="1445" d="M-170 0v31l1034 1444h357l18 -1475h-278l4 350h-586l-242 -350h-307zM528 567h439l4 611h-21zM719 1591v31q38 107 107.5 170t170.5 63q42 0 76 -14t78 -45q62 -45 104 -45q41 0 68.5 24t38.5 64h168v-31q-38 -106 -108 -169.5t-171 -63.5q-42 0 -75 13.5t-78 45.5 q-62 45 -105 45q-41 0 -68 -24t-38 -64h-168z" />
<glyph unicode="&#xc4;" horiz-adv-x="1445" d="M-170 0v31l1034 1444h357l18 -1475h-278l4 350h-586l-242 -350h-307zM528 567h439l4 611h-21zM682 1569l104 286h328l-104 -286h-328zM1149 1569l104 286h328l-104 -286h-328z" />
<glyph unicode="&#xc5;" horiz-adv-x="1445" d="M-170 0v31l1034 1444h357l18 -1475h-278l4 350h-586l-242 -350h-307zM528 567h439l4 611h-21zM864 1696q0 96 85 167.5t196 71.5q80 0 129 -44t49 -117q0 -93 -85.5 -166.5t-193.5 -73.5q-82 0 -131 44t-49 118zM1012 1716q0 -55 61 -55q42 0 72.5 28t30.5 64 q0 26 -16.5 40.5t-43.5 14.5q-42 0 -73 -28t-31 -64z" />
<glyph unicode="&#xc6;" horiz-adv-x="2033" d="M-170 0v31l1260 1444h1189l-75 -213h-686l-144 -398h578l-78 -213h-578l-159 -438h727l-78 -213h-1014l127 350h-448l-293 -350h-328zM635 567h344l250 686h-21z" />
<glyph unicode="&#xc7;" horiz-adv-x="1652" d="M141 571q-2 111 28.5 225t88.5 218.5t146 195t194.5 157t241 103t278.5 33.5q147 0 264.5 -45t190.5 -121.5t110.5 -175.5t34.5 -209h-278q0 150 -91 238t-276 88q-105 2 -205 -35.5t-179 -105.5t-139 -156.5t-92 -194t-30 -211.5q0 -178 105.5 -278t291.5 -100 q164 0 288.5 88.5t195.5 236.5h278v-30q-90 -196 -278 -353q-194 -159 -484 -168l-41 -65l35 2q66 5 105 -27t39 -92q0 -89 -83 -154t-210 -65q-76 0 -146.5 20.5t-115.5 51.5l51 133h30q33 -30 83.5 -49t103.5 -19q56 0 85.5 17.5t29.5 48.5q0 47 -66 47h-115v30l76 127 q-248 31 -396.5 191t-148.5 403z" />
<glyph unicode="&#xc8;" horiz-adv-x="1286" d="M-61 0l536 1475h1057l-76 -213h-772l-143 -398h663l-78 -213h-663l-160 -438h813l-78 -213h-1099zM764 1812v31h280l97 -256h-236z" />
<glyph unicode="&#xc9;" horiz-adv-x="1286" d="M-61 0l536 1475h1057l-76 -213h-772l-143 -398h663l-78 -213h-663l-160 -438h813l-78 -213h-1099zM836 1587v31l223 225h330v-31l-289 -225h-264z" />
<glyph unicode="&#xca;" horiz-adv-x="1286" d="M-61 0l536 1475h1057l-76 -213h-772l-143 -398h663l-78 -213h-663l-160 -438h813l-78 -213h-1099zM614 1567v30l306 226h340l159 -226v-30h-235l-107 135l-196 -135h-267z" />
<glyph unicode="&#xcb;" horiz-adv-x="1286" d="M-61 0l536 1475h1057l-76 -213h-772l-143 -398h663l-78 -213h-663l-160 -438h813l-78 -213h-1099zM618 1569l105 286h328l-105 -286h-328zM1085 1569l105 286h328l-105 -286h-328z" />
<glyph unicode="&#xcc;" horiz-adv-x="557" d="M-61 0l536 1475h291l-537 -1475h-290zM403 1812v31h281l96 -256h-235z" />
<glyph unicode="&#xcd;" horiz-adv-x="557" d="M-61 0l536 1475h291l-537 -1475h-290zM475 1587v31l223 225h330v-31l-289 -225h-264z" />
<glyph unicode="&#xce;" horiz-adv-x="557" d="M-61 0l536 1475h291l-537 -1475h-290zM254 1567v30l305 226h340l160 -226v-30h-236l-106 135l-197 -135h-266z" />
<glyph unicode="&#xcf;" horiz-adv-x="557" d="M-61 0l536 1475h291l-537 -1475h-290zM258 1569l104 286h328l-104 -286h-328zM725 1569l104 286h328l-104 -286h-328z" />
<glyph unicode="&#xd0;" horiz-adv-x="1624" d="M2 0l242 666h-174l59 163h174l236 646h497q276 0 443.5 -146.5t167.5 -380.5q2 -121 -31.5 -240.5t-97 -225t-158.5 -195.5t-209.5 -154.5t-256 -99.5t-292.5 -33h-600zM369 217h245q128 -3 247 37t209 110.5t157 161.5t101 194t32 204q0 161 -103.5 247t-293.5 86h-218 l-155 -428h241l-59 -163h-242z" />
<glyph unicode="&#xd1;" horiz-adv-x="1523" d="M-61 0l536 1475h350l203 -1104h21l401 1104h283l-537 -1475h-350l-203 1104h-20l-402 -1104h-282zM737 1591v31q38 106 108 169.5t171 63.5q42 0 75 -13.5t78 -45.5q62 -45 105 -45q41 0 68 24t38 64h168v-31q-38 -107 -107.5 -170t-170.5 -63q-42 0 -76 14t-78 45 q-62 45 -104 45q-41 0 -68.5 -24t-38.5 -64h-168z" />
<glyph unicode="&#xd2;" d="M135 563q-2 109 30 222.5t92.5 219t151.5 198t201 160.5t248 105.5t285 34.5q289 0 466 -164t177 -428q2 -109 -30 -222.5t-92.5 -219t-151.5 -198t-201 -160.5t-248 -105.5t-285 -34.5q-289 0 -466 164t-177 428zM422 575q0 -178 105.5 -278t291.5 -100q182 -4 342 96.5 t251 264t87 341.5q0 178 -105.5 278.5t-291.5 100.5q-137 3 -265 -56t-219 -157t-145 -227.5t-51 -262.5zM1001 1812v31h281l96 -256h-235z" />
<glyph unicode="&#xd3;" d="M135 563q-2 109 30 222.5t92.5 219t151.5 198t201 160.5t248 105.5t285 34.5q289 0 466 -164t177 -428q2 -109 -30 -222.5t-92.5 -219t-151.5 -198t-201 -160.5t-248 -105.5t-285 -34.5q-289 0 -466 164t-177 428zM422 575q0 -178 105.5 -278t291.5 -100q182 -4 342 96.5 t251 264t87 341.5q0 178 -105.5 278.5t-291.5 100.5q-137 3 -265 -56t-219 -157t-145 -227.5t-51 -262.5zM1073 1587v31l223 225h330v-31l-289 -225h-264z" />
<glyph unicode="&#xd4;" d="M135 563q-2 109 30 222.5t92.5 219t151.5 198t201 160.5t248 105.5t285 34.5q289 0 466 -164t177 -428q2 -109 -30 -222.5t-92.5 -219t-151.5 -198t-201 -160.5t-248 -105.5t-285 -34.5q-289 0 -466 164t-177 428zM422 575q0 -178 105.5 -278t291.5 -100q182 -4 342 96.5 t251 264t87 341.5q0 178 -105.5 278.5t-291.5 100.5q-137 3 -265 -56t-219 -157t-145 -227.5t-51 -262.5zM852 1567v30l305 226h340l160 -226v-30h-236l-106 135l-197 -135h-266z" />
<glyph unicode="&#xd5;" d="M135 563q-2 109 30 222.5t92.5 219t151.5 198t201 160.5t248 105.5t285 34.5q289 0 466 -164t177 -428q2 -109 -30 -222.5t-92.5 -219t-151.5 -198t-201 -160.5t-248 -105.5t-285 -34.5q-289 0 -466 164t-177 428zM422 575q0 -178 105.5 -278t291.5 -100q182 -4 342 96.5 t251 264t87 341.5q0 178 -105.5 278.5t-291.5 100.5q-137 3 -265 -56t-219 -157t-145 -227.5t-51 -262.5zM893 1591v31q38 107 107.5 170t170.5 63q42 0 76 -14t78 -45q62 -45 105 -45q41 0 68 24t38 64h168v-31q-38 -106 -108 -169.5t-171 -63.5q-42 0 -75 13.5t-78 45.5 q-62 45 -105 45q-41 0 -68 -24t-38 -64h-168z" />
<glyph unicode="&#xd6;" d="M135 563q-2 109 30 222.5t92.5 219t151.5 198t201 160.5t248 105.5t285 34.5q289 0 466 -164t177 -428q2 -109 -30 -222.5t-92.5 -219t-151.5 -198t-201 -160.5t-248 -105.5t-285 -34.5q-289 0 -466 164t-177 428zM422 575q0 -178 105.5 -278t291.5 -100q182 -4 342 96.5 t251 264t87 341.5q0 178 -105.5 278.5t-291.5 100.5q-137 3 -265 -56t-219 -157t-145 -227.5t-51 -262.5zM856 1569l105 286h327l-104 -286h-328zM1323 1569l104 286h328l-104 -286h-328z" />
<glyph unicode="&#xd7;" horiz-adv-x="1474" d="M197 414l475 350l-215 336l182 125l211 -330l481 356l103 -170l-478 -352l215 -336l-182 -125l-211 330l-479 -354z" />
<glyph unicode="&#xd8;" d="M55 0v31l197 168q-117 150 -117 364q-2 109 30 222.5t92.5 219t151.5 198t201 160.5t248 105.5t285 34.5q277 0 452 -149l142 121h108v-31l-184 -158q125 -155 125 -375q2 -109 -30 -222.5t-92.5 -219t-151.5 -198t-201 -160.5t-248 -105.5t-285 -34.5q-286 0 -463 160 l-151 -131h-109zM422 575q0 -112 43 -194l928 799q-104 98 -291 98q-137 3 -265 -56t-219 -157t-145 -227.5t-51 -262.5zM518 305q108 -108 301 -108q182 -4 342 96.5t251 264t87 341.5q0 123 -49 205z" />
<glyph unicode="&#xd9;" horiz-adv-x="1488" d="M104 395q0 89 33 174l330 906h291l-350 -965q-21 -52 -21 -107q0 -98 70 -156.5t192 -58.5q158 0 256 76.5t160 245.5l352 965h291l-367 -1004q-95 -260 -263 -380t-447 -120q-235 0 -381 119t-146 305zM862 1812v31h281l96 -256h-235z" />
<glyph unicode="&#xda;" horiz-adv-x="1488" d="M104 395q0 89 33 174l330 906h291l-350 -965q-21 -52 -21 -107q0 -98 70 -156.5t192 -58.5q158 0 256 76.5t160 245.5l352 965h291l-367 -1004q-95 -260 -263 -380t-447 -120q-235 0 -381 119t-146 305zM934 1587v31l223 225h330v-31l-289 -225h-264z" />
<glyph unicode="&#xdb;" horiz-adv-x="1488" d="M104 395q0 89 33 174l330 906h291l-350 -965q-21 -52 -21 -107q0 -98 70 -156.5t192 -58.5q158 0 256 76.5t160 245.5l352 965h291l-367 -1004q-95 -260 -263 -380t-447 -120q-235 0 -381 119t-146 305zM713 1567v30l305 226h340l160 -226v-30h-236l-106 135l-197 -135 h-266z" />
<glyph unicode="&#xdc;" horiz-adv-x="1488" d="M104 395q0 89 33 174l330 906h291l-350 -965q-21 -52 -21 -107q0 -98 70 -156.5t192 -58.5q158 0 256 76.5t160 245.5l352 965h291l-367 -1004q-95 -260 -263 -380t-447 -120q-235 0 -381 119t-146 305zM717 1569l104 286h328l-105 -286h-327zM1184 1569l104 286h328 l-105 -286h-327z" />
<glyph unicode="&#xdd;" horiz-adv-x="1417" d="M332 1475h274l154 -682h20l650 682h319v-31l-913 -944l-183 -500h-286l192 524zM901 1587v31l223 225h330v-31l-289 -225h-264z" />
<glyph unicode="&#xde;" horiz-adv-x="1267" d="M-61 0l536 1475h287l-98 -271h221q187 0 300 -100.5t113 -259.5q0 -229 -189.5 -379t-498.5 -150h-270l-115 -315h-286zM418 528h196q186 0 294 78.5t108 222.5q0 76 -50 119t-143 43h-237z" />
<glyph unicode="&#xdf;" horiz-adv-x="1349" d="M-82 0l348 954q200 545 695 545q171 0 284 -81.5t113 -207.5q-3 -53 -16 -94t-32.5 -73t-59 -66t-79.5 -61.5t-110 -69.5l-78 -47q-37 -21 -37 -54q0 -30 31 -55l41 -35q102 -86 150.5 -159t48.5 -154q0 -151 -123.5 -259t-325.5 -108q-168 0 -278.5 101t-110.5 252h246 q0 -64 44.5 -108t112.5 -44q79 0 127.5 41t48.5 113q0 52 -24.5 86.5t-91.5 95.5l-51 43q-111 91 -111 186q0 106 139 195l80 49q117 73 159 114.5t42 94.5q0 50 -43.5 79.5t-122.5 29.5q-130 0 -234 -87t-165 -253l-351 -963h-266z" />
<glyph unicode="&#xe0;" horiz-adv-x="1329" d="M57 397q-2 130 50 257.5t141 224.5t214.5 155.5t260.5 55.5q125 0 209 -58.5t121 -159.5h20l127 193h209l-387 -1065h-266l47 127h-21q-147 -147 -348 -147q-172 0 -274.5 113.5t-102.5 303.5zM319 414q0 -110 61.5 -170t172.5 -60q113 0 210.5 65.5t153.5 173t56 228.5 q0 110 -61.5 170t-172.5 60q-113 0 -210.5 -65.5t-153.5 -173t-56 -228.5zM700 1444v31h312l80 -297h-240z" />
<glyph unicode="&#xe1;" horiz-adv-x="1329" d="M57 397q-2 130 50 257.5t141 224.5t214.5 155.5t260.5 55.5q125 0 209 -58.5t121 -159.5h20l127 193h209l-387 -1065h-266l47 127h-21q-147 -147 -348 -147q-172 0 -274.5 113.5t-102.5 303.5zM319 414q0 -110 61.5 -170t172.5 -60q113 0 210.5 65.5t153.5 173t56 228.5 q0 110 -61.5 170t-172.5 60q-113 0 -210.5 -65.5t-153.5 -173t-56 -228.5zM762 1178v30l244 267h335v-31l-321 -266h-258z" />
<glyph unicode="&#xe2;" horiz-adv-x="1329" d="M57 397q-2 130 50 257.5t141 224.5t214.5 155.5t260.5 55.5q125 0 209 -58.5t121 -159.5h20l127 193h209l-387 -1065h-266l47 127h-21q-147 -147 -348 -147q-172 0 -274.5 113.5t-102.5 303.5zM319 414q0 -110 61.5 -170t172.5 -60q113 0 210.5 65.5t153.5 173t56 228.5 q0 110 -61.5 170t-172.5 60q-113 0 -210.5 -65.5t-153.5 -173t-56 -228.5zM584 1178v30l315 267h336l129 -267v-30h-238l-77 163l-197 -163h-268z" />
<glyph unicode="&#xe3;" horiz-adv-x="1329" d="M57 397q-2 130 50 257.5t141 224.5t214.5 155.5t260.5 55.5q125 0 209 -58.5t121 -159.5h20l127 193h209l-387 -1065h-266l47 127h-21q-147 -147 -348 -147q-172 0 -274.5 113.5t-102.5 303.5zM319 414q0 -110 61.5 -170t172.5 -60q113 0 210.5 65.5t153.5 173t56 228.5 q0 110 -61.5 170t-172.5 60q-113 0 -210.5 -65.5t-153.5 -173t-56 -228.5zM571 1196v31q38 106 108 169.5t171 63.5q42 0 76 -14t78 -45q62 -45 104 -45q41 0 68 24t38 64h168v-31q-38 -107 -107.5 -170t-170.5 -63q-42 0 -76 14t-78 45q-62 45 -104 45q-41 0 -68.5 -24 t-38.5 -64h-168z" />
<glyph unicode="&#xe4;" horiz-adv-x="1329" d="M57 397q-2 130 50 257.5t141 224.5t214.5 155.5t260.5 55.5q125 0 209 -58.5t121 -159.5h20l127 193h209l-387 -1065h-266l47 127h-21q-147 -147 -348 -147q-172 0 -274.5 113.5t-102.5 303.5zM319 414q0 -110 61.5 -170t172.5 -60q113 0 210.5 65.5t153.5 173t56 228.5 q0 110 -61.5 170t-172.5 60q-113 0 -210.5 -65.5t-153.5 -173t-56 -228.5zM584 1198l90 246h287l-91 -246h-286zM993 1198l90 246h287l-90 -246h-287z" />
<glyph unicode="&#xe5;" horiz-adv-x="1329" d="M57 397q-2 130 50 257.5t141 224.5t214.5 155.5t260.5 55.5q125 0 209 -58.5t121 -159.5h20l127 193h209l-387 -1065h-266l47 127h-21q-147 -147 -348 -147q-172 0 -274.5 113.5t-102.5 303.5zM319 414q0 -110 61.5 -170t172.5 -60q113 0 210.5 65.5t153.5 173t56 228.5 q0 110 -61.5 170t-172.5 60q-113 0 -210.5 -65.5t-153.5 -173t-56 -228.5zM760 1284q0 93 80.5 160t187.5 67q74 0 120 -41t46 -108q0 -92 -80 -159.5t-186 -67.5q-76 0 -122 40.5t-46 108.5zM891 1300q0 -55 61 -55q43 0 77 32.5t34 68.5q0 26 -16 40.5t-43 14.5 q-43 0 -78 -32.5t-35 -68.5z" />
<glyph unicode="&#xe6;" horiz-adv-x="2183" d="M57 397q-2 130 50 257.5t141 224.5t214.5 155.5t260.5 55.5q125 0 209 -58.5t121 -159.5h20l127 193h189l-50 -135h21q158 155 405 155q180 0 282.5 -103t102.5 -271q0 -77 -28 -172l-27 -82h-835q-3 -15 -3 -43q0 -110 61.5 -170t172.5 -60q177 0 272 164h262v-31 q-66 -131 -206 -235q-138 -102 -363 -102q-127 0 -222 52.5t-147 147.5h-20l-66 -180h-245l47 127h-21q-147 -147 -348 -147q-172 0 -274.5 113.5t-102.5 303.5zM319 414q0 -110 61.5 -170t172.5 -60q113 0 210.5 65.5t153.5 173t56 228.5q0 110 -61.5 170t-172.5 60 q-113 0 -210.5 -65.5t-153.5 -173t-56 -228.5zM1313 645h579q4 46 4 47q0 89 -53.5 139t-152.5 50q-120 0 -221 -64.5t-156 -171.5z" />
<glyph unicode="&#xe7;" horiz-adv-x="1208" d="M57 401q-2 132 52.5 257.5t148.5 220.5t230 151.5t286 54.5q208 0 320.5 -116.5t103.5 -302.5h-254q6 97 -46 156t-159 59q-113 0 -212 -64.5t-157.5 -172.5t-58.5 -230q0 -110 60.5 -170t169.5 -60q195 0 288 185h267v-31q-71 -142 -215 -250q-147 -108 -375 -108h-6 l-45 -74l34 2q66 5 105 -27t39 -92q0 -89 -83 -154t-210 -65q-76 0 -146.5 20.5t-115.5 51.5l51 133h31q33 -30 83 -49t103 -19q56 0 85.5 17.5t29.5 48.5q0 47 -66 47h-114v30l86 146q-147 37 -228.5 144.5t-81.5 260.5z" />
<glyph unicode="&#xe8;" horiz-adv-x="1232" d="M57 401q-2 132 52.5 257.5t148.5 220.5t230 151.5t286 54.5q194 0 309 -110.5t115 -278.5q0 -80 -27 -157l-26 -82h-836q-2 -10 -2 -43q0 -110 61.5 -170t172.5 -60q177 0 272 164h262v-31q-65 -130 -207 -235q-138 -102 -362 -102q-207 0 -328 117t-121 304zM362 645 h580q4 46 4 47q0 89 -54 139t-153 50q-120 0 -221 -64.5t-156 -171.5zM612 1444v31h312l80 -297h-240z" />
<glyph unicode="&#xe9;" horiz-adv-x="1232" d="M57 401q-2 132 52.5 257.5t148.5 220.5t230 151.5t286 54.5q194 0 309 -110.5t115 -278.5q0 -80 -27 -157l-26 -82h-836q-2 -10 -2 -43q0 -110 61.5 -170t172.5 -60q177 0 272 164h262v-31q-65 -130 -207 -235q-138 -102 -362 -102q-207 0 -328 117t-121 304zM362 645 h580q4 46 4 47q0 89 -54 139t-153 50q-120 0 -221 -64.5t-156 -171.5zM674 1178v30l244 267h335v-31l-321 -266h-258z" />
<glyph unicode="&#xea;" horiz-adv-x="1232" d="M57 401q-2 132 52.5 257.5t148.5 220.5t230 151.5t286 54.5q194 0 309 -110.5t115 -278.5q0 -80 -27 -157l-26 -82h-836q-2 -10 -2 -43q0 -110 61.5 -170t172.5 -60q177 0 272 164h262v-31q-65 -130 -207 -235q-138 -102 -362 -102q-207 0 -328 117t-121 304zM362 645 h580q4 46 4 47q0 89 -54 139t-153 50q-120 0 -221 -64.5t-156 -171.5zM496 1178v30l315 267h336l129 -267v-30h-238l-77 163l-197 -163h-268z" />
<glyph unicode="&#xeb;" horiz-adv-x="1232" d="M57 401q-2 132 52.5 257.5t148.5 220.5t230 151.5t286 54.5q194 0 309 -110.5t115 -278.5q0 -80 -27 -157l-26 -82h-836q-2 -10 -2 -43q0 -110 61.5 -170t172.5 -60q177 0 272 164h262v-31q-65 -130 -207 -235q-138 -102 -362 -102q-207 0 -328 117t-121 304zM362 645 h580q4 46 4 47q0 89 -54 139t-153 50q-120 0 -221 -64.5t-156 -171.5zM496 1198l90 246h286l-90 -246h-286zM905 1198l90 246h287l-90 -246h-287z" />
<glyph unicode="&#xec;" horiz-adv-x="497" d="M-80 0l387 1065h271l-388 -1065h-270zM264 1444v31h311l80 -297h-239z" />
<glyph unicode="&#xed;" horiz-adv-x="497" d="M-80 0l387 1065h271l-388 -1065h-270zM326 1178v30l243 267h336v-31l-321 -266h-258z" />
<glyph unicode="&#xee;" horiz-adv-x="497" d="M-80 0l387 1065h271l-388 -1065h-270zM147 1178v30l316 267h336l129 -267v-30h-238l-78 163l-196 -163h-269z" />
<glyph unicode="&#xef;" horiz-adv-x="497" d="M-80 0l387 1065h271l-388 -1065h-270zM147 1198l91 246h286l-90 -246h-287zM557 1198l90 246h287l-90 -246h-287z" />
<glyph unicode="&#xf0;" horiz-adv-x="1230" d="M49 391q-3 114 44 227.5t126 199t188.5 137.5t223.5 49q95 0 167 -33t105 -88h21q0 208 -150 313l-348 -145h-41l35 92l250 104q-95 31 -203 31l74 197h30q201 -21 336 -129l307 129h41l-34 -93l-240 -100q193 -202 193 -561q0 -170 -50 -310.5t-139 -234.5t-210.5 -145 t-264.5 -51q-204 0 -332.5 117.5t-128.5 293.5zM303 403q0 -103 62.5 -161t171.5 -58q101 0 184 56t128.5 146.5t45.5 193.5t-62 161t-171 58q-152 0 -255.5 -118.5t-103.5 -277.5z" />
<glyph unicode="&#xf1;" horiz-adv-x="1239" d="M-80 0l387 1065h266l-49 -131h21q151 151 364 151q142 0 221.5 -72.5t79.5 -197.5q0 -87 -32 -166l-236 -649h-270l239 657q21 55 21 101q0 63 -42 97t-120 34q-120 0 -217.5 -76t-151.5 -225l-211 -588h-270zM489 1196v31q38 106 108 169.5t171 63.5q42 0 76 -14t78 -45 q62 -45 104 -45q41 0 68.5 24t38.5 64h167v-31q-38 -107 -107.5 -170t-170.5 -63q-42 0 -76 14t-78 45q-62 45 -104 45q-41 0 -68.5 -24t-38.5 -64h-168z" />
<glyph unicode="&#xf2;" horiz-adv-x="1275" d="M57 401q-2 132 52.5 257.5t148.5 220.5t230 151.5t286 54.5q203 0 324 -117.5t121 -303.5q2 -132 -52.5 -257.5t-148.5 -220.5t-230 -151.5t-286 -54.5q-203 0 -324 117.5t-121 303.5zM311 414q0 -110 61.5 -170t172.5 -60q113 0 210.5 65.5t153.5 173t56 228.5 q0 110 -61.5 170t-172.5 60q-113 0 -210.5 -65.5t-153.5 -173t-56 -228.5zM621 1444v31h311l80 -297h-240z" />
<glyph unicode="&#xf3;" horiz-adv-x="1275" d="M57 401q-2 132 52.5 257.5t148.5 220.5t230 151.5t286 54.5q203 0 324 -117.5t121 -303.5q2 -132 -52.5 -257.5t-148.5 -220.5t-230 -151.5t-286 -54.5q-203 0 -324 117.5t-121 303.5zM311 414q0 -110 61.5 -170t172.5 -60q113 0 210.5 65.5t153.5 173t56 228.5 q0 110 -61.5 170t-172.5 60q-113 0 -210.5 -65.5t-153.5 -173t-56 -228.5zM682 1178v30l244 267h336v-31l-322 -266h-258z" />
<glyph unicode="&#xf4;" horiz-adv-x="1275" d="M57 401q-2 132 52.5 257.5t148.5 220.5t230 151.5t286 54.5q203 0 324 -117.5t121 -303.5q2 -132 -52.5 -257.5t-148.5 -220.5t-230 -151.5t-286 -54.5q-203 0 -324 117.5t-121 303.5zM311 414q0 -110 61.5 -170t172.5 -60q113 0 210.5 65.5t153.5 173t56 228.5 q0 110 -61.5 170t-172.5 60q-113 0 -210.5 -65.5t-153.5 -173t-56 -228.5zM504 1178v30l315 267h336l129 -267v-30h-237l-78 163l-197 -163h-268z" />
<glyph unicode="&#xf5;" horiz-adv-x="1275" d="M57 401q-2 132 52.5 257.5t148.5 220.5t230 151.5t286 54.5q203 0 324 -117.5t121 -303.5q2 -132 -52.5 -257.5t-148.5 -220.5t-230 -151.5t-286 -54.5q-203 0 -324 117.5t-121 303.5zM311 414q0 -110 61.5 -170t172.5 -60q113 0 210.5 65.5t153.5 173t56 228.5 q0 110 -61.5 170t-172.5 60q-113 0 -210.5 -65.5t-153.5 -173t-56 -228.5zM492 1196v31q38 107 107.5 170t170.5 63q42 0 76 -14t78 -45q62 -45 104 -45q41 0 68.5 24t38.5 64h168v-31q-38 -106 -108 -169.5t-171 -63.5q-42 0 -76 14t-78 45q-62 45 -104 45q-41 0 -68.5 -24 t-38.5 -64h-167z" />
<glyph unicode="&#xf6;" horiz-adv-x="1275" d="M57 401q-2 132 52.5 257.5t148.5 220.5t230 151.5t286 54.5q203 0 324 -117.5t121 -303.5q2 -132 -52.5 -257.5t-148.5 -220.5t-230 -151.5t-286 -54.5q-203 0 -324 117.5t-121 303.5zM311 414q0 -110 61.5 -170t172.5 -60q113 0 210.5 65.5t153.5 173t56 228.5 q0 110 -61.5 170t-172.5 60q-113 0 -210.5 -65.5t-153.5 -173t-56 -228.5zM504 1198l90 246h287l-90 -246h-287zM913 1198l91 246h286l-90 -246h-287z" />
<glyph unicode="&#xf7;" horiz-adv-x="1474" d="M252 635l84 225h1044l-84 -225h-1044zM461 225l104 287h328l-105 -287h-327zM737 983l105 287h327l-104 -287h-328z" />
<glyph unicode="&#xf8;" horiz-adv-x="1275" d="M-20 0v31l147 127q-70 104 -70 243q-2 132 52.5 257.5t148.5 220.5t230 151.5t286 54.5q193 0 313 -108l103 88h106v-31l-147 -127q70 -104 70 -243q2 -132 -52.5 -257.5t-148.5 -220.5t-230 -151.5t-286 -54.5q-194 0 -314 108l-102 -88h-106zM311 414q0 -47 13 -88 l579 495q-60 60 -172 60q-113 0 -210.5 -65.5t-153.5 -173t-56 -228.5zM373 244q60 -60 172 -60q113 0 210.5 65.5t153.5 173t56 228.5q0 47 -13 88z" />
<glyph unicode="&#xf9;" horiz-adv-x="1239" d="M29 250q0 87 32 166l236 649h270l-239 -657q-21 -56 -21 -101q0 -63 42 -97t120 -34q121 0 218 76t151 225l211 588h270l-387 -1065h-266l49 131h-21q-151 -151 -364 -151q-142 0 -221.5 72.5t-79.5 197.5zM623 1444v31h311l80 -297h-240z" />
<glyph unicode="&#xfa;" horiz-adv-x="1239" d="M29 250q0 87 32 166l236 649h270l-239 -657q-21 -56 -21 -101q0 -63 42 -97t120 -34q121 0 218 76t151 225l211 588h270l-387 -1065h-266l49 131h-21q-151 -151 -364 -151q-142 0 -221.5 72.5t-79.5 197.5zM684 1178v30l244 267h336v-31l-322 -266h-258z" />
<glyph unicode="&#xfb;" horiz-adv-x="1239" d="M29 250q0 87 32 166l236 649h270l-239 -657q-21 -56 -21 -101q0 -63 42 -97t120 -34q121 0 218 76t151 225l211 588h270l-387 -1065h-266l49 131h-21q-151 -151 -364 -151q-142 0 -221.5 72.5t-79.5 197.5zM506 1178v30l315 267h336l129 -267v-30h-237l-78 163l-197 -163 h-268z" />
<glyph unicode="&#xfc;" horiz-adv-x="1239" d="M29 250q0 87 32 166l236 649h270l-239 -657q-21 -56 -21 -101q0 -63 42 -97t120 -34q121 0 218 76t151 225l211 588h270l-387 -1065h-266l49 131h-21q-151 -151 -364 -151q-142 0 -221.5 72.5t-79.5 197.5zM506 1198l90 246h287l-90 -246h-287zM915 1198l91 246h286 l-90 -246h-287z" />
<glyph unicode="&#xfd;" horiz-adv-x="1181" d="M-266 -410l71 197h261l22 14l133 170l-16 1094h258l-4 -791h20l570 791h284v-31l-960 -1290q-65 -87 -135.5 -120.5t-180.5 -33.5h-323zM629 1178v30l243 267h336v-31l-321 -266h-258z" />
<glyph unicode="&#xfe;" horiz-adv-x="1329" d="M-229 -410l684 1885h270l-193 -531h21q144 141 342 141q172 0 274.5 -113.5t102.5 -303.5q2 -130 -50 -257.5t-141 -224.5t-214.5 -155.5t-260.5 -55.5q-124 0 -206 58t-119 160h-21l-219 -603h-270zM356 414q0 -110 61.5 -170t172.5 -60q113 0 210.5 65.5t153.5 173 t56 228.5q0 110 -61.5 170t-172.5 60q-113 0 -210.5 -65.5t-153.5 -173t-56 -228.5z" />
<glyph unicode="&#xff;" horiz-adv-x="1181" d="M-266 -410l71 197h261l22 14l133 170l-16 1094h258l-4 -791h20l570 791h284v-31l-960 -1290q-65 -87 -135.5 -120.5t-180.5 -33.5h-323zM451 1198l90 246h286l-90 -246h-286zM860 1198l90 246h287l-90 -246h-287z" />
<glyph unicode="&#x152;" horiz-adv-x="1943" d="M133 567q-2 105 29.5 214t92 210.5t151 191.5t199.5 155.5t246 102.5t282 34h1056l-75 -213h-687l-143 -398h578l-78 -213h-578l-159 -438h727l-78 -213h-920q-290 0 -466.5 156.5t-176.5 410.5zM420 575q0 -155 90 -251t250 -109l381 1047h-49q-134 4 -260.5 -55 t-217 -155.5t-144 -223t-50.5 -253.5z" />
<glyph unicode="&#x153;" horiz-adv-x="2142" d="M57 401q-2 132 51 257.5t145 220.5t223.5 151.5t277.5 54.5q144 0 242.5 -60t146.5 -171h20q95 110 228.5 170.5t291.5 60.5q194 0 309 -110.5t115 -278.5q0 -83 -26 -157l-27 -82h-835q-2 -10 -2 -43q0 -110 61 -170t172 -60q177 0 272 164h263v-31q-65 -130 -207 -235 q-138 -102 -363 -102q-135 0 -233 59t-148 166h-20q-89 -107 -216.5 -166t-279.5 -59q-211 0 -336 117.5t-125 303.5zM311 414q0 -110 61.5 -170t172.5 -60q113 0 210.5 65.5t153.5 173t56 228.5q0 110 -61.5 170t-172.5 60q-113 0 -210.5 -65.5t-153.5 -173t-56 -228.5z M1272 645h579q4 46 4 47q0 89 -53.5 139t-152.5 50q-120 0 -221 -64.5t-156 -171.5z" />
<glyph unicode="&#x178;" horiz-adv-x="1417" d="M332 1475h274l154 -682h20l650 682h319v-31l-913 -944l-183 -500h-286l192 524zM684 1569l104 286h328l-104 -286h-328zM1151 1569l104 286h328l-104 -286h-328z" />
<glyph unicode="&#x2c6;" horiz-adv-x="1228" d="M338 1178v30l315 267h336l129 -267v-30h-237l-78 163l-197 -163h-268z" />
<glyph unicode="&#x2dc;" horiz-adv-x="1228" d="M309 1196v31q38 106 108 169.5t171 63.5q42 0 75 -13.5t78 -45.5q62 -45 105 -45q41 0 68 24t38 64h168v-31q-38 -107 -107.5 -170t-170.5 -63q-42 0 -76 14t-78 45q-62 45 -104 45q-41 0 -68.5 -24t-38.5 -64h-168z" />
<glyph unicode="&#x2000;" horiz-adv-x="967" />
<glyph unicode="&#x2001;" horiz-adv-x="1935" />
<glyph unicode="&#x2002;" horiz-adv-x="967" />
<glyph unicode="&#x2003;" horiz-adv-x="1935" />
<glyph unicode="&#x2004;" horiz-adv-x="645" />
<glyph unicode="&#x2005;" horiz-adv-x="483" />
<glyph unicode="&#x2006;" horiz-adv-x="322" />
<glyph unicode="&#x2007;" horiz-adv-x="322" />
<glyph unicode="&#x2008;" horiz-adv-x="241" />
<glyph unicode="&#x2009;" horiz-adv-x="387" />
<glyph unicode="&#x200a;" horiz-adv-x="107" />
<glyph unicode="&#x2010;" horiz-adv-x="819" d="M82 422l80 217h573l-80 -217h-573z" />
<glyph unicode="&#x2011;" horiz-adv-x="819" d="M82 422l80 217h573l-80 -217h-573z" />
<glyph unicode="&#x2012;" horiz-adv-x="819" d="M82 422l80 217h573l-80 -217h-573z" />
<glyph unicode="&#x2013;" horiz-adv-x="1228" d="M82 422l80 217h983l-80 -217h-983z" />
<glyph unicode="&#x2014;" horiz-adv-x="1884" d="M82 422l80 217h1638l-80 -217h-1638z" />
<glyph unicode="&#x2018;" horiz-adv-x="479" d="M272 1085l115 316q51 143 148 205.5t270 62.5h47l-51 -143h-43q-87 0 -131 -26t-74 -99l-12 -29h174l-105 -287h-338z" />
<glyph unicode="&#x2019;" horiz-adv-x="481" d="M172 891l51 143h43q87 0 131 26t74 99l12 29h-174l105 287h338l-115 -316q-51 -143 -148 -205.5t-270 -62.5h-47z" />
<glyph unicode="&#x201a;" horiz-adv-x="481" d="M-260 -297l51 143h43q87 0 131 26t74 99l12 29h-174l105 287h337l-114 -316q-51 -143 -148 -205.5t-270 -62.5h-47z" />
<glyph unicode="&#x201c;" horiz-adv-x="888" d="M272 1085l115 316q51 143 148 205.5t270 62.5h47l-51 -143h-43q-87 0 -131 -26t-74 -99l-12 -29h174l-105 -287h-338zM682 1085l115 316q51 143 147.5 205.5t269.5 62.5h48l-52 -143h-43q-87 0 -130.5 -26t-73.5 -99l-13 -29h174l-104 -287h-338z" />
<glyph unicode="&#x201d;" horiz-adv-x="890" d="M172 891l51 143h43q87 0 131 26t74 99l12 29h-174l105 287h338l-115 -316q-51 -143 -148 -205.5t-270 -62.5h-47zM582 891l51 143h43q87 0 131 26t74 99l12 29h-174l104 287h338l-114 -316q-51 -143 -148 -205.5t-270 -62.5h-47z" />
<glyph unicode="&#x201e;" horiz-adv-x="890" d="M-260 -297l51 143h43q87 0 131 26t74 99l12 29h-174l105 287h337l-114 -316q-51 -143 -148 -205.5t-270 -62.5h-47zM150 -297l51 143h43q87 0 131 26t74 99l12 29h-174l104 287h338l-115 -316q-51 -143 -147.5 -205.5t-269.5 -62.5h-47z" />
<glyph unicode="&#x2022;" horiz-adv-x="1470" d="M195 512q0 237 151 387t389 150t389.5 -150t151.5 -387t-151.5 -387t-389.5 -150t-389 150t-151 387z" />
<glyph unicode="&#x2026;" horiz-adv-x="1351" d="M-123 0l105 287h327l-104 -287h-328zM317 0l105 287h328l-105 -287h-328zM758 0l104 287h328l-105 -287h-327z" />
<glyph unicode="&#x202f;" horiz-adv-x="387" />
<glyph unicode="&#x2039;" horiz-adv-x="737" d="M47 496l10 30l432 332h275v-31l-434 -340l202 -284v-31h-258z" />
<glyph unicode="&#x203a;" horiz-adv-x="737" d="M-23 172v31l435 340l-203 284v31h258l227 -323l-10 -31l-432 -332h-275z" />
<glyph unicode="&#x205f;" horiz-adv-x="483" />
<glyph unicode="&#x20ac;" horiz-adv-x="1783" d="M0 504v31l78 157h209q2 18 22 103h-164v30l78 158h164q123 232 356 375q233 145 541 145q142 0 256 -45t185.5 -121.5t108.5 -175.5t34 -209h-275q0 147 -88.5 236.5t-261.5 89.5q-165 0 -310.5 -79t-240.5 -216h426v-31l-78 -157h-442q-17 -52 -25 -103h400v-30 l-78 -158h-328q23 -147 126 -227t268 -80q158 0 279 88.5t192 236.5h286v-30q-93 -206 -288 -361q-201 -160 -510 -160q-271 0 -446.5 146.5t-194.5 386.5h-279z" />
<glyph unicode="&#x2122;" horiz-adv-x="2058" d="M424 1393v82h670v-82h-289v-635h-90v635h-291zM1186 758v717h147l258 -603h21l256 603h149v-717h-90v583h-20l-254 -583h-103l-254 583h-20v-583h-90z" />
<glyph unicode="&#x25fc;" horiz-adv-x="1064" d="M0 0v1065h1065v-1065h-1065z" />
</font>
</defs>
</svg>
