<?xml version="1.0" standalone="no"?>
<!DOCTYPE svg PUBLIC "-//W3C//DTD SVG 1.1//EN" "http://www.w3.org/Graphics/SVG/1.1/DTD/svg11.dtd" >
<svg xmlns="http://www.w3.org/2000/svg" xmlns:xlink="http://www.w3.org/1999/xlink" version="1.1">
<metadata></metadata>
<defs>
<font id="fk_groteskitalic" horiz-adv-x="1228" >
<font-face units-per-em="2048" ascent="1638" descent="-410" />
<missing-glyph horiz-adv-x="532" />
<glyph unicode="&#xfb01;" horiz-adv-x="1144" d="M80 0l319 881h-235l53 143h236l73 205q88 246 340 246h348l-51 -144h-409l-23 -16l-106 -291h563l-373 -1024h-168l322 881h-398l-323 -881h-168z" />
<glyph unicode="&#xfb02;" horiz-adv-x="1165" d="M80 0l319 881h-235l53 143h236l73 205q88 246 340 246h205l-51 -144h-266l-23 -16l-106 -291h231l-53 -143h-232l-323 -881h-168zM668 0l536 1475h168l-536 -1475h-168z" />
<glyph horiz-adv-x="0" />
<glyph horiz-adv-x="682" />
<glyph unicode=" "  horiz-adv-x="532" />
<glyph unicode="&#x09;" horiz-adv-x="532" />
<glyph unicode="&#xa0;" horiz-adv-x="532" />
<glyph unicode="!" horiz-adv-x="532" d="M-43 0l82 225h246l-82 -225h-246zM195 430l186 594l164 451h184l-164 -451l-260 -594h-110z" />
<glyph unicode="&#x22;" horiz-adv-x="854" d="M260 973l37 102h41q68 0 104.5 24t55.5 79l26 71h-133l82 226h256l-108 -297q-42 -117 -108.5 -161t-195.5 -44h-57zM612 973l37 102h41q68 0 104.5 24t55.5 79l27 71h-134l82 226h256l-108 -297q-42 -117 -108 -161t-195 -44h-58z" />
<glyph unicode="#" horiz-adv-x="1476" d="M61 451l52 143h323l187 287h-406l53 143h447l295 451h157v-31l-274 -420h227l295 451h158v-31l-275 -420h281l-53 -143h-322l-186 -287h403l-51 -143h-446l-295 -451h-158v31l275 420h-228l-295 -451h-157v31l274 420h-281zM606 590h238l192 295h-237z" />
<glyph unicode="$" horiz-adv-x="1376" d="M51 502h180q-12 -175 104 -271t324 -96q179 0 292.5 76.5t113.5 200.5q0 89 -59.5 140t-208.5 103l-158 56q-145 51 -220 131t-75 215q0 199 158.5 320.5t425.5 121.5l76 211h180l-82 -227q192 -42 295.5 -165t91.5 -304h-180l2 33q0 143 -115 223q-116 78 -287 78 q-177 0 -281 -73t-104 -196q0 -84 59.5 -136t182.5 -93l158 -55q157 -57 239 -143t82 -214q0 -208 -158.5 -335.5t-443.5 -127.5h-6l-76 -211h-180l82 228q-205 43 -314.5 178t-97.5 332z" />
<glyph unicode="%" horiz-adv-x="1912" d="M49 0v31l1741 1444h217v-31l-1741 -1444h-217zM360 1108q-2 70 31.5 142t89 127.5t132 89.5t153.5 32q139 0 220 -75.5t81 -196.5q2 -70 -31.5 -142t-89 -127.5t-131.5 -89.5t-153 -32q-139 0 -220.5 75.5t-81.5 196.5zM524 1108q0 -61 39 -96t103 -35q91 0 164 76.5 t73 173.5q0 61 -38.5 96t-102.5 35q-91 0 -164.5 -77t-73.5 -173zM1010 248q-3 94 53.5 186t152.5 150t199 55q139 0 220 -75.5t81 -196.5q2 -70 -31.5 -142t-89 -127.5t-131.5 -90t-153 -32.5q-139 0 -220 76t-81 197zM1174 248q0 -61 38.5 -96t102.5 -35q91 0 164 76.5 t73 173.5q0 61 -38.5 96t-102.5 35q-91 0 -164 -76.5t-73 -173.5z" />
<glyph unicode="&#x26;" horiz-adv-x="1579" d="M80 326q0 108 54 196.5t149 156.5t247 138q-39 65 -57 120.5t-18 121.5q0 184 141.5 312t345.5 128q142 0 235 -79t93 -201q0 -136 -95 -233.5t-301 -186.5l-108 -47l215 -322l418 358h188v-30l-520 -459l90 -133l25 -10h186l-57 -156h-123q-81 0 -122.5 22.5t-74.5 83.5 l-51 78q-124 -106 -234 -157.5t-239 -51.5q-177 0 -282 95.5t-105 255.5zM260 334q0 -93 59 -146t158 -53q60 2 100 10.5t86.5 35t80 52.5t108.5 89l-238 364q-185 -81 -269.5 -159t-84.5 -193zM631 1061q0 -84 51 -176l117 49q154 66 224.5 126t70.5 148q0 53 -47.5 92 t-124.5 39q-129 0 -210 -76t-81 -202z" />
<glyph unicode="'" horiz-adv-x="501" d="M260 973l37 102h41q68 0 104.5 24t55.5 79l26 71h-133l82 226h256l-108 -297q-42 -117 -108.5 -161t-195.5 -44h-57z" />
<glyph unicode="(" horiz-adv-x="786" d="M135 229q0 877 739 1348h197v-21q-356 -233 -557 -552q-203 -323 -203 -775q0 -322 119 -618v-21h-151q-144 320 -144 639z" />
<glyph unicode=")" horiz-adv-x="784" d="M-233 -389q355 232 557 553q202 322 202 774q0 324 -118 618v21h151q143 -317 143 -639q0 -877 -739 -1348h-196v21z" />
<glyph unicode="*" horiz-adv-x="1165" d="M346 993v103h31l270 -27l6 18l-247 113l-27 14l51 91l27 -17l221 -158l12 13l-158 221l-16 27l90 51l15 -27l112 -248l19 7l-27 270v31h102v-31l-26 -270l18 -7l113 248l14 27l90 -51l-16 -27l-160 -221l14 -15l222 160l26 17l52 -91l-27 -14l-248 -113l6 -18l271 27h30 v-103h-30l-271 27l-6 -19l248 -112l27 -15l-52 -90l-26 17l-222 160l-12 -13l158 -223l16 -27l-90 -51l-14 27l-113 248l-18 -7l26 -270v-31h-102v31l27 270l-19 7l-112 -248l-15 -27l-90 51l16 27l160 221l-12 12l-223 -157l-27 -17l-51 90l27 15l247 112l-6 19l-270 -27 h-31z" />
<glyph unicode="+" d="M199 666l61 163h385l141 390h172l-141 -390h383l-61 -163h-383l-142 -390h-172l142 390h-385z" />
<glyph unicode="," horiz-adv-x="501" d="M-195 -276l37 102h41q68 0 104.5 23.5t55.5 78.5l27 72h-133l81 225h256l-108 -297q-42 -117 -108 -160.5t-195 -43.5h-58z" />
<glyph unicode="-" horiz-adv-x="780" d="M96 436l54 144h532l-53 -144h-533z" />
<glyph unicode="." horiz-adv-x="491" d="M-63 0l81 225h246l-82 -225h-245z" />
<glyph unicode="/" horiz-adv-x="1245" d="M-74 0v31l1372 1444h185v-31l-1372 -1444h-185z" />
<glyph unicode="0" horiz-adv-x="1433" d="M139 426q0 249 115 500q113 246 317 411q198 162 443 162q204 0 324 -124.5t120 -325.5q0 -249 -115 -500q-113 -246 -315 -412q-201 -162 -444 -162q-204 0 -324.5 125t-120.5 326zM319 446q0 -149 76 -230t213 -81q193 0 346 144q156 144 240 352q84 212 84 397 q0 149 -76 230t-213 81q-193 0 -346 -141q-156 -147 -237 -352q-87 -215 -87 -400z" />
<glyph unicode="1" horiz-adv-x="739" d="M195 0l405 1116h-340l53 144h136q117 0 176 38.5t100 145.5l10 31h180l-536 -1475h-184z" />
<glyph unicode="2" horiz-adv-x="1271" d="M-88 0l45 135l842 537q149 95 222 154t114 128q45 68 45 162q0 103 -75 163t-208 60q-159 0 -275.5 -82t-170.5 -233h-181v31q81 208 251.5 326t404.5 118q190 0 314 -102.5t124 -272.5q0 -239 -248 -428q-131 -99 -315 -207l-553 -325h839l-59 -164h-1116z" />
<glyph unicode="3" horiz-adv-x="1288" d="M37 379q0 37 10 102h176q-8 -36 -8 -82q0 -124 79 -194t216 -70q129 -3 248 53.5t190 152t68 198.5q0 105 -77.5 164t-209.5 59q-127 0 -246 -55h-24l55 155l657 453h-761l57 160h1040l-51 -134l-653 -446v-21q15 3 47 3q67 0 127.5 -19.5t110 -58t79 -101.5t29.5 -143 q2 -111 -52.5 -217.5t-147 -187t-224 -129t-274.5 -46.5q-203 0 -332 109t-129 295z" />
<glyph unicode="4" horiz-adv-x="1433" d="M18 449l56 151l1102 875h249l-315 -867h338l-57 -159h-338l-164 -449h-184l163 449h-850zM322 608h604l235 649h-20z" />
<glyph unicode="5" horiz-adv-x="1257" d="M20 397q0 36 3 54h176q-11 -145 63.5 -230.5t220.5 -85.5q99 -2 193 36.5t161.5 102.5t107.5 148.5t38 169.5q0 223 -240 223q-197 0 -370 -170h-183l349 830h991l-57 -160h-820l-200 -484h20q168 136 356 136q151 0 242.5 -95t91.5 -260q2 -118 -51.5 -235 t-145.5 -206.5t-223.5 -144t-275.5 -51.5q-208 0 -327.5 120t-119.5 302z" />
<glyph unicode="6" horiz-adv-x="1331" d="M158 477q0 259 112 492q110 234 318 383q206 147 475 147q188 0 304 -91.5t116 -252.5q0 -54 -8 -90h-185q4 28 4 57q0 104 -66 160.5t-194 56.5q-112 0 -217 -41.5t-195 -120.5t-159 -205t-103 -284h21q74 112 197.5 177t277.5 65q167 0 278 -103t111 -274 q3 -109 -47 -215.5t-133.5 -187t-199.5 -129.5t-238 -46q-212 0 -340.5 138.5t-128.5 363.5zM360 381q0 -111 72 -178.5t199 -67.5q173 0 299.5 118t126.5 275q0 111 -72 178.5t-199 67.5q-173 0 -299.5 -118t-126.5 -275z" />
<glyph unicode="7" horiz-adv-x="1179" d="M129 0v31l1067 1284h-862l57 160h1090l-49 -136l-1106 -1339h-197z" />
<glyph unicode="8" horiz-adv-x="1286" d="M23 332q0 155 128 274t345 166v21q-91 41 -142 114.5t-51 165.5q0 82 46 159t127.5 136.5t204 95t265.5 35.5q201 0 326 -95t125 -247q0 -161 -118 -267.5t-318 -137.5v-21q208 -92 208 -297q0 -125 -84.5 -230t-238 -167t-342.5 -62q-220 0 -350.5 104t-130.5 253z M203 358q0 -104 86 -163.5t233 -59.5q202 0 334.5 90t132.5 232q0 104 -86 163.5t-233 59.5q-202 0 -334.5 -90t-132.5 -232zM475 1049q0 -95 81.5 -152t221.5 -57q200 0 319.5 81.5t119.5 208.5q0 95 -82 152t-222 57q-200 0 -319 -81.5t-119 -208.5z" />
<glyph unicode="9" horiz-adv-x="1335" d="M59 397h181q-4 -134 66 -198t212 -64q207 0 371 176t246 467h-21q-70 -110 -190.5 -171.5t-276.5 -61.5q-170 0 -283.5 105.5t-113.5 271.5q-2 113 50 220.5t139 186t205 125.5t241 45q215 0 338 -125.5t123 -347.5q0 -244 -101 -485q-105 -249 -293 -404 q-192 -162 -458 -162q-208 0 -324 115t-111 307zM434 946q0 -113 72 -179.5t203 -66.5q114 0 214.5 55.5t160 146.5t59.5 192q0 112 -72 178.5t-203 66.5q-114 0 -214.5 -55t-160 -146t-59.5 -192z" />
<glyph unicode=":" horiz-adv-x="491" d="M-63 0l81 225h246l-82 -225h-245zM227 799l82 225h246l-82 -225h-246z" />
<glyph unicode=";" horiz-adv-x="501" d="M-195 -276l37 102h41q68 0 104.5 23.5t55.5 78.5l27 72h-133l81 225h256l-108 -297q-42 -117 -108 -160.5t-195 -43.5h-58zM227 799l82 225h246l-82 -225h-246z" />
<glyph unicode="&#x3c;" d="M168 682l47 139l1030 336h33l-66 -178l-741 -234v-16l563 -244l-55 -147h-29z" />
<glyph unicode="=" d="M139 502l60 164h940l-60 -164h-940zM260 829l59 164h941l-60 -164h-940z" />
<glyph unicode="&#x3e;" d="M121 338l65 178l744 234v16l-565 244l55 147h29l784 -344l-47 -139l-1032 -336h-33z" />
<glyph unicode="?" horiz-adv-x="1118" d="M260 1044q96 225 264.5 340t390.5 115q161 0 262 -87t101 -220q0 -135 -93 -239t-311 -230l-161 -94l-15 -17l-51 -141l-57 -82h-123v82l31 82q35 94 81 147t134 103l69 39q174 97 245 169.5t71 168.5q0 75 -58.5 119t-162.5 44q-137 0 -249.5 -73.5t-178.5 -225.5h-189z M266 0l82 225h246l-82 -225h-246z" />
<glyph unicode="@" horiz-adv-x="2342" d="M162 377q-3 152 41 298.5t125.5 270t199 228.5t256.5 177t303 111.5t334 36.5q179 2 334 -50.5t263 -145.5t168.5 -222.5t58.5 -277.5q0 -216 -83 -382.5t-234 -258.5t-345 -92q-182 0 -194 139h-19q-141 -166 -352 -166q-167 0 -261.5 99.5t-94.5 263.5q-3 113 46 231 t130.5 210t195.5 149t232 53q208 0 295 -179h26l111 156h129l-256 -707q-8 -16 -8 -38q0 -52 55 -52q196 0 325.5 158t129.5 406q0 263 -181 407q-180 143 -487 143q-143 2 -281.5 -32t-256.5 -97t-218 -153t-169.5 -196t-107 -229.5t-34.5 -250.5q0 -320 182 -479 q182 -156 486 -156q319 0 591 184h31l62 -102v-31q-176 -102 -339.5 -156.5t-359.5 -54.5q-378 0 -603.5 215.5t-225.5 571.5zM825 420q0 -115 65.5 -175.5t184.5 -60.5q107 -3 210.5 67t167 183.5t60.5 229.5q0 116 -64 176.5t-183 60.5q-108 3 -212 -67t-168 -183.5 t-61 -230.5z" />
<glyph unicode="A" horiz-adv-x="1355" d="M-156 0v31l1065 1444h217l23 -1475h-180l-2 422h-619l-307 -422h-197zM461 578h504l-4 661h-21z" />
<glyph unicode="B" horiz-adv-x="1406" d="M-12 0l536 1475h647q145 0 248 -80q101 -82 101 -213q0 -161 -111.5 -277.5t-312.5 -152.5v-21q184 -70 184 -270q0 -203 -183 -332t-489 -129h-620zM231 164h404q218 0 341.5 85.5t123.5 227.5q0 96 -62.5 149.5t-169.5 53.5h-448zM477 840h453q190 0 299.5 90.5 t109.5 224.5q0 75 -54 117.5t-152 42.5h-482z" />
<glyph unicode="C" horiz-adv-x="1583" d="M147 526v14q0 109 30 221q32 119 91 228t147 204t192.5 164t232.5 107q119 35 242 35h20q262 0 411.5 -142.5t149.5 -363.5h-188q0 154 -102 248t-304 94h-12q-93 -1 -183 -29q-96 -30 -177.5 -84.5t-151.5 -131t-118 -163.5q-49 -87 -75 -185q-25 -91 -24 -178v-13 q0 -190 116.5 -301t319.5 -111q180 0 320.5 91t230.5 251h180v-30q-46 -94 -120.5 -178.5t-170.5 -151.5t-218.5 -106.5t-252.5 -39.5q-259 0 -422.5 154t-163.5 397z" />
<glyph unicode="D" horiz-adv-x="1548" d="M-12 0l536 1475h463q258 0 420 -148.5t162 -378.5v-13q0 -107 -30 -217q-32 -116 -93 -222t-152 -198.5t-200 -159.5q-110 -67 -244 -104q-124 -34 -256 -34h-21h-585zM231 164h375h18q145 0 283 62q147 66 253 173q104 107 168 247q61 134 61 266v12q0 183 -115.5 287 t-319.5 104h-303z" />
<glyph unicode="E" horiz-adv-x="1300" d="M-12 0l536 1475h1030l-57 -160h-846l-174 -475h748l-58 -160h-747l-189 -516h856l-59 -164h-1040z" />
<glyph unicode="F" horiz-adv-x="1232" d="M-12 0l536 1475h989l-57 -160h-805l-182 -500h723l-59 -160h-723l-238 -655h-184z" />
<glyph unicode="G" horiz-adv-x="1630" d="M154 535v15q0 181 72 352q75 177 205.5 310t317.5 212q178 75 376 75h20q247 0 396 -126.5t149 -330.5q0 -32 -7 -79h-188q6 35 6 67q0 138 -102 221.5t-293 83.5h-14q-147 0 -284 -60q-143 -63 -247 -169.5t-165 -251.5q-58 -138 -58 -285v-14q0 -183 113 -299.5 t307 -116.5q379 0 549 398h-508l55 159h700l-258 -696h-139l12 152h-20q-70 -60 -118.5 -90.5t-127.5 -57.5q-95 -29 -205 -29q-164 0 -289.5 76t-190 202.5t-64.5 281.5z" />
<glyph unicode="H" horiz-adv-x="1486" d="M-12 0l536 1475h185l-228 -625h770l228 625h184l-537 -1475h-184l252 690h-770l-252 -690h-184z" />
<glyph unicode="I" horiz-adv-x="532" d="M-12 0l536 1475h185l-537 -1475h-184z" />
<glyph unicode="J" horiz-adv-x="1097" d="M-10 313q0 65 18 138h180q-20 -73 -20 -125q0 -89 52 -138t149 -49q135 0 220.5 83t145.5 251l365 1002h184l-373 -1026q-88 -241 -218.5 -357.5t-340.5 -116.5q-168 0 -265 90t-97 248z" />
<glyph unicode="K" horiz-adv-x="1388" d="M-12 0l536 1475h185l-234 -644h21l958 644h242v-31l-828 -545l314 -899h-185l-274 803l-340 -223l-211 -580h-184z" />
<glyph unicode="L" horiz-adv-x="1196" d="M-12 0l536 1475h185l-480 -1315h799l-59 -160h-981z" />
<glyph unicode="M" horiz-adv-x="1939" d="M-12 0l536 1475h228l84 -1260h20l979 1260h281l-537 -1475h-184l417 1147h-20l-893 -1147h-209l-80 1147h-20l-418 -1147h-184z" />
<glyph unicode="N" horiz-adv-x="1511" d="M-12 0l536 1475h217l299 -1217h21l442 1217h185l-537 -1475h-217l-299 1217h-21l-442 -1217h-184z" />
<glyph unicode="O" horiz-adv-x="1671" d="M147 530q0 236 123 461q119 224 340 367q218 141 488 141q262 0 426 -155t164 -400q0 -234 -121 -461q-123 -226 -340 -366q-219 -142 -490 -142q-262 0 -426 155t-164 400zM328 551q0 -200 114 -306t324 -106h15q131 0 263 65q138 69 240 180.5t164 255.5q59 136 59 267 v17q0 200 -114 305.5t-324 105.5h-15q-130 0 -262 -65q-138 -69 -240 -180q-104 -112 -166 -256q-59 -136 -58 -266v-17z" />
<glyph unicode="P" horiz-adv-x="1366" d="M-12 0l536 1475h633q165 0 260.5 -86.5t95.5 -233.5q0 -149 -76.5 -270t-219.5 -191.5t-326 -70.5h-492l-227 -623h-184zM455 778h444q200 0 315 105t115 254q0 83 -59 132.5t-162 49.5h-457z" />
<glyph unicode="Q" horiz-adv-x="1638" d="M147 522v14q0 109 29 222q31 119 88 228t142 204.5t186.5 165t227.5 108.5q116 35 238 35h19q257 0 417.5 -154.5t160.5 -392.5v-14q0 -108 -28 -220q-30 -118 -86 -226t-139.5 -203.5t-183.5 -165t-224 -109.5q-120 -39 -247 -39h-6l-51 -139l10 -16h316l-53 -148h-228 q-92 0 -147.5 49.5t-55.5 126.5q0 31 13 72l24 72q-195 44 -308.5 186.5t-113.5 343.5zM328 547q0 -192 112.5 -300t313.5 -108h15q130 0 259 65q135 70 233 182.5t157 257.5q57 137 57 271v13q0 192 -112.5 299.5t-313.5 107.5h-15q-130 0 -258 -65q-136 -70 -234 -182 t-158 -256q-56 -138 -56 -272v-13z" />
<glyph unicode="R" horiz-adv-x="1392" d="M-12 0l536 1475h613q171 0 275 -89.5t104 -240.5q0 -105 -39 -196t-112 -160.5t-184 -113t-247 -52.5l133 -623h-188l-123 618h-359l-225 -618h-184zM455 774h407q244 0 359 103q112 100 112 249q0 87 -59 140t-162 53h-461z" />
<glyph unicode="S" horiz-adv-x="1376" d="M49 463l2 39h180q-1 -16 -1 -32q0 -152 105 -239q116 -96 324 -96q179 0 292.5 76.5t113.5 200.5q0 89 -59.5 140t-208.5 103l-158 56q-145 51 -220 131t-75 215q0 199 159 320.5t427 121.5q262 -1 418 -133q142 -121 142 -314q0 -19 -1 -38h-180l2 33q0 143 -115 223 q-116 78 -287 78q-177 0 -281 -73t-104 -196q0 -84 59.5 -136t182.5 -93l158 -55q157 -57 239 -143t82 -214q0 -208 -158.5 -335.5t-443.5 -127.5q-271 0 -432.5 132.5t-161.5 355.5z" />
<glyph unicode="T" horiz-adv-x="1310" d="M313 1315l58 160h1269l-57 -160h-541l-479 -1315h-184l479 1315h-545z" />
<glyph unicode="U" horiz-adv-x="1507" d="M152 391q0 94 32 176l330 908h184l-340 -936q-24 -70 -24 -133q0 -120 86.5 -193.5t236.5 -73.5q365 0 510 398l342 938h185l-351 -963q-97 -268 -264 -402.5t-436 -134.5q-222 0 -356.5 117t-134.5 299z" />
<glyph unicode="V" horiz-adv-x="1355" d="M371 1475h180l8 -1239h21l899 1239h196v-31l-1065 -1444h-217z" />
<glyph unicode="W" horiz-adv-x="2007" d="M221 0l150 1475h184l-139 -1229h20l795 1229h229l-96 -1229h20l752 1229h191v-31l-902 -1444h-233l84 1219h-21l-796 -1219h-238z" />
<glyph unicode="X" horiz-adv-x="1445" d="M-102 0v31l811 745l-297 699h196l236 -590h20l633 590h221v-31l-778 -715l309 -729h-196l-248 618h-21l-665 -618h-221z" />
<glyph unicode="Y" horiz-adv-x="1343" d="M360 1475h185l184 -738h21l716 738h197v-31l-889 -905l-196 -539h-185l205 559z" />
<glyph unicode="Z" horiz-adv-x="1280" d="M-84 0l45 135l1243 1180h-829l57 160h1094l-45 -136l-1241 -1175h841l-59 -164h-1106z" />
<glyph unicode="[" horiz-adv-x="630" d="M-162 -410l725 1987h393l-47 -127h-225l-631 -1733h226l-48 -127h-393z" />
<glyph unicode="\" horiz-adv-x="1146" d="M391 1444v31h160l369 -1444v-31h-160z" />
<glyph unicode="]" horiz-adv-x="630" d="M-274 -410l47 127h225l631 1733h-226l48 127h393l-725 -1987h-393z" />
<glyph unicode="^" horiz-adv-x="1054" d="M190 778v31l607 666h131l121 -697h-170l-70 475h-21l-426 -475h-172z" />
<glyph unicode="_" horiz-adv-x="1146" d="M-178 -203l49 133h983l-49 -133h-983z" />
<glyph unicode="`" d="M614 1444v31h209l82 -297h-139z" />
<glyph unicode="a" horiz-adv-x="1245" d="M59 367v13q1 115 49 233q52 125 137 222t205 157q113 57 229 57h15q116 0 197 -54t123 -153h20l125 182h129l-373 -1024h-163l51 141h-21q-142 -157 -352 -157q-174 0 -272.5 104.5t-98.5 278.5zM223 383q0 -126 70 -193t199 -67h9q111 1 219 73q112 76 178 197 q65 117 65 237v11q0 126 -70 193t-199 67h-9q-111 -1 -219 -73q-112 -76 -178 -197q-65 -117 -65 -237v-11z" />
<glyph unicode="b" horiz-adv-x="1245" d="M-43 0l537 1475h168l-211 -584h20q143 149 344 149q174 0 272.5 -104.5t98.5 -278.5v-13q0 -115 -48 -233q-52 -125 -137.5 -222t-205.5 -157q-113 -57 -229 -57h-15q-116 0 -197 54t-123 153h-20l-125 -182h-129zM283 383q0 -127 70 -193.5t198 -66.5h9q110 1 218 73 q112 76 180 197q65 117 64 237v11q0 127 -70 193.5t-198 66.5h-9q-111 -1 -219 -73q-112 -76 -178 -197q-65 -117 -65 -237v-11z" />
<glyph unicode="c" horiz-adv-x="1124" d="M59 367v11q-1 93 31 188q34 101 97 188t146 154.5t188 105.5q97 35 198 35h16q172 1 275 -105q95 -97 95 -242q0 -13 -1 -26h-168q1 10 1 19q1 91 -53 145q-58 60 -182 61h-8q-89 1 -175 -43q-90 -46 -155 -120t-104 -170q-37 -91 -37 -180v-9q0 -122 70 -189t194 -67 q117 0 195.5 53.5t138.5 161.5h164v-31q-72 -150 -207.5 -241t-314.5 -91q-184 0 -294 111t-110 281z" />
<glyph unicode="d" horiz-adv-x="1245" d="M59 367v13q1 115 49 233q52 125 137 222t205 157q113 57 229 57h15q126 0 210 -62t120 -174h20l240 662h168l-537 -1475h-163l51 145h-21q-142 -161 -352 -161q-174 0 -272.5 104.5t-98.5 278.5zM223 383q0 -126 70 -193t199 -67h9q111 1 219 73q112 76 178 197 q65 117 65 237v11q0 126 -70 193t-199 67h-9q-111 -1 -219 -73q-112 -76 -178 -197q-65 -117 -65 -237v-11z" />
<glyph unicode="e" horiz-adv-x="1142" d="M59 367v9q0 120 50 240q52 124 141 220t216 156q121 57 252 57h13q171 0 272 -94t101 -253q0 -94 -35 -194l-14 -41h-824q-8 -36 -8 -88q0 -122 70 -189t194 -67q117 0 195.5 53.5t138.5 161.5h164v-31q-72 -150 -207.5 -241t-314.5 -91q-184 0 -294 111t-110 281z M276 606h644q14 41 14 90q0 93 -61 149t-175 56q-143 0 -253.5 -79t-168.5 -216z" />
<glyph unicode="f" horiz-adv-x="761" d="M80 0l319 881h-235l53 143h236l73 205q88 246 340 246h246l-51 -144h-307l-23 -16l-106 -291h272l-53 -143h-273l-323 -881h-168z" />
<glyph unicode="g" horiz-adv-x="1241" d="M-115 -82h174q14 -97 84.5 -149t192.5 -52q166 0 265.5 87.5t170.5 279.5l19 49h-21q-133 -133 -340 -133q-174 0 -270.5 102.5t-96.5 276.5v13q0 115 48 231q51 123 136 218t204 153q111 55 227 55h16q116 0 196.5 -54t119.5 -153h20l125 182h129l-362 -995 q-55 -150 -131 -249.5t-194 -156.5t-275 -57q-191 0 -309.5 99t-127.5 253zM227 395q0 -126 68 -191t197 -65h9q111 0 217 69q110 72 176 191q64 114 64 235v11q0 127 -68 191.5t-196 64.5h-9q-112 0 -218 -69q-110 -72 -177 -191q-63 -114 -63 -235v-11z" />
<glyph unicode="h" horiz-adv-x="1196" d="M-43 0l537 1475h168l-224 -613h21q161 187 401 187q128 0 205.5 -68t77.5 -184q0 -67 -31 -152l-235 -645h-168l243 668q17 56 17 84q0 70 -52.5 111.5t-142.5 41.5q-144 0 -267 -95t-183 -263l-199 -547h-168z" />
<glyph unicode="i" horiz-adv-x="454" d="M-43 0l373 1024h168l-373 -1024h-168zM371 1219l78 215h229l-78 -215h-229z" />
<glyph unicode="j" horiz-adv-x="464" d="M-459 -410l53 148h256l23 16l467 1270h168l-432 -1188q-88 -246 -340 -246h-195zM381 1219l78 215h229l-78 -215h-229z" />
<glyph unicode="k" horiz-adv-x="1091" d="M-43 0l537 1475h168l-316 -867h21l665 416h217v-31l-583 -360l211 -633h-172l-179 549l-260 -162l-141 -387h-168z" />
<glyph unicode="l" horiz-adv-x="454" d="M-43 0l537 1475h168l-537 -1475h-168z" />
<glyph unicode="m" horiz-adv-x="1806" d="M-43 0l373 1024h164l-48 -129h21q142 154 336 154q114 0 186 -52t82 -149h21q165 201 387 201q125 0 198.5 -59t73.5 -169q0 -63 -29 -145l-245 -676h-168l247 680q21 55 21 100q0 62 -41 93.5t-115 31.5q-141 0 -247 -87t-168 -257l-205 -561h-168l248 680q20 53 20 100 q0 62 -41 93.5t-115 31.5q-141 0 -247 -87t-168 -257l-205 -561h-168z" />
<glyph unicode="n" horiz-adv-x="1196" d="M-43 0l373 1024h164l-56 -150h21q98 92 191 133.5t210 41.5q128 0 205.5 -68t77.5 -184q0 -67 -31 -152l-235 -645h-168l243 668q17 56 17 84q0 70 -52.5 111.5t-142.5 41.5q-144 0 -267 -95t-183 -263l-199 -547h-168z" />
<glyph unicode="o" horiz-adv-x="1185" d="M59 367v13q-1 115 49 233q52 125 140.5 222t212.5 157q116 57 238 57h16q193 0 302 -108t109 -284v-13q0 -115 -50 -233q-52 -125 -139.5 -222t-211.5 -157q-116 -57 -238 -57h-16q-193 0 -302.5 108.5t-109.5 283.5zM223 383q0 -126 70 -193t199 -67h9q111 1 219 73 q112 76 178 197q65 117 65 237v11q0 126 -70 193t-199 67h-9q-111 -1 -219 -73q-112 -76 -178 -197q-65 -117 -65 -237v-11z" />
<glyph unicode="p" horiz-adv-x="1245" d="M-193 -410l523 1434h164l-52 -139h21q143 155 352 155q174 0 272.5 -104.5t98.5 -278.5v-13q0 -115 -48 -233q-52 -125 -137.5 -222t-205.5 -157q-113 -57 -229 -57h-15q-126 0 -210 62t-120 174h-20l-226 -621h-168zM283 383q0 -127 70 -193.5t198 -66.5h9q111 0 218 73 q112 75 180 197q64 117 64 237v11q0 127 -70 193.5t-198 66.5h-9q-111 0 -219 -73q-111 -75 -178 -197q-65 -117 -65 -237v-11z" />
<glyph unicode="q" horiz-adv-x="1245" d="M59 367v13q0 115 49 233q51 125 136.5 222t205.5 157q113 57 229 57h15q116 0 197 -54t123 -153h20l125 182h129l-522 -1434h-168l197 543h-21q-143 -149 -344 -149q-174 0 -272.5 104.5t-98.5 278.5zM223 383q0 -126 70 -193t199 -67h9q111 0 219 73q111 75 178 197 q65 117 65 237v11q0 126 -70 193t-199 67h-9q-111 0 -219 -73q-111 -75 -178 -197q-65 -117 -65 -237v-11z" />
<glyph unicode="r" horiz-adv-x="724" d="M-43 0l373 1024h164l-56 -154h21q55 80 137.5 119t208.5 39h67l-57 -151h-100q-147 0 -236 -74.5t-147 -235.5l-207 -567h-168z" />
<glyph unicode="s" horiz-adv-x="1058" d="M2 348h160v-12q0 -98 74 -158q80 -64 227 -63q132 0 205 55t73 127q0 48 -31.5 76t-101.5 49l-172 49q-125 36 -182 95.5t-57 160.5q0 151 129 236q127 86 321 86t307 -97q107 -92 107 -230v-15h-160q-5 95 -77.5 148.5t-200.5 53.5q-116 0 -189.5 -48.5t-73.5 -121.5 q0 -52 32 -83t100 -50l172 -49q124 -37 182.5 -93t58.5 -151q0 -62 -29 -121t-83 -108t-142.5 -79t-197.5 -30q-217 -1 -337 101q-115 97 -114 258v14z" />
<glyph unicode="t" horiz-adv-x="811" d="M156 168q0 45 14 80l229 633h-235l53 143h236l104 291l176 98h31l-143 -389h282l-53 -143h-283l-260 -717l10 -17h320l-53 -147h-236q-89 0 -140.5 47t-51.5 121z" />
<glyph unicode="u" horiz-adv-x="1196" d="M53 227q0 67 31 152l235 645h168l-243 -668q-17 -56 -17 -84q0 -70 52.5 -111.5t142.5 -41.5q144 0 267 95t183 263l199 547h168l-373 -1024h-164l64 172h-21q-167 -197 -409 -197q-128 0 -205.5 68t-77.5 184z" />
<glyph unicode="v" horiz-adv-x="1034" d="M207 1024h160l10 -819h20l604 819h179v-31l-756 -993h-184z" />
<glyph unicode="w" horiz-adv-x="1544" d="M125 0l102 1024h152l-88 -819h20l518 819h201l-65 -819h20l504 819h160v-31l-625 -993h-213l72 831h-21l-522 -831h-215z" />
<glyph unicode="x" horiz-adv-x="1126" d="M-102 0v31l581 516l-192 477h172l141 -365h21l411 365h182v-31l-538 -477l207 -516h-172l-156 403h-20l-455 -403h-182z" />
<glyph unicode="y" horiz-adv-x="1054" d="M-260 -410l55 148h250l23 14l165 219l-26 1053h160l16 -838h20l619 838h178v-31l-946 -1249q-65 -87 -135 -120.5t-180 -33.5h-199z" />
<glyph unicode="z" horiz-adv-x="1028" d="M-96 0l43 127l876 754h-596l54 143h829l-41 -123l-879 -754h627l-53 -147h-860z" />
<glyph unicode="{" horiz-adv-x="747" d="M16 -289q0 35 19 94l205 562q18 49 18 84q0 54 -43 74t-141 20l45 119q125 0 190.5 37t102.5 141l188 520q77 215 315 215h158l-47 -127h-209l-22 -16l-230 -631q-29 -79 -92.5 -132.5t-150.5 -72.5v-20q104 -28 104 -127q0 -28 -16 -78l-234 -639l10 -17h209l-47 -127 h-158q-174 0 -174 121z" />
<glyph unicode="|" horiz-adv-x="450" d="M-193 -410l687 1885h163l-686 -1885h-164z" />
<glyph unicode="}" horiz-adv-x="745" d="M-274 -410l47 127h209l22 17l229 631q29 79 93 132t151 72v21q-104 28 -104 127q0 28 16 78l234 639l-11 16h-209l48 127h157q174 0 174 -121q0 -38 -18 -94l-205 -561q-18 -49 -18 -84q0 -54 43 -74t141 -20l-45 -119q-125 0 -190.5 -37t-102.5 -141l-188 -521 q-77 -215 -316 -215h-157z" />
<glyph unicode="~" horiz-adv-x="1105" d="M94 604v31q129 276 375 276q67 0 111 -22t100 -72q39 -38 68 -53.5t65 -15.5q59 0 98.5 35t73.5 108h150v-31q-129 -276 -375 -276q-67 0 -111 22t-100 72q-40 38 -68.5 54t-64.5 16q-59 0 -98.5 -35.5t-73.5 -108.5h-150z" />
<glyph unicode="&#xa1;" horiz-adv-x="532" d="M-197 -451l164 451l260 594h111l-186 -594l-164 -451h-185zM248 799l82 225h245l-81 -225h-246z" />
<glyph unicode="&#xa2;" horiz-adv-x="1130" d="M59 367q-2 119 48.5 241t136 218t207 158t251.5 65l70 190h164l-76 -207q121 -35 186.5 -131t57.5 -225h-168q6 104 -52.5 164.5t-181.5 60.5q-93 2 -183 -43.5t-155 -119.5t-104 -169.5t-37 -189.5q0 -122 70 -189t194 -67q117 0 195.5 53.5t138.5 161.5h164v-31 q-69 -146 -200.5 -237t-307.5 -95l-69 -190h-164l75 211q-122 38 -191 137.5t-69 233.5z" />
<glyph unicode="&#xa3;" d="M-43 0l49 135q156 95 227 209q66 111 101 303h-182l51 144h155l23 120q53 290 218 439t417 149q170 0 268 -81t98 -228q0 -62 -18 -135h-180q18 61 18 110q0 86 -55 132t-158 46q-170 0 -280 -105.5t-146 -317.5l-22 -129h303l-51 -144h-277q-33 -186 -98 -297t-191 -190 h803l-57 -160h-1016z" />
<glyph unicode="&#xa4;" horiz-adv-x="1370" d="M-82 14l250 179q-41 84 -41 182q0 139 67 274.5t185 235.5l-133 190l129 92l135 -194q143 76 297 76q183 0 303 -99l252 180l90 -120l-250 -179q41 -84 41 -182q0 -139 -67 -274.5t-185 -235.5l133 -190l-129 -92l-135 194q-143 -76 -297 -76q-183 0 -303 99l-252 -180z M291 391q0 -127 78.5 -197.5t214.5 -70.5q88 -3 179.5 40.5t161.5 115t113.5 166.5t40.5 188q0 127 -78.5 197.5t-214.5 70.5q-88 3 -179.5 -40.5t-161.5 -115t-113.5 -166.5t-40.5 -188z" />
<glyph unicode="&#xa5;" horiz-adv-x="1343" d="M141 295l54 143h358l49 133h-358l53 144h260l-197 760h185l184 -738h21l716 738h197v-31l-717 -729h256l-53 -144h-363l-49 -133h363l-53 -143h-363l-106 -295h-185l109 295h-361z" />
<glyph unicode="&#xa6;" horiz-adv-x="450" d="M-193 -410l238 652h164l-238 -652h-164zM256 823l238 652h163l-237 -652h-164z" />
<glyph unicode="&#xa7;" horiz-adv-x="1249" d="M90 119q0 5 4 55h170q-6 -27 -6 -55q0 -76 51 -118t148 -42q115 0 189.5 63.5t74.5 157.5q0 60 -33.5 106.5t-99.5 92.5l-195 139q-81 58 -117 118t-36 144q0 121 86 203.5t229 106.5v18q-29 56 -29 127q0 164 139 277.5t345 113.5q153 0 243 -72t90 -190q0 -42 -12 -88 h-176q14 35 14 72q0 62 -47 94.5t-137 32.5q-117 0 -198.5 -71.5t-81.5 -158.5q0 -51 24.5 -84.5t89.5 -81.5l211 -151q75 -65 106 -117.5t31 -132.5q0 -120 -83.5 -201t-225.5 -106v-21q39 -71 39 -155q0 -161 -129 -274.5t-324 -113.5q-168 0 -261 86t-93 226zM420 791 q0 -83 74 -136l219 -155q47 -34 55 -43q99 14 159 70.5t60 140.5q0 82 -67 131l-222 155l-57 47q-99 -12 -160 -69t-61 -141z" />
<glyph unicode="&#xa8;" d="M328 1219l78 215h229l-78 -215h-229zM737 1219l78 215h229l-77 -215h-230z" />
<glyph unicode="&#xa9;" horiz-adv-x="1792" d="M217 737q-3 155 56.5 297.5t162 244.5t245 162t298.5 58q155 2 297.5 -58t244.5 -162t162 -244.5t58 -297.5q2 -156 -58 -298.5t-162 -245t-244.5 -162t-297.5 -56.5q-156 -3 -298.5 56.5t-245 162t-162 245t-56.5 298.5zM303 737q-2 -140 50 -266.5t142 -218 t216.5 -144.5t267.5 -51q140 -2 266 51t216.5 144.5t143 218t50.5 266.5q2 140 -50.5 266.5t-143 218t-216.5 144.5t-266 51q-141 2 -267.5 -51t-216.5 -144.5t-142 -218t-50 -266.5zM610 739q0 180 108.5 295t276.5 115q130 0 216.5 -69t107.5 -177v-31h-82q-14 87 -79 141 t-163 54q-134 0 -216.5 -89.5t-82.5 -238.5q0 -148 82.5 -237.5t216.5 -89.5q104 0 168.5 53t83.5 149h82v-30q-21 -111 -111.5 -182.5t-222.5 -71.5q-168 0 -276.5 115t-108.5 294z" />
<glyph unicode="&#xab;" horiz-adv-x="983" d="M47 496l10 30l432 332h173v-31l-435 -340l203 -284v-31h-156zM395 496l11 30l432 332h172v-31l-435 -340l203 -284v-31h-155z" />
<glyph unicode="&#xad;" horiz-adv-x="780" d="M96 436l54 144h532l-53 -144h-533z" />
<glyph unicode="&#xae;" horiz-adv-x="1792" d="M217 737q-3 155 56.5 297.5t162 244.5t245 162t298.5 58q155 2 297.5 -58t244.5 -162t162 -244.5t58 -297.5q2 -156 -58 -298.5t-162 -245t-244.5 -162t-297.5 -56.5q-156 -3 -298.5 56.5t-245 162t-162 245t-56.5 298.5zM303 737q-2 -140 50 -266.5t142 -218 t216.5 -144.5t267.5 -51q140 -2 266 51t216.5 144.5t143 218t50.5 266.5q2 140 -50.5 266.5t-143 218t-216.5 144.5t-266 51q-141 2 -267.5 -51t-216.5 -144.5t-142 -218t-50 -266.5zM709 340v799h372q105 0 169.5 -63t64.5 -167q0 -99 -59 -161t-158 -68l164 -309v-31h-84 l-177 340h-206v-340h-86zM795 762h268q80 0 123 37.5t43 109.5t-43 110t-123 38h-268v-295z" />
<glyph unicode="&#xaf;" d="M346 1178l53 143h574l-53 -143h-574z" />
<glyph unicode="&#xb0;" horiz-adv-x="950" d="M360 1108q-2 70 31.5 142t89 127.5t132 89.5t153.5 32q139 0 220 -75.5t81 -196.5q2 -70 -31.5 -142t-89 -127.5t-131.5 -89.5t-153 -32q-139 0 -220.5 75.5t-81.5 196.5zM524 1108q0 -61 39 -96t103 -35q91 0 164 76.5t73 173.5q0 61 -38.5 96t-102.5 35 q-91 0 -164.5 -77t-73.5 -173z" />
<glyph unicode="&#xb1;" d="M-43 0l61 164h940l-61 -164h-940zM207 686l61 164h385l142 389h172l-142 -389h383l-61 -164h-383l-141 -389h-172l141 389h-385z" />
<glyph unicode="&#xb4;" d="M500 1178v30l243 267h234v-31l-322 -266h-155z" />
<glyph unicode="&#xb6;" horiz-adv-x="1394" d="M274 961q-3 140 82 259.5t234.5 188.5t327.5 66h806l-53 -148h-196l-484 -1327h-180l483 1327h-180l-483 -1327h-180l235 647h-74q-159 0 -248.5 83.5t-89.5 230.5z" />
<glyph unicode="&#xb7;" horiz-adv-x="491" d="M96 436l82 226h246l-82 -226h-246z" />
<glyph unicode="&#xb8;" d="M-129 -358l45 116h31q47 -41 86 -59t92 -18q56 0 90.5 26.5t34.5 65.5q0 47 -62 47h-112v30l88 150h110l-57 -94l35 2q69 5 110 -27t41 -92q0 -88 -83.5 -153.5t-204.5 -65.5q-140 0 -244 72z" />
<glyph unicode="&#xbb;" horiz-adv-x="983" d="M-23 172v31l435 340l-203 284v31h156l227 -323l-10 -31l-432 -332h-173zM326 172v31l434 340l-203 284v31h156l227 -323l-10 -31l-432 -332h-172z" />
<glyph unicode="&#xbf;" horiz-adv-x="1118" d="M-160 -168q0 135 93 239t311 230l162 94l14 17l51 141l57 82h123v-82l-30 -82q-35 -94 -81 -147t-134 -103l-70 -39q-174 -97 -245 -169.5t-71 -168.5q0 -75 59 -119t163 -44q137 0 249.5 73.5t178.5 225.5h188q-96 -225 -264.5 -340t-390.5 -115q-161 0 -262 87 t-101 220zM524 799l82 225h246l-82 -225h-246z" />
<glyph unicode="&#xc0;" horiz-adv-x="1355" d="M-156 0v31l1065 1444h217l23 -1475h-180l-2 422h-619l-307 -422h-197zM461 578h504l-4 661h-21zM881 1812v31h178l92 -256h-133z" />
<glyph unicode="&#xc1;" horiz-adv-x="1355" d="M-156 0v31l1065 1444h217l23 -1475h-180l-2 422h-619l-307 -422h-197zM461 578h504l-4 661h-21zM932 1587v31l227 225h219v-31l-284 -225h-162z" />
<glyph unicode="&#xc2;" horiz-adv-x="1355" d="M-156 0v31l1065 1444h217l23 -1475h-180l-2 422h-619l-307 -422h-197zM461 578h504l-4 661h-21zM739 1567v30l305 226h197l143 -226v-30h-161l-101 145l-207 -145h-176z" />
<glyph unicode="&#xc3;" horiz-adv-x="1355" d="M-156 0v31l1065 1444h217l23 -1475h-180l-2 422h-619l-307 -422h-197zM461 578h504l-4 661h-21zM729 1591v31q32 104 103 160.5t165 56.5q46 0 78.5 -14.5t71.5 -46.5q33 -27 51 -36t43 -9q52 0 79.5 22.5t59.5 85.5h117v-31q-32 -104 -103 -160.5t-165 -56.5 q-46 0 -78.5 14.5t-71.5 47.5q-33 27 -51 36t-43 9q-52 0 -79.5 -23t-59.5 -86h-117z" />
<glyph unicode="&#xc4;" horiz-adv-x="1355" d="M-156 0v31l1065 1444h217l23 -1475h-180l-2 422h-619l-307 -422h-197zM461 578h504l-4 661h-21zM756 1597l78 215h225l-78 -215h-225zM1165 1597l78 215h225l-77 -215h-226z" />
<glyph unicode="&#xc5;" horiz-adv-x="1355" d="M-156 0v31l1065 1444h217l23 -1475h-180l-2 422h-619l-307 -422h-197zM461 578h504l-4 661h-21zM922 1686q0 82 71 141t164 59q70 0 112 -36.5t42 -98.5q0 -83 -70 -141q-72 -60 -166 -60q-72 0 -112.5 36.5t-40.5 99.5zM1034 1702q0 -25 16.5 -39t45.5 -14 q41 0 71.5 25.5t30.5 60.5q0 25 -16 39t-45 14q-41 0 -72 -25.5t-31 -60.5z" />
<glyph unicode="&#xc6;" horiz-adv-x="2009" d="M-164 0l8 31l1348 1444h1071l-57 -160h-752l-174 -475h653l-57 -160h-653l-189 -516h762l-59 -164h-946l153 422h-506l-389 -422h-213zM582 578h419l263 722h-21z" />
<glyph unicode="&#xc7;" horiz-adv-x="1583" d="M147 526q-2 116 30 235t91 228t147 204t192.5 164t232.5 107t262 35q262 0 411.5 -142.5t149.5 -363.5h-188q0 154 -102 248t-304 94q-98 2 -194.5 -28.5t-178 -85t-151.5 -131t-118 -163.5t-74.5 -184.5t-24.5 -191.5q0 -190 116.5 -301t319.5 -111q180 0 320.5 91 t230.5 251h180v-30q-95 -194 -292.5 -330.5t-442.5 -145.5l-43 -69l35 2q69 5 110 -27t41 -92q0 -88 -84 -153.5t-205 -65.5q-139 0 -243 72l45 116h30q47 -40 86.5 -58.5t92.5 -18.5q56 0 90.5 26.5t34.5 65.5q0 47 -62 47h-113v30l76 130q-226 25 -365 175t-139 371z" />
<glyph unicode="&#xc8;" horiz-adv-x="1300" d="M-12 0l536 1475h1030l-57 -160h-846l-174 -475h748l-58 -160h-747l-189 -516h856l-59 -164h-1040zM862 1812v31h178l93 -256h-134z" />
<glyph unicode="&#xc9;" horiz-adv-x="1300" d="M-12 0l536 1475h1030l-57 -160h-846l-174 -475h748l-58 -160h-747l-189 -516h856l-59 -164h-1040zM913 1587v31l228 225h219v-31l-285 -225h-162z" />
<glyph unicode="&#xca;" horiz-adv-x="1300" d="M-12 0l536 1475h1030l-57 -160h-846l-174 -475h748l-58 -160h-747l-189 -516h856l-59 -164h-1040zM721 1567v30l305 226h197l143 -226v-30h-162l-100 145l-207 -145h-176z" />
<glyph unicode="&#xcb;" horiz-adv-x="1300" d="M-12 0l536 1475h1030l-57 -160h-846l-174 -475h748l-58 -160h-747l-189 -516h856l-59 -164h-1040zM737 1597l78 215h225l-77 -215h-226zM1147 1597l78 215h225l-78 -215h-225z" />
<glyph unicode="&#xcc;" horiz-adv-x="532" d="M-12 0l536 1475h185l-537 -1475h-184zM469 1812v31h178l92 -256h-133z" />
<glyph unicode="&#xcd;" horiz-adv-x="532" d="M-12 0l536 1475h185l-537 -1475h-184zM520 1587v31l228 225h219v-31l-285 -225h-162z" />
<glyph unicode="&#xce;" horiz-adv-x="532" d="M-12 0l536 1475h185l-537 -1475h-184zM328 1567v30l305 226h196l144 -226v-30h-162l-100 145l-207 -145h-176z" />
<glyph unicode="&#xcf;" horiz-adv-x="532" d="M-12 0l536 1475h185l-537 -1475h-184zM344 1597l78 215h225l-78 -215h-225zM754 1597l77 215h226l-78 -215h-225z" />
<glyph unicode="&#xd0;" horiz-adv-x="1619" d="M59 0l250 686h-205l46 123h204l242 666h463q258 0 419.5 -148.5t161.5 -378.5q2 -114 -30 -230.5t-93 -222t-151.5 -198t-199.5 -159.5t-243.5 -104t-277.5 -34h-586zM303 164h375q103 -2 204.5 27t187.5 82t160 127t125 158t79 179t26 187q0 183 -115 287t-319 104h-303 l-184 -506h252l-46 -123h-251z" />
<glyph unicode="&#xd1;" horiz-adv-x="1511" d="M-12 0l536 1475h217l299 -1217h21l442 1217h185l-537 -1475h-217l-299 1217h-21l-442 -1217h-184zM817 1591v31q32 104 103 160.5t165 56.5q46 0 78.5 -14.5t71.5 -46.5q33 -27 51 -36t43 -9q52 0 79.5 22.5t59.5 85.5h117v-31q-32 -104 -103 -160.5t-165 -56.5 q-46 0 -78.5 14.5t-71.5 47.5q-33 27 -51 36t-43 9q-52 0 -79.5 -23t-59.5 -86h-117z" />
<glyph unicode="&#xd2;" horiz-adv-x="1671" d="M147 530q0 236 123 461q119 224 340 367q218 141 488 141q262 0 426 -155t164 -400q0 -234 -121 -461q-123 -226 -340 -366q-219 -142 -490 -142q-262 0 -426 155t-164 400zM328 551q0 -200 114 -306t324 -106q139 -4 277.5 65t240.5 180.5t164.5 256t58.5 283.5 q0 200 -114 305.5t-324 105.5q-139 4 -277.5 -65t-240.5 -180t-164.5 -255.5t-58.5 -283.5zM1018 1812v31h178l92 -256h-133z" />
<glyph unicode="&#xd3;" horiz-adv-x="1671" d="M147 530q0 236 123 461q119 224 340 367q218 141 488 141q262 0 426 -155t164 -400q0 -234 -121 -461q-123 -226 -340 -366q-219 -142 -490 -142q-262 0 -426 155t-164 400zM328 551q0 -200 114 -306t324 -106q139 -4 277.5 65t240.5 180.5t164.5 256t58.5 283.5 q0 200 -114 305.5t-324 105.5q-139 4 -277.5 -65t-240.5 -180t-164.5 -255.5t-58.5 -283.5zM1069 1587v31l227 225h220v-31l-285 -225h-162z" />
<glyph unicode="&#xd4;" horiz-adv-x="1671" d="M147 530q0 236 123 461q119 224 340 367q218 141 488 141q262 0 426 -155t164 -400q0 -234 -121 -461q-123 -226 -340 -366q-219 -142 -490 -142q-262 0 -426 155t-164 400zM328 551q0 -200 114 -306t324 -106q139 -4 277.5 65t240.5 180.5t164.5 256t58.5 283.5 q0 200 -114 305.5t-324 105.5q-139 4 -277.5 -65t-240.5 -180t-164.5 -255.5t-58.5 -283.5zM877 1567v30l305 226h196l144 -226v-30h-162l-100 145l-207 -145h-176z" />
<glyph unicode="&#xd5;" horiz-adv-x="1671" d="M147 530q0 236 123 461q119 224 340 367q218 141 488 141q262 0 426 -155t164 -400q0 -234 -121 -461q-123 -226 -340 -366q-219 -142 -490 -142q-262 0 -426 155t-164 400zM328 551q0 -200 114 -306t324 -106q139 -4 277.5 65t240.5 180.5t164.5 256t58.5 283.5 q0 200 -114 305.5t-324 105.5q-139 4 -277.5 -65t-240.5 -180t-164.5 -255.5t-58.5 -283.5zM866 1591v31q32 103 103 160t166 57q46 0 78 -14.5t71 -46.5q33 -27 51 -36t43 -9q52 0 80 22.5t60 85.5h116v-31q-32 -104 -103 -160.5t-165 -56.5q-46 0 -77.5 14.5t-71.5 47.5 q-33 26 -51.5 35.5t-43.5 9.5q-52 0 -79.5 -23t-59.5 -86h-117z" />
<glyph unicode="&#xd6;" horiz-adv-x="1671" d="M147 530q0 236 123 461q119 224 340 367q218 141 488 141q262 0 426 -155t164 -400q0 -234 -121 -461q-123 -226 -340 -366q-219 -142 -490 -142q-262 0 -426 155t-164 400zM328 551q0 -200 114 -306t324 -106q139 -4 277.5 65t240.5 180.5t164.5 256t58.5 283.5 q0 200 -114 305.5t-324 105.5q-139 4 -277.5 -65t-240.5 -180t-164.5 -255.5t-58.5 -283.5zM893 1597l78 215h225l-78 -215h-225zM1303 1597l77 215h226l-78 -215h-225z" />
<glyph unicode="&#xd7;" d="M121 410l475 350l-217 338l135 92l213 -334l479 354l74 -125l-475 -350l217 -338l-135 -92l-213 334l-479 -354z" />
<glyph unicode="&#xd8;" horiz-adv-x="1671" d="M14 0v31l222 190q-89 133 -89 309q0 236 123 461q119 224 340 367q218 141 488 141q272 0 436 -164l162 140h108v-31l-211 -180q95 -136 95 -320q0 -234 -121 -461q-123 -226 -340 -366q-219 -142 -490 -142q-135 0 -249.5 44.5t-194.5 127.5l-170 -147h-109zM328 551 q0 -122 45 -213l1028 883q-114 114 -332 114q-139 4 -277.5 -65t-240.5 -180t-164.5 -255.5t-58.5 -283.5zM426 260q115 -121 340 -121q139 -4 277.5 65t240.5 180.5t164.5 256t58.5 283.5q0 133 -49 221z" />
<glyph unicode="&#xd9;" horiz-adv-x="1507" d="M152 391q0 94 32 176l330 908h184l-340 -936q-24 -70 -24 -133q0 -120 86.5 -193.5t236.5 -73.5q365 0 510 398l342 938h185l-351 -963q-97 -268 -264 -402.5t-436 -134.5q-222 0 -356.5 117t-134.5 299zM948 1812v31h178l93 -256h-134z" />
<glyph unicode="&#xda;" horiz-adv-x="1507" d="M152 391q0 94 32 176l330 908h184l-340 -936q-24 -70 -24 -133q0 -120 86.5 -193.5t236.5 -73.5q365 0 510 398l342 938h185l-351 -963q-97 -268 -264 -402.5t-436 -134.5q-222 0 -356.5 117t-134.5 299zM999 1587v31l228 225h219v-31l-285 -225h-162z" />
<glyph unicode="&#xdb;" horiz-adv-x="1507" d="M152 391q0 94 32 176l330 908h184l-340 -936q-24 -70 -24 -133q0 -120 86.5 -193.5t236.5 -73.5q365 0 510 398l342 938h185l-351 -963q-97 -268 -264 -402.5t-436 -134.5q-222 0 -356.5 117t-134.5 299zM807 1567v30l305 226h197l143 -226v-30h-162l-100 145l-207 -145 h-176z" />
<glyph unicode="&#xdc;" horiz-adv-x="1507" d="M152 391q0 94 32 176l330 908h184l-340 -936q-24 -70 -24 -133q0 -120 86.5 -193.5t236.5 -73.5q365 0 510 398l342 938h185l-351 -963q-97 -268 -264 -402.5t-436 -134.5q-222 0 -356.5 117t-134.5 299zM823 1597l78 215h225l-77 -215h-226zM1233 1597l78 215h225 l-78 -215h-225z" />
<glyph unicode="&#xdd;" horiz-adv-x="1343" d="M360 1475h185l184 -738h21l716 738h197v-31l-889 -905l-196 -539h-185l205 559zM926 1587v31l227 225h219v-31l-285 -225h-161z" />
<glyph unicode="&#xde;" horiz-adv-x="1255" d="M-12 0l536 1475h185l-107 -291h346q167 0 262 -82t95 -225q3 -109 -47.5 -208.5t-135.5 -170t-201 -111.5t-239 -39h-383l-127 -348h-184zM356 508h334q183 0 306.5 98.5t123.5 251.5q0 79 -57.5 122.5t-163.5 43.5h-354z" />
<glyph unicode="&#xdf;" horiz-adv-x="1230" d="M-43 0l362 997q61 169 136 276.5t186 166.5t260 59q138 0 233 -82t95 -203q0 -211 -254 -360l-135 -80q-35 -18 -35 -43q0 -20 29 -39l88 -63q180 -128 180 -289q0 -153 -119 -259t-301 -106q-159 0 -253.5 82.5t-94.5 218.5h164q11 -157 202 -157q102 0 168 60t66 147 q0 89 -74 155q-1 1 -102 76l-76 55q-68 50 -68 115q0 77 91 131l167 100q100 59 144.5 113t44.5 127q0 71 -53 114.5t-136 43.5q-258 0 -383 -352l-364 -1004h-168z" />
<glyph unicode="&#xe0;" horiz-adv-x="1245" d="M59 367q-3 121 48.5 246t137 222t205.5 157.5t244 56.5q116 0 197 -54t123 -153h20l125 182h129l-373 -1024h-163l51 141h-21q-142 -157 -352 -157q-174 0 -272.5 104.5t-98.5 278.5zM223 383q0 -126 70 -193t199 -67q116 -3 227.5 72.5t179 197.5t64.5 248 q0 126 -70 193t-199 67q-116 3 -227.5 -72.5t-179 -197.5t-64.5 -248zM764 1444v31h209l82 -297h-140z" />
<glyph unicode="&#xe1;" horiz-adv-x="1245" d="M59 367q-3 121 48.5 246t137 222t205.5 157.5t244 56.5q116 0 197 -54t123 -153h20l125 182h129l-373 -1024h-163l51 141h-21q-142 -157 -352 -157q-174 0 -272.5 104.5t-98.5 278.5zM223 383q0 -126 70 -193t199 -67q116 -3 227.5 72.5t179 197.5t64.5 248 q0 126 -70 193t-199 67q-116 3 -227.5 -72.5t-179 -197.5t-64.5 -248zM762 1178v30l244 267h233v-31l-321 -266h-156z" />
<glyph unicode="&#xe2;" horiz-adv-x="1245" d="M59 367q-3 121 48.5 246t137 222t205.5 157.5t244 56.5q116 0 197 -54t123 -153h20l125 182h129l-373 -1024h-163l51 141h-21q-142 -157 -352 -157q-174 0 -272.5 104.5t-98.5 278.5zM223 383q0 -126 70 -193t199 -67q116 -3 227.5 72.5t179 197.5t64.5 248 q0 126 -70 193t-199 67q-116 3 -227.5 -72.5t-179 -197.5t-64.5 -248zM608 1178v30l318 267h196l127 -267v-30h-149l-88 184l-228 -184h-176z" />
<glyph unicode="&#xe3;" horiz-adv-x="1245" d="M59 367q-3 121 48.5 246t137 222t205.5 157.5t244 56.5q116 0 197 -54t123 -153h20l125 182h129l-373 -1024h-163l51 141h-21q-142 -157 -352 -157q-174 0 -272.5 104.5t-98.5 278.5zM223 383q0 -126 70 -193t199 -67q116 -3 227.5 72.5t179 197.5t64.5 248 q0 126 -70 193t-199 67q-116 3 -227.5 -72.5t-179 -197.5t-64.5 -248zM520 1178v30q61 211 254 211q51 0 87 -14.5t89 -52.5q39 -27 59.5 -37t45.5 -10q84 0 108 98h125v-31q-61 -211 -254 -211q-51 0 -86.5 15t-89.5 53q-39 27 -59 37t-45 10q-85 0 -109 -98h-125z" />
<glyph unicode="&#xe4;" horiz-adv-x="1245" d="M59 367q-3 121 48.5 246t137 222t205.5 157.5t244 56.5q116 0 197 -54t123 -153h20l125 182h129l-373 -1024h-163l51 141h-21q-142 -157 -352 -157q-174 0 -272.5 104.5t-98.5 278.5zM223 383q0 -126 70 -193t199 -67q116 -3 227.5 72.5t179 197.5t64.5 248 q0 126 -70 193t-199 67q-116 3 -227.5 -72.5t-179 -197.5t-64.5 -248zM565 1219l78 215h229l-77 -215h-230zM975 1219l78 215h229l-78 -215h-229z" />
<glyph unicode="&#xe5;" horiz-adv-x="1245" d="M59 367q-3 121 48.5 246t137 222t205.5 157.5t244 56.5q116 0 197 -54t123 -153h20l125 182h129l-373 -1024h-163l51 141h-21q-142 -157 -352 -157q-174 0 -272.5 104.5t-98.5 278.5zM223 383q0 -126 70 -193t199 -67q116 -3 227.5 72.5t179 197.5t64.5 248 q0 126 -70 193t-199 67q-116 3 -227.5 -72.5t-179 -197.5t-64.5 -248zM733 1290q0 80 70 146.5t158 66.5q68 0 108.5 -38t40.5 -101q0 -80 -69.5 -146.5t-157.5 -66.5q-68 0 -109 38t-41 101zM842 1305q0 -25 15.5 -40.5t41.5 -15.5q38 0 70 31.5t32 69.5q0 25 -15.5 40 t-41.5 15q-38 0 -70 -31t-32 -69z" />
<glyph unicode="&#xe6;" horiz-adv-x="2013" d="M59 367q-3 121 48.5 246t137 222t205.5 157.5t244 56.5q116 0 197 -54t123 -153h20l125 182h113l-53 -147h20q156 163 383 163q167 0 261.5 -87t94.5 -240q0 -101 -39 -205l-14 -41h-831q-9 -40 -9 -88q0 -122 70.5 -189t194.5 -67q117 0 195 53.5t138 161.5h164v-31 q-162 -332 -497 -332q-128 0 -215 65.5t-123 180.5h-21l-76 -221h-163l51 141h-21q-142 -157 -352 -157q-174 0 -272.5 104.5t-98.5 278.5zM223 383q0 -126 70 -193t199 -67q116 -3 227.5 72.5t179 197.5t64.5 248q0 126 -70 193t-199 67q-116 3 -227.5 -72.5t-179 -197.5 t-64.5 -248zM1139 606h651q14 41 14 90q0 94 -60.5 149.5t-174.5 55.5q-143 0 -257.5 -80.5t-172.5 -214.5z" />
<glyph unicode="&#xe7;" horiz-adv-x="1124" d="M49 -358l45 116h31q47 -41 86 -59t92 -18q56 0 90.5 26.5t34.5 65.5q0 47 -61 47h-113v30l82 142q-130 35 -203.5 135t-73.5 240q-2 98 31.5 199t96.5 188t146 154.5t188 105.5t214 35q172 0 275 -105.5t94 -267.5h-168q6 104 -52.5 164.5t-181.5 60.5q-93 2 -183 -43.5 t-155 -119.5t-104 -169.5t-37 -189.5q0 -122 70 -189t194 -67q117 0 195.5 53.5t138.5 161.5h164v-31q-72 -150 -207.5 -241t-314.5 -91h-25l-43 -69l35 2q69 5 110.5 -27t41.5 -92q0 -88 -84 -153.5t-205 -65.5q-140 0 -244 72z" />
<glyph unicode="&#xe8;" horiz-adv-x="1142" d="M59 367q-2 124 50 248.5t141 221t216 156t265 56.5q171 0 272 -94t101 -253q0 -94 -35 -194l-14 -41h-824q-8 -36 -8 -88q0 -122 70 -189t194 -67q117 0 195.5 53.5t138.5 161.5h164v-31q-72 -150 -207.5 -241t-314.5 -91q-184 0 -294 111t-110 281zM276 606h644 q14 41 14 90q0 93 -61 149t-175 56q-143 0 -253.5 -79t-168.5 -216zM682 1444v31h209l82 -297h-139z" />
<glyph unicode="&#xe9;" horiz-adv-x="1142" d="M59 367q-2 124 50 248.5t141 221t216 156t265 56.5q171 0 272 -94t101 -253q0 -94 -35 -194l-14 -41h-824q-8 -36 -8 -88q0 -122 70 -189t194 -67q117 0 195.5 53.5t138.5 161.5h164v-31q-72 -150 -207.5 -241t-314.5 -91q-184 0 -294 111t-110 281zM276 606h644 q14 41 14 90q0 93 -61 149t-175 56q-143 0 -253.5 -79t-168.5 -216zM680 1178v30l244 267h233v-31l-321 -266h-156z" />
<glyph unicode="&#xea;" horiz-adv-x="1142" d="M59 367q-2 124 50 248.5t141 221t216 156t265 56.5q171 0 272 -94t101 -253q0 -94 -35 -194l-14 -41h-824q-8 -36 -8 -88q0 -122 70 -189t194 -67q117 0 195.5 53.5t138.5 161.5h164v-31q-72 -150 -207.5 -241t-314.5 -91q-184 0 -294 111t-110 281zM276 606h644 q14 41 14 90q0 93 -61 149t-175 56q-143 0 -253.5 -79t-168.5 -216zM526 1178v30l318 267h196l127 -267v-30h-149l-88 184l-228 -184h-176z" />
<glyph unicode="&#xeb;" horiz-adv-x="1142" d="M59 367q-2 124 50 248.5t141 221t216 156t265 56.5q171 0 272 -94t101 -253q0 -94 -35 -194l-14 -41h-824q-8 -36 -8 -88q0 -122 70 -189t194 -67q117 0 195.5 53.5t138.5 161.5h164v-31q-72 -150 -207.5 -241t-314.5 -91q-184 0 -294 111t-110 281zM276 606h644 q14 41 14 90q0 93 -61 149t-175 56q-143 0 -253.5 -79t-168.5 -216zM483 1219l78 215h230l-78 -215h-230zM893 1219l78 215h229l-78 -215h-229z" />
<glyph unicode="&#xec;" horiz-adv-x="454" d="M-43 0l373 1024h168l-373 -1024h-168zM365 1444v31h208l82 -297h-139z" />
<glyph unicode="&#xed;" horiz-adv-x="454" d="M-43 0l373 1024h168l-373 -1024h-168zM362 1178v30l244 267h234v-31l-322 -266h-156z" />
<glyph unicode="&#xee;" horiz-adv-x="454" d="M-43 0l373 1024h168l-373 -1024h-168zM209 1178v30l317 267h197l127 -267v-30h-150l-88 184l-227 -184h-176z" />
<glyph unicode="&#xef;" horiz-adv-x="454" d="M-43 0l373 1024h168l-373 -1024h-168zM166 1219l78 215h229l-78 -215h-229zM575 1219l78 215h230l-78 -215h-230z" />
<glyph unicode="&#xf0;" horiz-adv-x="1189" d="M59 367q-2 121 46 237.5t130 203.5t196.5 139t238.5 50q192 0 291 -153h20q1 123 -39.5 223.5t-116.5 167.5l-340 -137h-30l32 92l252 102q-87 43 -198 43l51 140h31q162 -15 282 -117l289 117h31l-33 -93l-221 -88q168 -198 168 -542q2 -170 -49 -315t-141 -244.5 t-215 -154t-267 -52.5q-191 0 -299.5 105.5t-108.5 275.5zM223 383q0 -121 68 -185.5t196 -64.5q119 0 221.5 61.5t164 169.5t61.5 236q0 121 -68 185.5t-196 64.5q-119 0 -221.5 -61.5t-164 -169.5t-61.5 -236z" />
<glyph unicode="&#xf1;" horiz-adv-x="1196" d="M-43 0l373 1024h164l-56 -150h21q98 92 191 133.5t210 41.5q128 0 205.5 -68t77.5 -184q0 -67 -31 -152l-235 -645h-168l243 668q17 56 17 84q0 70 -52.5 111.5t-142.5 41.5q-144 0 -267 -95t-183 -263l-199 -547h-168zM483 1178v30q61 211 254 211q51 0 87 -14.5 t89 -52.5q39 -27 59.5 -37t45.5 -10q84 0 108 98h125v-31q-61 -211 -254 -211q-51 0 -86.5 15t-89.5 53q-39 27 -59 37t-45 10q-85 0 -109 -98h-125z" />
<glyph unicode="&#xf2;" horiz-adv-x="1185" d="M59 367q-3 121 49.5 246t140.5 222t212 157.5t254 56.5q193 0 302 -108t109 -284q3 -121 -49.5 -246t-140 -222t-211.5 -157.5t-254 -56.5q-193 0 -302.5 108.5t-109.5 283.5zM223 383q0 -126 70 -193t199 -67q116 -3 227.5 72.5t179 197.5t64.5 248q0 126 -70 193 t-199 67q-116 3 -227.5 -72.5t-179 -197.5t-64.5 -248zM705 1444v31h208l82 -297h-139z" />
<glyph unicode="&#xf3;" horiz-adv-x="1185" d="M59 367q-3 121 49.5 246t140.5 222t212 157.5t254 56.5q193 0 302 -108t109 -284q3 -121 -49.5 -246t-140 -222t-211.5 -157.5t-254 -56.5q-193 0 -302.5 108.5t-109.5 283.5zM223 383q0 -126 70 -193t199 -67q116 -3 227.5 72.5t179 197.5t64.5 248q0 126 -70 193 t-199 67q-116 3 -227.5 -72.5t-179 -197.5t-64.5 -248zM702 1178v30l244 267h234v-31l-322 -266h-156z" />
<glyph unicode="&#xf4;" horiz-adv-x="1185" d="M59 367q-3 121 49.5 246t140.5 222t212 157.5t254 56.5q193 0 302 -108t109 -284q3 -121 -49.5 -246t-140 -222t-211.5 -157.5t-254 -56.5q-193 0 -302.5 108.5t-109.5 283.5zM223 383q0 -126 70 -193t199 -67q116 -3 227.5 72.5t179 197.5t64.5 248q0 126 -70 193 t-199 67q-116 3 -227.5 -72.5t-179 -197.5t-64.5 -248zM549 1178v30l317 267h197l127 -267v-30h-150l-88 184l-227 -184h-176z" />
<glyph unicode="&#xf5;" horiz-adv-x="1185" d="M59 367q-3 121 49.5 246t140.5 222t212 157.5t254 56.5q193 0 302 -108t109 -284q3 -121 -49.5 -246t-140 -222t-211.5 -157.5t-254 -56.5q-193 0 -302.5 108.5t-109.5 283.5zM223 383q0 -126 70 -193t199 -67q116 -3 227.5 72.5t179 197.5t64.5 248q0 126 -70 193 t-199 67q-116 3 -227.5 -72.5t-179 -197.5t-64.5 -248zM461 1178v30q61 211 254 211q51 0 87 -14.5t89 -52.5q39 -27 59 -37t45 -10q85 0 109 98h125v-31q-61 -211 -254 -211q-51 0 -86.5 15t-89.5 53q-39 27 -59.5 37t-45.5 10q-84 0 -108 -98h-125z" />
<glyph unicode="&#xf6;" horiz-adv-x="1185" d="M59 367q-3 121 49.5 246t140.5 222t212 157.5t254 56.5q193 0 302 -108t109 -284q3 -121 -49.5 -246t-140 -222t-211.5 -157.5t-254 -56.5q-193 0 -302.5 108.5t-109.5 283.5zM223 383q0 -126 70 -193t199 -67q116 -3 227.5 72.5t179 197.5t64.5 248q0 126 -70 193 t-199 67q-116 3 -227.5 -72.5t-179 -197.5t-64.5 -248zM506 1219l78 215h229l-78 -215h-229zM915 1219l78 215h230l-78 -215h-230z" />
<glyph unicode="&#xf7;" d="M199 666l61 163h940l-61 -163h-940zM414 287l78 215h233l-78 -215h-233zM672 993l78 215h233l-78 -215h-233z" />
<glyph unicode="&#xf8;" horiz-adv-x="1185" d="M-70 0v31l174 141q-45 80 -45 195q-3 121 49.5 246t140.5 222t212 157.5t254 56.5q210 0 315 -123l121 98h94v-31l-166 -135q47 -89 47 -201q3 -121 -49.5 -246t-140 -222t-211.5 -157.5t-254 -56.5q-207 0 -319 127l-125 -102h-97zM223 383q0 -59 15 -102l665 542 q-69 78 -209 78q-116 3 -227.5 -72.5t-179 -197.5t-64.5 -248zM279 205q70 -82 213 -82q116 -3 227.5 72.5t179 197.5t64.5 248q0 53 -17 109z" />
<glyph unicode="&#xf9;" horiz-adv-x="1196" d="M53 227q0 67 31 152l235 645h168l-243 -668q-17 -56 -17 -84q0 -70 52.5 -111.5t142.5 -41.5q144 0 267 95t183 263l199 547h168l-373 -1024h-164l64 172h-21q-167 -197 -409 -197q-128 0 -205.5 68t-77.5 184zM713 1444v31h209l82 -297h-140z" />
<glyph unicode="&#xfa;" horiz-adv-x="1196" d="M53 227q0 67 31 152l235 645h168l-243 -668q-17 -56 -17 -84q0 -70 52.5 -111.5t142.5 -41.5q144 0 267 95t183 263l199 547h168l-373 -1024h-164l64 172h-21q-167 -197 -409 -197q-128 0 -205.5 68t-77.5 184zM711 1178v30l243 267h234v-31l-322 -266h-155z" />
<glyph unicode="&#xfb;" horiz-adv-x="1196" d="M53 227q0 67 31 152l235 645h168l-243 -668q-17 -56 -17 -84q0 -70 52.5 -111.5t142.5 -41.5q144 0 267 95t183 263l199 547h168l-373 -1024h-164l64 172h-21q-167 -197 -409 -197q-128 0 -205.5 68t-77.5 184zM557 1178v30l317 267h197l127 -267v-30h-149l-88 184 l-228 -184h-176z" />
<glyph unicode="&#xfc;" horiz-adv-x="1196" d="M53 227q0 67 31 152l235 645h168l-243 -668q-17 -56 -17 -84q0 -70 52.5 -111.5t142.5 -41.5q144 0 267 95t183 263l199 547h168l-373 -1024h-164l64 172h-21q-167 -197 -409 -197q-128 0 -205.5 68t-77.5 184zM514 1219l78 215h229l-78 -215h-229zM924 1219l77 215h230 l-78 -215h-229z" />
<glyph unicode="&#xfd;" horiz-adv-x="1054" d="M-260 -410l55 148h250l23 14l165 219l-26 1053h160l16 -838h20l619 838h178v-31l-946 -1249q-65 -87 -135 -120.5t-180 -33.5h-199zM645 1178v30l244 267h233v-31l-321 -266h-156z" />
<glyph unicode="&#xfe;" horiz-adv-x="1245" d="M-193 -410l687 1885h168l-211 -584h20q143 149 344 149q174 0 272.5 -104.5t98.5 -278.5q3 -121 -48.5 -246t-137 -222t-205.5 -157.5t-244 -56.5q-126 0 -210 62t-120 174h-20l-226 -621h-168zM283 383q0 -127 70 -193.5t198 -66.5q116 -3 227.5 72.5t179 197.5 t64.5 248q0 127 -70 193.5t-198 66.5q-116 3 -227.5 -72.5t-179 -197.5t-64.5 -248z" />
<glyph unicode="&#xff;" horiz-adv-x="1054" d="M-260 -410l55 148h250l23 14l165 219l-26 1053h160l16 -838h20l619 838h178v-31l-946 -1249q-65 -87 -135 -120.5t-180 -33.5h-199zM449 1219l77 215h230l-78 -215h-229zM858 1219l78 215h229l-78 -215h-229z" />
<glyph unicode="&#x152;" horiz-adv-x="1916" d="M143 530q0 232 123 449q121 220 336 358q214 138 483 138h1086l-57 -160h-752l-174 -475h653l-57 -160h-654l-188 -516h762l-59 -164h-947q-246 12 -400.5 158.5t-154.5 371.5zM324 551q0 -188 114 -287.5t320 -99.5l420 1151h-121q-136 4 -272.5 -64t-238 -176 t-164 -248.5t-58.5 -275.5z" />
<glyph unicode="&#x153;" horiz-adv-x="2025" d="M59 367q-3 121 49.5 246t140.5 222t212 157.5t254 56.5q149 0 244 -65t131 -183h20q92 117 222.5 182.5t281.5 65.5q171 0 272 -94t101 -253q0 -94 -35 -194l-15 -41h-823q-8 -36 -8 -88q0 -122 70 -189t194 -67q117 0 195.5 53.5t138.5 161.5h164v-31 q-72 -150 -207.5 -241t-314.5 -91q-140 0 -235 66t-132 184h-21q-93 -118 -218 -184t-269 -66q-193 0 -302.5 108.5t-109.5 283.5zM223 383q0 -126 70 -193t199 -67q116 -3 227.5 72.5t179 197.5t64.5 248q0 126 -70 193t-199 67q-116 3 -227.5 -72.5t-179 -197.5 t-64.5 -248zM1159 606h643q15 44 15 90q0 93 -61 149t-175 56q-143 0 -253.5 -79t-168.5 -216z" />
<glyph unicode="&#x178;" horiz-adv-x="1343" d="M360 1475h185l184 -738h21l716 738h197v-31l-889 -905l-196 -539h-185l205 559zM750 1597l77 215h226l-78 -215h-225zM1159 1597l78 215h225l-78 -215h-225z" />
<glyph unicode="&#x2c6;" d="M410 1178v30l317 267h197l127 -267v-30h-150l-88 184l-227 -184h-176z" />
<glyph unicode="&#x2dc;" d="M322 1178v30q61 211 253 211q51 0 87.5 -14.5t89.5 -52.5q39 -27 59 -37t45 -10q85 0 109 98h125v-31q-61 -211 -254 -211q-51 0 -87 15t-90 53q-39 27 -59 37t-45 10q-85 0 -109 -98h-124z" />
<glyph unicode="&#x2000;" horiz-adv-x="943" />
<glyph unicode="&#x2001;" horiz-adv-x="1886" />
<glyph unicode="&#x2002;" horiz-adv-x="943" />
<glyph unicode="&#x2003;" horiz-adv-x="1886" />
<glyph unicode="&#x2004;" horiz-adv-x="628" />
<glyph unicode="&#x2005;" horiz-adv-x="471" />
<glyph unicode="&#x2006;" horiz-adv-x="314" />
<glyph unicode="&#x2007;" horiz-adv-x="314" />
<glyph unicode="&#x2008;" horiz-adv-x="235" />
<glyph unicode="&#x2009;" horiz-adv-x="377" />
<glyph unicode="&#x200a;" horiz-adv-x="104" />
<glyph unicode="&#x2010;" horiz-adv-x="780" d="M96 436l54 144h532l-53 -144h-533z" />
<glyph unicode="&#x2011;" horiz-adv-x="780" d="M96 436l54 144h532l-53 -144h-533z" />
<glyph unicode="&#x2012;" horiz-adv-x="780" d="M96 436l54 144h532l-53 -144h-533z" />
<glyph unicode="&#x2013;" horiz-adv-x="1271" d="M96 436l54 144h1024l-54 -144h-1024z" />
<glyph unicode="&#x2014;" horiz-adv-x="1845" d="M96 436l54 144h1597l-53 -144h-1598z" />
<glyph unicode="&#x2018;" horiz-adv-x="499" d="M360 1167l109 297q42 117 108 161t195 44h57l-36 -102h-41q-68 0 -104.5 -24t-55.5 -79l-27 -71h133l-82 -226h-256z" />
<glyph unicode="&#x2019;" horiz-adv-x="501" d="M260 973l37 102h41q68 0 104.5 24t55.5 79l26 71h-133l82 226h256l-108 -297q-42 -117 -108.5 -161t-195.5 -44h-57z" />
<glyph unicode="&#x201a;" horiz-adv-x="501" d="M-195 -276l37 102h41q68 0 104.5 23.5t55.5 78.5l27 72h-133l81 225h256l-108 -297q-42 -117 -108 -160.5t-195 -43.5h-58z" />
<glyph unicode="&#x201c;" horiz-adv-x="851" d="M360 1167l109 297q42 117 108 161t195 44h57l-36 -102h-41q-68 0 -104.5 -24t-55.5 -79l-27 -71h133l-82 -226h-256zM713 1167l108 297q42 117 108 161t195 44h58l-37 -102h-41q-68 0 -104.5 -24t-55.5 -79l-26 -71h133l-82 -226h-256z" />
<glyph unicode="&#x201d;" horiz-adv-x="854" d="M260 973l37 102h41q68 0 104.5 24t55.5 79l26 71h-133l82 226h256l-108 -297q-42 -117 -108.5 -161t-195.5 -44h-57zM612 973l37 102h41q68 0 104.5 24t55.5 79l27 71h-134l82 226h256l-108 -297q-42 -117 -108 -161t-195 -44h-58z" />
<glyph unicode="&#x201e;" horiz-adv-x="854" d="M-195 -276l37 102h41q68 0 104.5 23.5t55.5 78.5l27 72h-133l81 225h256l-108 -297q-42 -117 -108 -160.5t-195 -43.5h-58zM158 -276l37 102h41q68 0 104 23.5t55 78.5l27 72h-133l82 225h256l-109 -297q-42 -117 -108 -160.5t-195 -43.5h-57z" />
<glyph unicode="&#x2022;" horiz-adv-x="1470" d="M195 512q0 237 151 387t389 150t389.5 -150t151.5 -387t-151.5 -387t-389.5 -150t-389 150t-151 387z" />
<glyph unicode="&#x2026;" horiz-adv-x="1208" d="M-63 0l81 225h246l-82 -225h-245zM295 0l82 225h246l-82 -225h-246zM653 0l82 225h246l-82 -225h-246z" />
<glyph unicode="&#x202f;" horiz-adv-x="377" />
<glyph unicode="&#x2039;" horiz-adv-x="634" d="M47 496l10 30l432 332h173v-31l-435 -340l203 -284v-31h-156z" />
<glyph unicode="&#x203a;" horiz-adv-x="634" d="M-23 172v31l435 340l-203 284v31h156l227 -323l-10 -31l-432 -332h-173z" />
<glyph unicode="&#x205f;" horiz-adv-x="471" />
<glyph unicode="&#x20ac;" horiz-adv-x="1693" d="M18 532v31l62 113h248q8 56 34 143h-188v31l62 113h182q113 235 330 387q210 149 493 149q244 0 388.5 -141t144.5 -354h-189q0 151 -92.5 241t-284.5 90q-181 0 -337.5 -100.5t-258.5 -271.5h492v-31l-62 -113h-497q-25 -74 -37 -143h440v-31l-61 -113h-391 q5 -186 110.5 -289.5t296.5 -103.5q335 0 522 342h181v-30q-45 -95 -116 -179t-163.5 -151t-210.5 -106.5t-244 -39.5q-247 0 -402 152.5t-155 390.5v14h-297z" />
<glyph unicode="&#x2122;" horiz-adv-x="2058" d="M432 1393v82h670v-82h-289v-635h-90v635h-291zM1194 758v717h147l258 -603h21l256 603h149v-717h-90v583h-20l-254 -583h-102l-254 583h-21v-583h-90z" />
<glyph unicode="&#x25fc;" horiz-adv-x="1024" d="M0 0v1024h1024v-1024h-1024z" />
</font>
</defs>
</svg>
