<?xml version="1.0" standalone="no"?>
<!DOCTYPE svg PUBLIC "-//W3C//DTD SVG 1.1//EN" "http://www.w3.org/Graphics/SVG/1.1/DTD/svg11.dtd" >
<svg xmlns="http://www.w3.org/2000/svg" xmlns:xlink="http://www.w3.org/1999/xlink" version="1.1">
<metadata></metadata>
<defs>
<font id="fk_groteskbold" horiz-adv-x="1228" >
<font-face units-per-em="2048" ascent="1638" descent="-410" />
<missing-glyph horiz-adv-x="573" />
<glyph unicode="&#xfb01;" horiz-adv-x="1300" d="M20 877v188h246v113q0 140 80.5 218.5t226.5 78.5h390v-189h-414l-17 -16v-205h656v-1065h-266v877h-390v-877h-266v877h-246z" />
<glyph unicode="&#xfb02;" horiz-adv-x="1310" d="M20 877v188h246v113q0 140 80.5 218.5t226.5 78.5h226v-189h-250l-17 -16v-205h246v-188h-246v-877h-266v877h-246zM932 0v1475h266v-1475h-266z" />
<glyph horiz-adv-x="0" />
<glyph horiz-adv-x="682" />
<glyph unicode=" "  horiz-adv-x="573" />
<glyph unicode="&#x09;" horiz-adv-x="573" />
<glyph unicode="&#xa0;" horiz-adv-x="573" />
<glyph unicode="!" horiz-adv-x="552" d="M113 0v287h327v-287h-327zM135 1065v410h275v-410l-45 -610h-185z" />
<glyph unicode="&#x22;" horiz-adv-x="880" d="M41 889v135h39q90 0 127 30.5t37 104.5v29h-172v287h327v-316q0 -138 -79.5 -204t-239.5 -66h-39zM451 889v135h38q90 0 127 30.5t37 104.5v29h-172v287h328v-316q0 -138 -80 -204t-240 -66h-38z" />
<glyph unicode="#" horiz-adv-x="1642" d="M82 397v217h319l72 246h-391v217h455l114 398h267v-31l-107 -367h217l115 398h266v-31l-106 -367h258v-217h-320l-72 -246h392v-217h-455l-115 -397h-266v31l106 366h-217l-114 -397h-267v31l107 366h-258zM672 610h225l74 254h-226z" />
<glyph unicode="$" horiz-adv-x="1388" d="M31 481v31h278q8 -150 108.5 -239t270.5 -89q156 0 240 60t84 157q0 85 -64 127.5t-229 79.5l-203 43q-213 45 -312.5 142.5t-99.5 273.5q0 171 123.5 286.5t337.5 141.5v205h250v-205q218 -29 343 -148t138 -313v-30h-278q0 143 -88.5 214.5t-243.5 71.5 q-135 0 -217 -56.5t-82 -150.5q0 -81 56.5 -125t187.5 -71l203 -43q241 -51 350.5 -143.5t109.5 -266.5q0 -182 -123.5 -303.5t-355.5 -150.5v-216h-250v213q-240 30 -377.5 166t-156.5 338z" />
<glyph unicode="%" horiz-adv-x="2078" d="M164 1151q0 151 106 251.5t267 100.5t266.5 -100.5t105.5 -251.5q0 -150 -106 -251t-266 -101q-161 0 -267 101t-106 251zM205 0v31l1368 1444h291v-31l-1368 -1444h-291zM381 1151q0 -68 44.5 -114t111.5 -46t111 46t44 114q0 70 -43.5 115t-111.5 45 q-69 0 -112.5 -45.5t-43.5 -114.5zM1169 324q0 151 106 251.5t267 100.5t267 -100.5t106 -251.5q0 -150 -106.5 -251.5t-266.5 -101.5t-266.5 101.5t-106.5 251.5zM1386 324q0 -68 44.5 -114t111.5 -46t111.5 46t44.5 114q0 69 -43.5 114t-112.5 45t-112.5 -45t-43.5 -114z " />
<glyph unicode="&#x26;" horiz-adv-x="1626" d="M123 408q0 233 262 403q-91 95 -128.5 166.5t-37.5 161.5q0 157 127 260.5t320 103.5q188 0 306 -103t118 -251q0 -128 -72.5 -214.5t-235.5 -172.5l254 -254l230 321h278v-30l-311 -434l-23 -33l103 -105l24 -10h207v-217h-186q-93 0 -149.5 21t-112.5 77l-41 41 q-173 -168 -424 -168q-226 0 -367 120.5t-141 316.5zM401 412q0 -98 66.5 -158.5t171.5 -60.5q136 0 246 116l-332 334q-74 -44 -113 -99t-39 -132zM494 1139q0 -54 26.5 -97.5t91.5 -107.5l29 14q94 46 134 90.5t40 110.5q0 62 -45 101.5t-113 39.5q-71 0 -117 -40.5 t-46 -110.5z" />
<glyph unicode="'" horiz-adv-x="471" d="M41 889v135h39q90 0 127 30.5t37 104.5v29h-172v287h327v-316q0 -138 -79.5 -204t-239.5 -66h-39z" />
<glyph unicode="(" horiz-adv-x="772" d="M92 584q0 650 365 993h254v-21q-177 -177 -263 -409.5t-86 -562.5t86 -563t263 -410v-21h-254q-365 343 -365 994z" />
<glyph unicode=")" horiz-adv-x="772" d="M61 -389q177 177 263 410t86 563t-86 562.5t-263 409.5v21h254q365 -343 365 -993q0 -651 -365 -994h-254v21z" />
<glyph unicode="*" horiz-adv-x="1064" d="M82 961v126h31l290 -38l7 18l-273 113l-26 14l63 111l27 -17l231 -178l17 14l-181 232l-16 26l110 64l15 -27l112 -272l19 6l-39 291v31h127v-31l-39 -291l18 -6l113 272l14 27l111 -64l-16 -26l-181 -234l15 -14l233 180l27 17l63 -111l-26 -14l-273 -113l7 -18l290 38 h31v-126h-31l-290 38l-7 -18l273 -113l26 -14l-63 -111l-27 17l-233 180l-13 -14l179 -234l16 -26l-111 -64l-14 27l-113 272l-18 -6l39 -291v-31h-127v31l39 291l-19 6l-112 -272l-15 -27l-110 64l16 26l178 234l-12 12l-233 -178l-27 -17l-63 111l26 14l273 113l-7 18 l-290 -38h-31z" />
<glyph unicode="+" horiz-adv-x="1474" d="M215 430v225h410v410h225v-410h410v-225h-410v-410h-225v410h-410z" />
<glyph unicode="," horiz-adv-x="471" d="M41 -164h39q90 0 127 30.5t37 104.5v29h-172v287h327v-316q0 -138 -79.5 -204t-239.5 -66h-39v135z" />
<glyph unicode="-" horiz-adv-x="819" d="M123 422v217h573v-217h-573z" />
<glyph unicode="." horiz-adv-x="471" d="M72 0v287h327v-287h-327z" />
<glyph unicode="/" horiz-adv-x="1298" d="M82 0v31l860 1444h275v-31l-861 -1444h-274z" />
<glyph unicode="0" horiz-adv-x="1433" d="M78 737q0 177 47 321.5t131.5 241.5t202.5 150t258 53t258 -53t202.5 -150t131.5 -241.5t47 -321.5t-47 -321.5t-131.5 -241.5t-202.5 -150t-258 -53t-258 53t-202.5 150t-131.5 241.5t-47 321.5zM365 737q0 -258 90.5 -399t261.5 -141t261.5 141t90.5 399t-90.5 399.5 t-261.5 141.5t-261.5 -141.5t-90.5 -399.5z" />
<glyph unicode="1" horiz-adv-x="813" d="M31 1055v205h155q118 0 166.5 40t48.5 144v31h279v-1475h-287v1055h-362z" />
<glyph unicode="2" horiz-adv-x="1251" d="M41 1004v30q27 218 186 344q155 125 404 125t402 -126.5t153 -338.5q0 -122 -57 -229.5t-146 -187.5q-84 -75 -197 -160l-331 -244h755v-217h-1140v184l598 500q127 108 186 193q49 76 49 174q0 106 -74.5 170.5t-201.5 64.5q-133 0 -215.5 -72.5t-92.5 -209.5h-278z" />
<glyph unicode="3" horiz-adv-x="1255" d="M37 451v30h258q11 -135 96 -214t221 -79q138 0 218.5 74.5t80.5 198.5q0 118 -82 189t-213 71q-121 0 -225 -39h-31v209l457 366h-754v218h1119v-187l-467 -375v-20h39q59 1 120 -15.5t118.5 -52t102 -85t71 -122t24.5 -157.5q0 -221 -162.5 -355.5t-413.5 -134.5 q-241 0 -401.5 135.5t-175.5 344.5z" />
<glyph unicode="4" horiz-adv-x="1382" d="M41 410v200l741 865h314v-848h245v-217h-245v-410h-287v410h-768zM328 627h481v542h-21z" />
<glyph unicode="5" horiz-adv-x="1241" d="M41 420v31h258q12 -120 92.5 -191.5t206.5 -71.5q130 0 212.5 83t82.5 216q0 128 -79 200.5t-206 72.5q-166 0 -248 -137h-258l82 852h987v-218h-737l-37 -385h21q113 101 278 101q91 0 175.5 -32t151.5 -90.5t107.5 -151t40.5 -203.5q0 -235 -160 -380t-407 -145 q-231 0 -384.5 126t-178.5 323z" />
<glyph unicode="6" horiz-adv-x="1357" d="M78 690q0 191 51.5 346t142.5 256.5t214 156t266 54.5q120 0 219 -36.5t163.5 -97.5t103 -136t48.5 -158v-31h-254q-11 110 -82.5 176t-197.5 66q-188 0 -294 -144t-106 -390h21q64 93 165 143.5t230 50.5q101 0 191.5 -32.5t159 -92t109 -149t40.5 -197.5 q0 -219 -162.5 -361.5t-407.5 -142.5q-120 -2 -230 43t-198.5 131.5t-140.5 227.5t-51 317zM408 459q0 -118 82 -196.5t210 -78.5t210.5 79.5t82.5 199.5q0 119 -81.5 194.5t-211.5 75.5t-211 -76t-81 -198z" />
<glyph unicode="7" horiz-adv-x="1189" d="M31 1257v218h1118v-189l-596 -1286h-303v31l581 1226h-800z" />
<glyph unicode="8" horiz-adv-x="1331" d="M72 401q0 122 69 210.5t199 136.5v20q-118 49 -181 134t-63 194q0 176 154.5 291.5t415.5 115.5t415 -115.5t154 -291.5q0 -109 -63 -194t-181 -134v-20q130 -48 199.5 -136.5t69.5 -210.5q0 -193 -161 -311.5t-433 -118.5t-433 118.5t-161 311.5zM358 412 q0 -101 84 -164.5t224 -63.5q139 0 223 63.5t84 164.5q0 103 -83.5 166t-223.5 63t-224 -63t-84 -166zM379 1073q0 -96 78 -157.5t209 -61.5t208.5 61.5t77.5 157.5t-77.5 156.5t-208.5 60.5t-209 -61t-78 -156z" />
<glyph unicode="9" horiz-adv-x="1345" d="M70 1004q0 218 160.5 358.5t414.5 140.5q101 0 192 -27t170 -84.5t137 -140.5t91 -202t33 -263q0 -390 -167 -602.5t-456 -212.5q-215 0 -360.5 109t-186.5 299v31h258q21 -102 95.5 -162t193.5 -60q174 0 263 135.5t85 397.5h-20q-61 -94 -161 -145.5t-232 -51.5 q-140 0 -256 60t-185 171t-69 249zM346 1014q0 -120 82 -198.5t215 -78.5t215 78.5t82 198.5t-82 198t-215 78t-215 -78t-82 -198z" />
<glyph unicode=":" horiz-adv-x="471" d="M72 0v287h327v-287h-327zM72 786v287h327v-287h-327z" />
<glyph unicode=";" horiz-adv-x="471" d="M41 -164h39q90 0 127 30.5t37 104.5v29h-172v287h327v-316q0 -138 -79.5 -204t-239.5 -66h-39v135zM72 788v287h327v-287h-327z" />
<glyph unicode="&#x3c;" horiz-adv-x="1474" d="M225 451v184l973 348h31v-221l-647 -209v-21l647 -208v-222h-31z" />
<glyph unicode="=" horiz-adv-x="1474" d="M225 246v225h1024v-225h-1024zM225 614v226h1024v-226h-1024z" />
<glyph unicode="&#x3e;" horiz-adv-x="1474" d="M246 102v222l647 208v21l-647 209v221h30l973 -348v-184l-973 -349h-30z" />
<glyph unicode="?" horiz-adv-x="1191" d="M41 1024v31q12 199 168.5 321.5t398.5 122.5q240 0 386.5 -116.5t146.5 -292.5q0 -65 -18.5 -119.5t-55.5 -100t-83.5 -82t-113.5 -75.5l-145 -86l-10 -21v-74l-21 -102h-225l-20 102v21q0 101 32.5 159t122.5 111l60 35q90 54 126 80t60 63q24 41 24 93q0 86 -72 137 t-194 51q-135 0 -217 -65.5t-88 -192.5h-262zM420 0v287h328v-287h-328z" />
<glyph unicode="@" horiz-adv-x="2285" d="M164 535q-3 219 77 403.5t217.5 308t321.5 191t389 65.5q198 2 374 -64t305 -184.5t203 -291t71 -373.5q0 -127 -32.5 -229.5t-88 -167t-127 -98.5t-152.5 -34q-95 0 -167.5 33.5t-106.5 98.5h-21q-114 -156 -329 -156q-96 0 -178.5 34t-144 97t-97 158.5t-35.5 212.5 q0 232 129 366.5t326 134.5q185 0 291 -112h20l29 88h209v-668q0 -82 84 -82q62 0 97.5 84t35.5 240q3 198 -90.5 353.5t-252.5 238t-352 80.5q-151 2 -287 -48t-239.5 -141.5t-163.5 -231t-57 -306.5q-2 -168 58 -307.5t164.5 -231t242.5 -141.5t293 -48q320 0 516 170h20 l133 -176v-20q-258 -219 -678 -219q-205 -2 -390 66.5t-323 192.5t-218 309.5t-76 404.5zM913 539q0 -144 62 -220.5t172 -76.5t171.5 76.5t61.5 220.5t-61.5 220.5t-171.5 76.5t-172 -76.5t-62 -220.5z" />
<glyph unicode="A" horiz-adv-x="1425" d="M20 0v31l523 1444h340l522 -1444v-31h-291l-117 350h-569l-117 -350h-291zM502 567h422l-201 600h-21z" />
<glyph unicode="B" horiz-adv-x="1386" d="M133 0v1475h721q207 0 329 -99t122 -266q0 -122 -72 -208.5t-205 -121.5v-20q140 -29 218.5 -121t78.5 -231q0 -172 -134.5 -290t-336.5 -118h-721zM416 213h377q116 0 182.5 54t66.5 161t-66.5 161t-182.5 54h-377v-430zM416 856h377q229 0 229 203t-229 203h-377v-406z " />
<glyph unicode="C" horiz-adv-x="1613" d="M72 737v13q0 136 40 254q42 124 117.5 215.5t175.5 156.5t216 97q109 30 223 30h14h15q117 0 220 -30q110 -32 187 -84.5t135 -120.5t88.5 -138t38.5 -137v-30h-282q-14 147 -119 235t-283 88q-224 0 -358.5 -143.5t-141.5 -405.5q0 -130 38 -235.5t105 -173t156.5 -104 t192.5 -36.5q185 0 291.5 88.5t138.5 245.5h283v-30q-17 -106 -74 -199.5t-147 -165.5t-218.5 -114t-277.5 -42h-7q-116 1 -227 31q-114 32 -213 96t-173 154.5t-115 215.5q-39 119 -39 256v13z" />
<glyph unicode="D" horiz-adv-x="1495" d="M133 0v1475h561q345 0 537 -195.5t192 -542.5t-192 -542t-537 -195h-561zM416 217h286q439 0 439 520q0 259 -111 389.5t-328 130.5h-286v-1040z" />
<glyph unicode="E" horiz-adv-x="1280" d="M133 0v1475h1045v-213h-762v-398h659v-213h-659v-438h813v-213h-1096z" />
<glyph unicode="F" horiz-adv-x="1167" d="M133 0v1475h993v-213h-710v-418h639v-213h-639v-631h-283z" />
<glyph unicode="G" horiz-adv-x="1609" d="M72 733q0 232 101.5 408t279 269t403.5 93q286 0 466.5 -144.5t215.5 -375.5v-31h-266q-19 158 -128.5 246t-295.5 88q-227 0 -358.5 -144.5t-131.5 -402.5q0 -256 134 -401t364 -145q98 0 176 29.5t125 79.5t72 108.5t28 121.5h-462v205h712v-737h-194l-41 164h-21 q-151 -184 -438 -184h-11q-148 0 -280 52q-137 55 -237 153t-157 241q-56 137 -56 296v11z" />
<glyph unicode="H" horiz-adv-x="1466" d="M133 0v1475h283v-623h635v623h282v-1475h-282v635h-635v-635h-283z" />
<glyph unicode="I" horiz-adv-x="552" d="M133 0v1475h287v-1475h-287z" />
<glyph unicode="J" horiz-adv-x="1193" d="M35 451h278q0 -129 58.5 -196t171.5 -67q122 0 181.5 77.5t59.5 221.5v988h287v-977q0 -256 -133 -391.5t-395 -135.5q-245 0 -376.5 123t-131.5 357z" />
<glyph unicode="K" horiz-adv-x="1505" d="M133 0v1475h283v-633h20l690 633h349v-31l-596 -535l575 -878v-31h-303l-469 733l-266 -239v-494h-283z" />
<glyph unicode="L" horiz-adv-x="1167" d="M133 0v1475h283v-1258h710v-217h-993z" />
<glyph unicode="M" horiz-adv-x="1966" d="M133 0v1475h348l492 -1147h20l492 1147h348v-1475h-279v967h-20l-416 -967h-270l-416 967h-20v-967h-279z" />
<glyph unicode="N" horiz-adv-x="1515" d="M133 0v1475h328l622 -1055h21v1055h278v-1475h-327l-623 1055h-20v-1055h-279z" />
<glyph unicode="O" horiz-adv-x="1724" d="M72 737q0 232 98.5 406t277.5 267t414 93t414 -93t278 -267t99 -406t-99 -406t-278 -267t-414 -93t-414 93t-277.5 267t-98.5 406zM358 737q0 -250 131.5 -395t372.5 -145t372.5 145t131.5 395t-131.5 395.5t-372.5 145.5t-372.5 -145.5t-131.5 -395.5z" />
<glyph unicode="P" horiz-adv-x="1341" d="M133 0v1475h670q219 0 353 -120.5t134 -324.5t-134 -324t-353 -120h-387v-586h-283zM416 799h356q110 0 173 61t63 170t-63 170.5t-173 61.5h-356v-463z" />
<glyph unicode="Q" horiz-adv-x="1724" d="M72 737q0 232 98.5 406t277.5 267t414 93t414 -93t278 -267t99 -406q0 -314 -178.5 -517t-479.5 -240v-136l17 -16h219v-197h-215q-130 0 -208.5 78.5t-78.5 208.5v62q-301 37 -479 240t-178 517zM358 737q0 -250 131.5 -395t372.5 -145t372.5 145t131.5 395 t-131.5 395.5t-372.5 145.5t-372.5 -145.5t-131.5 -395.5z" />
<glyph unicode="R" horiz-adv-x="1392" d="M133 0v1475h680q227 0 373 -113q145 -115 145 -338q0 -174 -92.5 -284t-255.5 -148l279 -561v-31h-295l-267 573h-284v-573h-283zM416 786h354q135 0 207 61.5t72 176.5t-72 176.5t-207 61.5h-354v-476z" />
<glyph unicode="S" horiz-adv-x="1406" d="M31 481v31h278q8 -150 108.5 -239t270.5 -89q156 0 240 60t84 157q0 88 -64 132t-225 77l-188 41q-213 45 -312.5 142.5t-99.5 273.5q0 194 159 315t423 121q273 0 435 -123.5t175 -345.5v-30h-279q0 143 -88 214.5t-243 71.5q-135 0 -217 -56.5t-82 -150.5 q0 -81 56 -125t187 -71l189 -41q238 -53 347 -146t109 -266q0 -98 -38 -181.5t-112 -146.5t-191 -99t-265 -36q-152 0 -274.5 40t-202 110.5t-125 161.5t-55.5 198z" />
<glyph unicode="T" horiz-adv-x="1290" d="M20 1262v213h1250v-213h-482v-1262h-286v1262h-482z" />
<glyph unicode="U" horiz-adv-x="1454" d="M123 524v951h287v-971q0 -316 317 -316t317 316v971h287v-951q0 -261 -156 -407t-448 -146t-448 146t-156 407z" />
<glyph unicode="V" horiz-adv-x="1425" d="M20 1444v31h291l391 -1168h21l391 1168h291v-31l-522 -1444h-340z" />
<glyph unicode="W" horiz-adv-x="2101" d="M20 1444v31h299l242 -1086h21l336 1086h278l336 -1086h20l242 1086h287v-31l-348 -1444h-336l-330 1067h-20l-330 -1067h-336z" />
<glyph unicode="X" horiz-adv-x="1452" d="M10 0v31l529 723l-465 690v31h299l352 -549h20l388 549h299v-31l-504 -686l491 -727v-31h-301l-377 586h-20l-412 -586h-299z" />
<glyph unicode="Y" horiz-adv-x="1433" d="M0 1444v31h307l400 -682h20l399 682h308v-31l-574 -930v-514h-287v514z" />
<glyph unicode="Z" horiz-adv-x="1290" d="M72 0v164l762 1098h-732v213h1096v-164l-762 -1098h793v-213h-1157z" />
<glyph unicode="[" horiz-adv-x="686" d="M133 -410v1987h492v-188h-226v-1610h226v-189h-492z" />
<glyph unicode="\" horiz-adv-x="1298" d="M82 1444v31h274l861 -1444v-31h-275z" />
<glyph unicode="]" horiz-adv-x="686" d="M61 -221h226v1610h-226v188h492v-1987h-492v189z" />
<glyph unicode="^" horiz-adv-x="1085" d="M82 778v31l377 666h168l377 -666v-31h-230l-221 426h-21l-221 -426h-229z" />
<glyph unicode="_" horiz-adv-x="1146" d="M82 -61h983v-218h-983v218z" />
<glyph unicode="`" horiz-adv-x="759" d="M164 1444v31h291l141 -246v-31h-219z" />
<glyph unicode="a" horiz-adv-x="1183" d="M61 289q0 132 95.5 212.5t253.5 98.5l409 43v37q0 205 -225 205q-110 0 -174 -49t-70 -140h-258v31q23 164 160 261t346 97q225 0 354 -110.5t129 -319.5v-655h-254v133h-20q-105 -153 -346 -153q-189 0 -294.5 83.5t-105.5 225.5zM332 315q0 -65 52 -100t144 -35 q126 0 208.5 74t82.5 199v14l-334 -35q-71 -8 -112 -38.5t-41 -78.5z" />
<glyph unicode="b" horiz-adv-x="1275" d="M113 0v1475h266v-502h20q108 114 312 114q226 0 364.5 -151t138.5 -404q0 -252 -140 -402t-367 -150q-212 0 -324 133h-21l-40 -113h-209zM358 532q0 -166 77.5 -257t215.5 -91t215.5 91t77.5 257t-78 257.5t-215 91.5t-215 -91.5t-78 -257.5z" />
<glyph unicode="c" horiz-adv-x="1193" d="M61 532q0 257 159 407.5t409 150.5q110 0 200.5 -30t150 -81.5t96.5 -115t50 -136.5v-31h-245q-41 189 -250 189q-138 0 -218.5 -92t-80.5 -261t82 -260.5t225 -91.5q113 0 178.5 59t79.5 160h246v-30q-30 -166 -165.5 -280t-348.5 -114q-250 0 -409 150t-159 407z" />
<glyph unicode="d" horiz-adv-x="1275" d="M61 532q0 253 139.5 404t368.5 151q206 0 308 -114h20v502h266v-1475h-258v113h-20q-109 -133 -326 -133q-221 0 -359.5 150.5t-138.5 401.5zM332 532q0 -166 77.5 -257t215.5 -91t215.5 91t77.5 257t-78 257.5t-215 91.5t-215 -91.5t-78 -257.5z" />
<glyph unicode="e" horiz-adv-x="1189" d="M61 532q0 257 153 405t396 148q229 0 373.5 -139t144.5 -375v-114h-796q5 -126 80 -201.5t202 -75.5q204 0 250 168h254v-31q-12 -48 -36.5 -94.5t-67.5 -92t-98 -79.5t-133 -55t-167 -21q-252 0 -403.5 148t-151.5 409zM332 645h536q-5 112 -70.5 176t-187.5 64 q-127 0 -196.5 -63t-81.5 -177z" />
<glyph unicode="f" horiz-adv-x="819" d="M20 877v188h238v123q0 140 75.5 213.5t221.5 73.5h295v-189h-305l-21 -20v-201h264v-188h-264v-877h-266v877h-238z" />
<glyph unicode="g" horiz-adv-x="1271" d="M61 -51h263q26 -82 96 -132t192 -50q141 0 215 69t74 195v110h-22q-106 -121 -306 -121q-229 0 -370.5 144.5t-141.5 388.5t141 388t371 144q210 0 316 -133h20l41 113h209v-1014q0 -240 -138.5 -362.5t-412.5 -122.5q-125 0 -226.5 31.5t-165.5 84.5t-102 112t-53 124 v31zM332 553q0 -157 77.5 -242.5t213.5 -85.5t213 85.5t77 242.5t-77 242.5t-213 85.5t-213.5 -85.5t-77.5 -242.5z" />
<glyph unicode="h" d="M113 0v1475h266v-533h20q94 143 332 143q72 0 140 -22t126 -65t93.5 -118.5t35.5 -172.5v-707h-266v686q0 101 -54 150t-151 49q-130 0 -203 -82t-73 -236v-567h-266z" />
<glyph unicode="i" horiz-adv-x="491" d="M86 1198v246h320v-246h-320zM113 0v1065h266v-1065h-266z" />
<glyph unicode="j" horiz-adv-x="532" d="M-123 -213h256l21 20v1258h266v-1198q0 -131 -75.5 -204t-211.5 -73h-256v197zM127 1198v246h319v-246h-319z" />
<glyph unicode="k" horiz-adv-x="1202" d="M113 0v1475h266v-826h20l463 416h320v-31l-428 -377l428 -626v-31h-287l-326 496l-190 -168v-328h-266z" />
<glyph unicode="l" horiz-adv-x="491" d="M113 0v1475h266v-1475h-266z" />
<glyph unicode="m" horiz-adv-x="1873" d="M113 0v1065h249v-123h21q94 143 313 143q201 0 318 -167h20q115 167 357 167q169 0 275 -98.5t106 -267.5v-719h-267v698q0 187 -190 187q-112 0 -176 -66t-64 -186v-633h-266v698q0 92 -48.5 139.5t-142.5 47.5q-111 0 -175 -66t-64 -186v-633h-266z" />
<glyph unicode="n" d="M113 0v1065h254v-154h20q89 174 344 174q72 0 140 -22t126 -65t93.5 -118.5t35.5 -172.5v-707h-266v686q0 101 -54 150t-151 49q-130 0 -203 -82t-73 -236v-567h-266z" />
<glyph unicode="o" horiz-adv-x="1249" d="M61 532q0 257 157 405t407 148t406.5 -148t156.5 -405t-156.5 -404.5t-406.5 -147.5t-407 147.5t-157 404.5zM332 532q0 -166 76.5 -257t216.5 -91t216.5 91t76.5 257t-77 257.5t-216 91.5t-216 -91.5t-77 -257.5z" />
<glyph unicode="p" horiz-adv-x="1275" d="M113 -410v1475h258v-113h20q109 133 326 133q221 0 359 -151t138 -402q0 -250 -144.5 -401t-373.5 -151q-191 0 -297 112h-20v-502h-266zM358 532q0 -166 77.5 -257t215.5 -91t215.5 91t77.5 257t-78 257.5t-215 91.5t-215 -91.5t-78 -257.5z" />
<glyph unicode="q" horiz-adv-x="1275" d="M61 532q0 252 140.5 402.5t367.5 150.5q218 0 324 -133h20l41 113h209v-1475h-266v502h-20q-106 -112 -297 -112q-229 0 -374 151t-145 401zM332 532q0 -166 77.5 -257t215.5 -91t215.5 91t77.5 257t-78 257.5t-215 91.5t-215 -91.5t-78 -257.5z" />
<glyph unicode="r" horiz-adv-x="788" d="M113 0v1065h254v-133h20q55 137 258 137h113v-221h-133q-129 0 -187.5 -64t-58.5 -206v-578h-266z" />
<glyph unicode="s" horiz-adv-x="1093" d="M41 336v31h258q5 -88 75 -139.5t187 -51.5q105 0 164 34t59 95q0 47 -38 71t-128 42l-217 39q-156 26 -236.5 95t-80.5 202q0 143 125 237t340 94q217 0 340.5 -90t142.5 -247v-31h-252q-6 176 -229 176q-100 0 -154.5 -34t-54.5 -91q0 -81 121 -102l217 -39 q178 -33 270 -102.5t92 -198.5q0 -152 -126 -249t-359 -97q-230 0 -366.5 101t-149.5 255z" />
<glyph unicode="t" horiz-adv-x="866" d="M20 877v188h238v215l236 154h30v-369h275v-188h-275v-660l21 -20h270v-197h-291q-123 0 -194.5 71.5t-71.5 194.5v611h-238z" />
<glyph unicode="u" d="M102 358v707h267v-686q0 -101 53.5 -150t150.5 -49q131 0 204 82t73 236v567h266v-1065h-254v154h-20q-86 -174 -344 -174q-57 0 -112 13t-107 42.5t-91 72.5t-62.5 107.5t-23.5 142.5z" />
<glyph unicode="v" horiz-adv-x="1134" d="M10 1034v31h275l272 -727h21l272 727h274v-31l-417 -1034h-279z" />
<glyph unicode="w" horiz-adv-x="1622" d="M31 1034v31h258l172 -717h20l205 717h250l205 -717h20l172 717h258v-31l-276 -1034h-291l-203 707h-20l-203 -707h-291z" />
<glyph unicode="x" horiz-adv-x="1185" d="M20 0v31l396 534l-324 469v31h279l219 -340h20l244 340h281v-31l-365 -491l354 -512v-31h-280l-248 383h-21l-274 -383h-281z" />
<glyph unicode="y" horiz-adv-x="1175" d="M31 1034v31h274l283 -758h20l283 758h274v-31l-491 -1212q-51 -129 -132 -180.5t-235 -51.5h-235v197h303l24 16l66 154z" />
<glyph unicode="z" horiz-adv-x="1060" d="M72 0v178l549 682h-529v205h866v-174l-548 -682h579v-209h-917z" />
<glyph unicode="{" horiz-adv-x="843" d="M61 489v189q124 0 177 38t53 140v506q0 215 235 215h256v-188h-209l-16 -17v-512q0 -105 -56 -174t-159 -92v-21q103 -23 159 -92t56 -174v-512l16 -16h209v-189h-256q-235 0 -235 215v506q0 104 -52.5 141t-177.5 37z" />
<glyph unicode="|" horiz-adv-x="593" d="M164 -410v1885h266v-1885h-266z" />
<glyph unicode="}" horiz-adv-x="843" d="M61 -221h209l17 16v512q0 105 56 174t159 92v21q-103 23 -159 92t-56 174v512l-17 17h-209v188h256q236 0 236 -215v-506q0 -102 53 -140t176 -38v-189q-125 0 -177 -36.5t-52 -141.5v-506q0 -215 -236 -215h-256v189z" />
<glyph unicode="~" horiz-adv-x="1474" d="M205 358v31q6 170 88.5 264.5t218.5 94.5q73 0 129.5 -21.5t132.5 -69.5q98 -61 158 -61q119 0 129 131h209v-31q-4 -170 -87 -264t-220 -94q-73 0 -130.5 21.5t-132.5 68.5q-98 61 -157 61q-119 0 -129 -131h-209z" />
<glyph unicode="&#xa1;" horiz-adv-x="552" d="M113 778v287h327v-287h-327zM135 0l45 610h185l45 -610v-410h-275v410z" />
<glyph unicode="&#xa2;" horiz-adv-x="1193" d="M61 532q0 222 117.5 365t319.5 180v213h245v-209q161 -25 260 -122t123 -232v-31h-245q-41 189 -250 189q-138 0 -218.5 -92t-80.5 -261t82 -260.5t225 -91.5q113 0 178.5 59t79.5 160h246v-30q-26 -144 -131.5 -249.5t-268.5 -133.5v-211h-245v213q-202 37 -319.5 179.5 t-117.5 364.5z" />
<glyph unicode="&#xa3;" horiz-adv-x="1296" d="M61 623v196h164l-12 64q-12 67 -12 125q0 113 43.5 207.5t116.5 155.5t167 94.5t197 33.5q229 0 375 -126.5t155 -348.5h-278q-6 120 -69 185t-179 65q-117 0 -183.5 -65.5t-66.5 -196.5q0 -48 13 -121l14 -72h289v-196h-254q12 -74 12 -136q0 -96 -34 -161.5 t-111 -108.5h835v-217h-1130v193q87 56 124 124t37 166q0 63 -12 140h-201z" />
<glyph unicode="&#xa4;" horiz-adv-x="1482" d="M61 12l209 207q-102 144 -102 316q0 175 102 313l-209 207l150 149l211 -209q147 99 319 99q173 0 320 -99l211 209l149 -149l-209 -207q103 -139 103 -313q0 -171 -103 -316l209 -207l-149 -149l-211 209q-148 -97 -320 -97q-171 0 -319 97l-211 -209zM410 535 q0 -151 93.5 -246.5t237.5 -95.5t238 95.5t94 246.5t-94 246.5t-238 95.5t-237.5 -95.5t-93.5 -246.5z" />
<glyph unicode="&#xa5;" horiz-adv-x="1433" d="M0 1444v31h307l400 -682h20l399 682h308v-31l-445 -719h219v-188h-348v-103h348v-188h-348v-246h-287v246h-348v188h348v103h-348v188h219z" />
<glyph unicode="&#xa6;" horiz-adv-x="593" d="M164 242h266v-652h-266v652zM164 823v652h266v-652h-266z" />
<glyph unicode="&#xa7;" horiz-adv-x="1236" d="M61 633q0 97 47.5 167.5t116.5 106.5v21q-75 81 -75 205q0 161 130.5 265.5t340.5 104.5q202 0 332 -101t149 -259v-31h-262q-10 85 -68.5 131.5t-150.5 46.5q-87 0 -140 -40.5t-53 -102.5q0 -63 39 -94t143 -64l197 -63q188 -63 278.5 -150t90.5 -225 q0 -96 -46.5 -165.5t-117.5 -111.5v-20q75 -78 75 -203q0 -161 -130.5 -265.5t-340.5 -104.5q-206 0 -337.5 102.5t-155.5 269.5v31h270q13 -91 72 -140.5t151 -49.5q87 0 140 40.5t53 102.5q0 63 -39 94t-143 64l-197 63q-188 63 -278.5 150t-90.5 225zM305 676 q0 -70 41 -110.5t131 -71.5l359 -117q96 38 96 131q0 70 -41 110.5t-131 71.5l-359 117q-96 -38 -96 -131z" />
<glyph unicode="&#xa8;" horiz-adv-x="1081" d="M193 1198v246h286v-246h-286zM602 1198v246h287v-246h-287z" />
<glyph unicode="&#xa9;" horiz-adv-x="1667" d="M72 737q-3 155 56.5 297.5t162 244.5t245 162t298.5 58q155 2 297 -58t244.5 -162t162 -244.5t57.5 -297.5q2 -156 -57.5 -298.5t-162 -245t-244.5 -162t-297 -56.5q-156 -3 -298.5 56.5t-245 162t-162 245t-56.5 298.5zM158 737q-1 -140 51 -266.5t142 -218 t216.5 -144.5t266.5 -51q139 -2 265.5 51t217 144.5t142.5 218t50 266.5q2 140 -50 266.5t-142.5 218t-217 144.5t-265.5 51q-140 2 -266.5 -51t-216.5 -144.5t-142 -218t-51 -266.5zM465 739q0 180 108.5 295t276.5 115q130 0 216.5 -69t107.5 -177v-31h-82q-14 87 -79 141 t-163 54q-134 0 -216.5 -89.5t-82.5 -238.5q0 -148 82.5 -237.5t216.5 -89.5q104 0 168.5 53t83.5 149h82v-30q-21 -111 -111.5 -182.5t-222.5 -71.5q-168 0 -276.5 115t-108.5 294z" />
<glyph unicode="&#xab;" horiz-adv-x="1099" d="M51 520v29l271 348h266v-31l-260 -331l260 -332v-31h-266zM461 520v29l270 348h266v-31l-260 -331l260 -332v-31h-266z" />
<glyph unicode="&#xad;" horiz-adv-x="819" d="M123 422v217h573v-217h-573z" />
<glyph unicode="&#xae;" horiz-adv-x="1667" d="M72 737q-3 155 56.5 297.5t162 244.5t245 162t298.5 58q155 2 297 -58t244.5 -162t162 -244.5t57.5 -297.5q2 -156 -57.5 -298.5t-162 -245t-244.5 -162t-297 -56.5q-156 -3 -298.5 56.5t-245 162t-162 245t-56.5 298.5zM158 737q-1 -140 51 -266.5t142 -218 t216.5 -144.5t266.5 -51q139 -2 265.5 51t217 144.5t142.5 218t50 266.5q2 140 -50 266.5t-142.5 218t-217 144.5t-265.5 51q-140 2 -266.5 -51t-216.5 -144.5t-142 -218t-51 -266.5zM563 340v799h373q105 0 169 -63t64 -167q0 -99 -59 -161t-158 -68l164 -309v-31h-84 l-176 340h-207v-340h-86zM649 762h269q80 0 122.5 37.5t42.5 109.5t-42.5 110t-122.5 38h-269v-295z" />
<glyph unicode="&#xaf;" horiz-adv-x="983" d="M154 1198v188h675v-188h-675z" />
<glyph unicode="&#xb0;" horiz-adv-x="909" d="M82 1151q0 151 106 251.5t267 100.5t266.5 -100.5t105.5 -251.5q0 -150 -106 -251t-266 -101q-161 0 -267 101t-106 251zM299 1151q0 -68 44.5 -114t111.5 -46t111 46t44 114q0 70 -43.5 115t-111.5 45q-69 0 -112.5 -45.5t-43.5 -114.5z" />
<glyph unicode="&#xb1;" horiz-adv-x="1474" d="M215 0v225h1045v-225h-1045zM215 666v225h410v358h225v-358h410v-225h-410v-359h-225v359h-410z" />
<glyph unicode="&#xb4;" horiz-adv-x="759" d="M164 1198v31l141 246h291v-31l-213 -246h-219z" />
<glyph unicode="&#xb6;" horiz-adv-x="1658" d="M123 1051q0 183 130.5 303.5t321.5 120.5h1002v-213h-197v-1262h-282v1262h-180v-1262h-283v627h-60q-191 0 -321.5 120.5t-130.5 303.5z" />
<glyph unicode="&#xb7;" horiz-adv-x="471" d="M72 436v287h327v-287h-327z" />
<glyph unicode="&#xb8;" horiz-adv-x="784" d="M139 -209h31q78 -45 129.5 -63.5t110.5 -18.5q40 0 63 17t23 43q0 51 -70 51h-143v30l26 150h140l-19 -88l35 2q86 6 144.5 -32.5t58.5 -114.5q0 -88 -73.5 -142.5t-191.5 -54.5q-125 0 -264 65v156z" />
<glyph unicode="&#xbb;" horiz-adv-x="1099" d="M102 172v31l260 332l-260 331v31h267l270 -348v-29l-270 -348h-267zM512 172v31l260 332l-260 331v31h266l271 -348v-29l-271 -348h-266z" />
<glyph unicode="&#xbf;" horiz-adv-x="1191" d="M51 -25q0 65 18.5 119.5t55.5 100t83.5 82t113.5 75.5l145 86l10 21v73l21 103h225l20 -103v-20q0 -101 -32.5 -159t-122.5 -111l-60 -35q-69 -41 -91.5 -55.5t-49.5 -37t-43 -48.5q-27 -40 -27 -95q0 -86 72.5 -137t194.5 -51q135 0 217 65.5t88 192.5h262v-31 q-12 -199 -168.5 -321.5t-398.5 -122.5q-240 0 -386.5 116.5t-146.5 292.5zM444 778v287h328v-287h-328z" />
<glyph unicode="&#xc0;" horiz-adv-x="1425" d="M20 0v31l523 1444h340l522 -1444v-31h-291l-117 350h-569l-117 -350h-291zM381 1782v41h338l166 -215v-41h-240zM502 567h422l-201 600h-21z" />
<glyph unicode="&#xc1;" horiz-adv-x="1425" d="M20 0v31l523 1444h340l522 -1444v-31h-291l-117 350h-569l-117 -350h-291zM502 567h422l-201 600h-21zM541 1567v41l166 215h337v-41l-264 -215h-239z" />
<glyph unicode="&#xc2;" horiz-adv-x="1425" d="M20 0v31l523 1444h340l522 -1444v-31h-291l-117 350h-569l-117 -350h-291zM295 1567v41l248 215h340l247 -215v-41h-274l-143 123l-144 -123h-274zM502 567h422l-201 600h-21z" />
<glyph unicode="&#xc3;" horiz-adv-x="1425" d="M20 0v31l523 1444h340l522 -1444v-31h-291l-117 350h-569l-117 -350h-291zM311 1587v31q21 101 89 163t173 62q41 0 70.5 -8.5t83.5 -32.5q69 -35 113 -35q81 0 102 76h172v-31q-21 -101 -89 -163t-173 -62q-41 0 -70.5 8.5t-83.5 32.5q-66 35 -112 35q-82 0 -103 -76 h-172zM502 567h422l-201 600h-21z" />
<glyph unicode="&#xc4;" horiz-adv-x="1425" d="M20 0v31l523 1444h340l522 -1444v-31h-291l-117 350h-569l-117 -350h-291zM332 1567v256h319v-256h-319zM502 567h422l-201 600h-21zM774 1567v256h320v-256h-320z" />
<glyph unicode="&#xc5;" horiz-adv-x="1425" d="M20 0v31l523 1444h340l522 -1444v-31h-291l-117 350h-569l-117 -350h-291zM496 1735q0 91 61.5 150t155.5 59t155.5 -59t61.5 -150t-61.5 -150t-155.5 -59t-155.5 59t-61.5 150zM502 567h422l-201 600h-21zM643 1735q0 -31 19.5 -49.5t50.5 -18.5t50 18.5t19 49.5t-19 49 t-50 18t-50.5 -18.5t-19.5 -48.5z" />
<glyph unicode="&#xc6;" horiz-adv-x="1994" d="M20 0v31l732 1444h1140v-213h-680v-398h578v-213h-578v-438h732v-213h-1014v350h-449l-166 -350h-295zM586 567h344v686h-21z" />
<glyph unicode="&#xc7;" horiz-adv-x="1613" d="M72 737q-2 143 40 267.5t117.5 215.5t175.5 156t216 97t237 30q125 2 235 -30t187 -84.5t135 -120.5t88.5 -138t38.5 -137v-30h-282q-14 147 -119 235t-283 88q-224 0 -358.5 -143.5t-141.5 -405.5q0 -130 38 -235.5t105 -173t156.5 -104t192.5 -36.5q185 0 291.5 88.5 t138.5 245.5h283v-30q-32 -202 -200 -347.5t-429 -169.5l-12 -63l34 2q86 6 144.5 -32.5t58.5 -114.5q0 -88 -73 -142.5t-191 -54.5q-125 0 -264 65v156h31q79 -45 129.5 -63.5t109.5 -18.5q40 0 63 17t23 43q0 51 -69 51h-144v30l23 123q-96 4 -187 29.5t-172.5 70.5 t-149 111t-116.5 148t-75 185.5t-25 219.5z" />
<glyph unicode="&#xc8;" horiz-adv-x="1280" d="M133 0v1475h1045v-213h-762v-398h659v-213h-659v-438h813v-213h-1096zM324 1782v41h338l165 -215v-41h-239z" />
<glyph unicode="&#xc9;" horiz-adv-x="1280" d="M133 0v1475h1045v-213h-762v-398h659v-213h-659v-438h813v-213h-1096zM483 1567v41l166 215h338v-41l-264 -215h-240z" />
<glyph unicode="&#xca;" horiz-adv-x="1280" d="M133 0v1475h1045v-213h-762v-398h659v-213h-659v-438h813v-213h-1096zM238 1567v41l247 215h340l248 -215v-41h-274l-144 123l-143 -123h-274z" />
<glyph unicode="&#xcb;" horiz-adv-x="1280" d="M133 0v1475h1045v-213h-762v-398h659v-213h-659v-438h813v-213h-1096zM274 1567v256h320v-256h-320zM717 1567v256h319v-256h-319z" />
<glyph unicode="&#xcc;" horiz-adv-x="552" d="M-55 1782v41h338l166 -215v-41h-240zM133 0v1475h287v-1475h-287z" />
<glyph unicode="&#xcd;" horiz-adv-x="552" d="M104 1567v41l166 215h338v-41l-264 -215h-240zM133 0v1475h287v-1475h-287z" />
<glyph unicode="&#xce;" horiz-adv-x="552" d="M-141 1567v41l247 215h340l248 -215v-41h-274l-144 123l-143 -123h-274zM133 0v1475h287v-1475h-287z" />
<glyph unicode="&#xcf;" horiz-adv-x="552" d="M-104 1567v256h319v-256h-319zM133 0v1475h287v-1475h-287zM338 1567v256h319v-256h-319z" />
<glyph unicode="&#xd0;" horiz-adv-x="1556" d="M20 666v163h175v646h561q345 0 537 -195.5t192 -542.5t-192 -542t-537 -195h-561v666h-175zM477 217h287q438 0 438 520q0 259 -110.5 389.5t-327.5 130.5h-287v-428h246v-163h-246v-449z" />
<glyph unicode="&#xd1;" horiz-adv-x="1515" d="M133 0v1475h328l622 -1055h21v1055h278v-1475h-327l-623 1055h-20v-1055h-279zM371 1587v31q21 101 89 163t173 62q41 0 70 -8t83 -33q69 -35 113 -35q81 0 102 76h173v-31q-21 -101 -89.5 -163t-173.5 -62q-41 0 -70 8t-83 33q-66 35 -113 35q-81 0 -102 -76h-172z" />
<glyph unicode="&#xd2;" horiz-adv-x="1724" d="M72 737q0 232 98.5 406t277.5 267t414 93t414 -93t278 -267t99 -406t-99 -406t-278 -267t-414 -93t-414 93t-277.5 267t-98.5 406zM358 737q0 -250 131.5 -395t372.5 -145t372.5 145t131.5 395t-131.5 395.5t-372.5 145.5t-372.5 -145.5t-131.5 -395.5zM530 1782v41h338 l166 -215v-41h-239z" />
<glyph unicode="&#xd3;" horiz-adv-x="1724" d="M72 737q0 232 98.5 406t277.5 267t414 93t414 -93t278 -267t99 -406t-99 -406t-278 -267t-414 -93t-414 93t-277.5 267t-98.5 406zM358 737q0 -250 131.5 -395t372.5 -145t372.5 145t131.5 395t-131.5 395.5t-372.5 145.5t-372.5 -145.5t-131.5 -395.5zM690 1567v41 l166 215h338v-41l-264 -215h-240z" />
<glyph unicode="&#xd4;" horiz-adv-x="1724" d="M72 737q0 232 98.5 406t277.5 267t414 93t414 -93t278 -267t99 -406t-99 -406t-278 -267t-414 -93t-414 93t-277.5 267t-98.5 406zM358 737q0 -250 131.5 -395t372.5 -145t372.5 145t131.5 395t-131.5 395.5t-372.5 145.5t-372.5 -145.5t-131.5 -395.5zM444 1567v41 l248 215h340l248 -215v-41h-274l-144 123l-143 -123h-275z" />
<glyph unicode="&#xd5;" horiz-adv-x="1724" d="M72 737q0 232 98.5 406t277.5 267t414 93t414 -93t278 -267t99 -406t-99 -406t-278 -267t-414 -93t-414 93t-277.5 267t-98.5 406zM358 737q0 -250 131.5 -395t372.5 -145t372.5 145t131.5 395t-131.5 395.5t-372.5 145.5t-372.5 -145.5t-131.5 -395.5zM461 1587v31 q21 101 89 163t173 62q41 0 70.5 -8.5t83.5 -32.5q40 -20 62 -27.5t50 -7.5q82 0 103 76h172v-31q-21 -101 -89.5 -163t-173.5 -62q-41 0 -70 8t-83 33q-66 35 -113 35q-81 0 -102 -76h-172z" />
<glyph unicode="&#xd6;" horiz-adv-x="1724" d="M72 737q0 232 98.5 406t277.5 267t414 93t414 -93t278 -267t99 -406t-99 -406t-278 -267t-414 -93t-414 93t-277.5 267t-98.5 406zM358 737q0 -250 131.5 -395t372.5 -145t372.5 145t131.5 395t-131.5 395.5t-372.5 145.5t-372.5 -145.5t-131.5 -395.5zM481 1567v256h320 v-256h-320zM924 1567v256h319v-256h-319z" />
<glyph unicode="&#xd7;" horiz-adv-x="1474" d="M246 201l342 342l-342 342l149 149l342 -342l342 342l150 -149l-342 -342l342 -342l-150 -150l-342 342l-342 -342z" />
<glyph unicode="&#xd8;" horiz-adv-x="1724" d="M72 737q0 232 98.5 406t277.5 267t414 93q307 0 514 -157l123 129h84v-52l-133 -141q203 -206 203 -545q0 -232 -99 -406t-278 -267t-414 -93q-306 0 -514 158l-123 -129h-84v51l133 142q-202 205 -202 544zM358 737q0 -216 99 -354l745 780q-127 115 -340 115 q-241 0 -372.5 -145.5t-131.5 -395.5zM522 311q126 -114 340 -114q241 0 372.5 145t131.5 395q0 218 -98 355z" />
<glyph unicode="&#xd9;" horiz-adv-x="1454" d="M123 524v951h287v-971q0 -316 317 -316t317 316v971h287v-951q0 -261 -156 -407t-448 -146t-448 146t-156 407zM395 1782v41h338l166 -215v-41h-240z" />
<glyph unicode="&#xda;" horiz-adv-x="1454" d="M123 524v951h287v-971q0 -316 317 -316t317 316v971h287v-951q0 -261 -156 -407t-448 -146t-448 146t-156 407zM555 1567v41l166 215h338v-41l-264 -215h-240z" />
<glyph unicode="&#xdb;" horiz-adv-x="1454" d="M123 524v951h287v-971q0 -316 317 -316t317 316v971h287v-951q0 -261 -156 -407t-448 -146t-448 146t-156 407zM309 1567v41l248 215h340l248 -215v-41h-275l-143 123l-143 -123h-275z" />
<glyph unicode="&#xdc;" horiz-adv-x="1454" d="M123 524v951h287v-971q0 -316 317 -316t317 316v971h287v-951q0 -261 -156 -407t-448 -146t-448 146t-156 407zM346 1567v256h320v-256h-320zM788 1567v256h320v-256h-320z" />
<glyph unicode="&#xdd;" horiz-adv-x="1433" d="M0 1444v31h307l400 -682h20l399 682h308v-31l-574 -930v-514h-287v514zM545 1567v41l166 215h338v-41l-265 -215h-239z" />
<glyph unicode="&#xde;" horiz-adv-x="1341" d="M133 0v1475h283v-271h387q219 0 353 -120t134 -324t-134 -324.5t-353 -120.5h-387v-315h-283zM416 528h356q110 0 173 61.5t63 170.5t-63 170t-173 61h-356v-463z" />
<glyph unicode="&#xdf;" horiz-adv-x="1312" d="M113 0v954q0 167 73.5 292t199 189t284.5 64q195 0 326.5 -95t131.5 -239q-2 -63 -16.5 -109t-47 -84.5t-69.5 -66.5t-100 -67q-21 -12 -29 -23t-8 -29q0 -20 10 -29.5t47 -29.5l72 -39q65 -37 106 -64t79.5 -60.5t60 -68t34.5 -79t15 -99.5q0 -148 -118 -245t-302 -97 q-177 0 -295 91t-127 231v31h250q4 -70 51 -109t121 -39q69 0 113.5 38t44.5 99q0 69 -59 117q-34 21 -87 51l-88 52q-104 61 -147 112t-43 119q0 65 30 110t105 95q75 51 105 88.5t30 91.5q0 64 -53 102.5t-143 38.5q-54 0 -104.5 -19.5t-93 -58t-68 -104t-25.5 -149.5 v-963h-266z" />
<glyph unicode="&#xe0;" horiz-adv-x="1183" d="M61 289q0 132 95.5 212.5t253.5 98.5l409 43v37q0 205 -225 205q-110 0 -174 -49t-70 -140h-258v31q23 164 160 261t346 97q225 0 354 -110.5t129 -319.5v-655h-254v133h-20q-105 -153 -346 -153q-189 0 -294.5 83.5t-105.5 225.5zM305 1444v31h291l141 -246v-31h-219z M332 315q0 -65 52 -100t144 -35q126 0 208.5 74t82.5 199v14l-334 -35q-71 -8 -112 -38.5t-41 -78.5z" />
<glyph unicode="&#xe1;" horiz-adv-x="1183" d="M61 289q0 132 95.5 212.5t253.5 98.5l409 43v37q0 205 -225 205q-110 0 -174 -49t-70 -140h-258v31q23 164 160 261t346 97q225 0 354 -110.5t129 -319.5v-655h-254v133h-20q-105 -153 -346 -153q-189 0 -294.5 83.5t-105.5 225.5zM332 315q0 -65 52 -100t144 -35 q126 0 208.5 74t82.5 199v14l-334 -35q-71 -8 -112 -38.5t-41 -78.5zM426 1198v31l141 246h291v-31l-213 -246h-219z" />
<glyph unicode="&#xe2;" horiz-adv-x="1183" d="M61 289q0 132 95.5 212.5t253.5 98.5l409 43v37q0 205 -225 205q-110 0 -174 -49t-70 -140h-258v31q23 164 160 261t346 97q225 0 354 -110.5t129 -319.5v-655h-254v133h-20q-105 -153 -346 -153q-189 0 -294.5 83.5t-105.5 225.5zM244 1198v31l205 246h286l205 -246v-31 h-225l-123 143l-123 -143h-225zM332 315q0 -65 52 -100t144 -35q126 0 208.5 74t82.5 199v14l-334 -35q-71 -8 -112 -38.5t-41 -78.5z" />
<glyph unicode="&#xe3;" horiz-adv-x="1183" d="M61 289q0 132 95.5 212.5t253.5 98.5l409 43v37q0 205 -225 205q-110 0 -174 -49t-70 -140h-258v31q23 164 160 261t346 97q225 0 354 -110.5t129 -319.5v-655h-254v133h-20q-105 -153 -346 -153q-189 0 -294.5 83.5t-105.5 225.5zM193 1192v31q21 101 89 163t173 62 q41 0 70 -8t83 -33q69 -35 113 -35q81 0 102 76h172v-31q-21 -101 -89 -163t-173 -62q-41 0 -70 8t-83 33q-69 35 -113 35q-81 0 -102 -76h-172zM332 315q0 -65 52 -100t144 -35q126 0 208.5 74t82.5 199v14l-334 -35q-71 -8 -112 -38.5t-41 -78.5z" />
<glyph unicode="&#xe4;" horiz-adv-x="1183" d="M61 289q0 132 95.5 212.5t253.5 98.5l409 43v37q0 205 -225 205q-110 0 -174 -49t-70 -140h-258v31q23 164 160 261t346 97q225 0 354 -110.5t129 -319.5v-655h-254v133h-20q-105 -153 -346 -153q-189 0 -294.5 83.5t-105.5 225.5zM246 1198v246h286v-246h-286zM332 315 q0 -65 52 -100t144 -35q126 0 208.5 74t82.5 199v14l-334 -35q-71 -8 -112 -38.5t-41 -78.5zM655 1198v246h287v-246h-287z" />
<glyph unicode="&#xe5;" horiz-adv-x="1183" d="M61 289q0 132 95.5 212.5t253.5 98.5l409 43v37q0 205 -225 205q-110 0 -174 -49t-70 -140h-258v31q23 164 160 261t346 97q225 0 354 -110.5t129 -319.5v-655h-254v133h-20q-105 -153 -346 -153q-189 0 -294.5 83.5t-105.5 225.5zM332 315q0 -65 52 -100t144 -35 q126 0 208.5 74t82.5 199v14l-334 -35q-71 -8 -112 -38.5t-41 -78.5zM387 1323q0 81 60 134.5t147 53.5t147 -53.5t60 -134.5t-60 -134.5t-147 -53.5t-147 53.5t-60 134.5zM516 1323q0 -34 22.5 -55t55.5 -21t55.5 21t22.5 55t-22.5 55t-55.5 21t-55.5 -21t-22.5 -55z" />
<glyph unicode="&#xe6;" horiz-adv-x="1935" d="M61 313q0 159 112 241.5t323 82.5h319v43q0 205 -225 205q-110 0 -173.5 -45.5t-70.5 -132.5h-258v30q26 159 162 253.5t340 94.5q116 0 213.5 -49.5t152.5 -130.5h21q62 84 159.5 132t219.5 48q229 0 373.5 -139t144.5 -375v-114h-797q5 -126 80 -201.5t203 -75.5 q204 0 250 168h254v-31q-12 -48 -36.5 -94.5t-67.5 -92t-98 -79.5t-133 -55t-167 -21q-283 0 -420 195h-20q-65 -94 -165 -142t-249 -48q-203 0 -325 94.5t-122 238.5zM328 330q0 -68 53.5 -107t146.5 -39q136 0 211.5 70t75.5 203h-307q-86 0 -133 -34.5t-47 -92.5z M1077 637h537q-5 114 -71 181t-187 67q-127 0 -197 -64.5t-82 -183.5z" />
<glyph unicode="&#xe7;" horiz-adv-x="1193" d="M61 532q0 257 159 407.5t409 150.5q110 0 200.5 -30t150 -81.5t96.5 -115t50 -136.5v-31h-245q-41 189 -250 189q-138 0 -218.5 -92t-80.5 -261t82 -260.5t225 -91.5q113 0 178.5 59t79.5 160h246v-30q-27 -148 -142 -260q-117 -114 -307 -132l-14 -65l35 2 q86 6 144.5 -32.5t58.5 -114.5q0 -88 -73.5 -142.5t-191.5 -54.5q-125 0 -264 65v156h31q79 -45 129.5 -63.5t109.5 -18.5q40 0 63 17t23 43q0 51 -69 51h-144v30l23 130q-221 21 -356 165q-138 144 -138 387z" />
<glyph unicode="&#xe8;" horiz-adv-x="1189" d="M61 532q0 257 153 405t396 148q229 0 373.5 -139t144.5 -375v-114h-796q5 -126 80 -201.5t202 -75.5q204 0 250 168h254v-31q-12 -48 -36.5 -94.5t-67.5 -92t-98 -79.5t-133 -55t-167 -21q-252 0 -403.5 148t-151.5 409zM328 1444v31h290l142 -246v-31h-219zM332 645h536 q-5 112 -70.5 176t-187.5 64q-127 0 -196.5 -63t-81.5 -177z" />
<glyph unicode="&#xe9;" horiz-adv-x="1189" d="M61 532q0 257 153 405t396 148q229 0 373.5 -139t144.5 -375v-114h-796q5 -126 80 -201.5t202 -75.5q204 0 250 168h254v-31q-12 -48 -36.5 -94.5t-67.5 -92t-98 -79.5t-133 -55t-167 -21q-252 0 -403.5 148t-151.5 409zM332 645h536q-5 112 -70.5 176t-187.5 64 q-127 0 -196.5 -63t-81.5 -177zM449 1198v31l141 246h291v-31l-213 -246h-219z" />
<glyph unicode="&#xea;" horiz-adv-x="1189" d="M61 532q0 257 153 405t396 148q229 0 373.5 -139t144.5 -375v-114h-796q5 -126 80 -201.5t202 -75.5q204 0 250 168h254v-31q-12 -48 -36.5 -94.5t-67.5 -92t-98 -79.5t-133 -55t-167 -21q-252 0 -403.5 148t-151.5 409zM266 1198v31l205 246h287l205 -246v-31h-226 l-123 143l-122 -143h-226zM332 645h536q-5 112 -70.5 176t-187.5 64q-127 0 -196.5 -63t-81.5 -177z" />
<glyph unicode="&#xeb;" horiz-adv-x="1189" d="M61 532q0 257 153 405t396 148q229 0 373.5 -139t144.5 -375v-114h-796q5 -126 80 -201.5t202 -75.5q204 0 250 168h254v-31q-12 -48 -36.5 -94.5t-67.5 -92t-98 -79.5t-133 -55t-167 -21q-252 0 -403.5 148t-151.5 409zM268 1198v246h287v-246h-287zM332 645h536 q-5 112 -70.5 176t-187.5 64q-127 0 -196.5 -63t-81.5 -177zM678 1198v246h287v-246h-287z" />
<glyph unicode="&#xec;" horiz-adv-x="491" d="M-43 1444v31h291l141 -246v-31h-219zM113 0v1065h266v-1065h-266z" />
<glyph unicode="&#xed;" horiz-adv-x="491" d="M78 1198v31l141 246h291v-31l-213 -246h-219zM113 0v1065h266v-1065h-266z" />
<glyph unicode="&#xee;" horiz-adv-x="491" d="M-104 1198v31l204 246h287l205 -246v-31h-225l-123 143l-123 -143h-225zM113 0v1065h266v-1065h-266z" />
<glyph unicode="&#xef;" horiz-adv-x="491" d="M-102 1198v246h286v-246h-286zM113 0v1065h266v-1065h-266zM307 1198v246h287v-246h-287z" />
<glyph unicode="&#xf0;" horiz-adv-x="1196" d="M61 512q-2 113 39 215t111.5 174.5t166.5 114t200 39.5q136 0 225 -62h20q-51 159 -178 238l-266 -131h-41v82l199 98q-91 27 -199 27v196h41q223 -15 383 -110l229 112h41v-82l-186 -92q289 -243 289 -799q0 -249 -151 -406t-386 -157q-233 0 -385 154t-152 389z M307 512q0 -152 81 -245t210 -93t210 93t81 245t-81 245t-210 93t-210 -93t-81 -245z" />
<glyph unicode="&#xf1;" d="M113 0v1065h254v-154h20q89 174 344 174q72 0 140 -22t126 -65t93.5 -118.5t35.5 -172.5v-707h-266v686q0 101 -54 150t-151 49q-130 0 -203 -82t-73 -236v-567h-266zM217 1192v31q21 101 89 163t173 62q41 0 70.5 -8.5t83.5 -32.5q40 -20 62 -27.5t50 -7.5q82 0 103 76 h172v-31q-21 -101 -89 -163t-173 -62q-41 0 -70.5 8.5t-83.5 32.5q-40 20 -62 27.5t-50 7.5q-82 0 -103 -76h-172z" />
<glyph unicode="&#xf2;" horiz-adv-x="1249" d="M61 532q0 257 157 405t407 148t406.5 -148t156.5 -405t-156.5 -404.5t-406.5 -147.5t-407 147.5t-157 404.5zM332 532q0 -166 76.5 -257t216.5 -91t216.5 91t76.5 257t-77 257.5t-216 91.5t-216 -91.5t-77 -257.5zM336 1444v31h291l141 -246v-31h-219z" />
<glyph unicode="&#xf3;" horiz-adv-x="1249" d="M61 532q0 257 157 405t407 148t406.5 -148t156.5 -405t-156.5 -404.5t-406.5 -147.5t-407 147.5t-157 404.5zM332 532q0 -166 76.5 -257t216.5 -91t216.5 91t76.5 257t-77 257.5t-216 91.5t-216 -91.5t-77 -257.5zM457 1198v31l141 246h291v-31l-213 -246h-219z" />
<glyph unicode="&#xf4;" horiz-adv-x="1249" d="M61 532q0 257 157 405t407 148t406.5 -148t156.5 -405t-156.5 -404.5t-406.5 -147.5t-407 147.5t-157 404.5zM274 1198v31l205 246h287l205 -246v-31h-226l-122 143l-123 -143h-226zM332 532q0 -166 76.5 -257t216.5 -91t216.5 91t76.5 257t-77 257.5t-216 91.5 t-216 -91.5t-77 -257.5z" />
<glyph unicode="&#xf5;" horiz-adv-x="1249" d="M61 532q0 257 157 405t407 148t406.5 -148t156.5 -405t-156.5 -404.5t-406.5 -147.5t-407 147.5t-157 404.5zM223 1192v31q21 101 89 163t173 62q41 0 70.5 -8.5t83.5 -32.5q69 -35 113 -35q81 0 102 76h172v-31q-21 -101 -89 -163t-173 -62q-41 0 -70.5 8.5t-83.5 32.5 q-40 20 -62 27.5t-50 7.5q-82 0 -103 -76h-172zM332 532q0 -166 76.5 -257t216.5 -91t216.5 91t76.5 257t-77 257.5t-216 91.5t-216 -91.5t-77 -257.5z" />
<glyph unicode="&#xf6;" horiz-adv-x="1249" d="M61 532q0 257 157 405t407 148t406.5 -148t156.5 -405t-156.5 -404.5t-406.5 -147.5t-407 147.5t-157 404.5zM276 1198v246h287v-246h-287zM332 532q0 -166 76.5 -257t216.5 -91t216.5 91t76.5 257t-77 257.5t-216 91.5t-216 -91.5t-77 -257.5zM686 1198v246h287v-246 h-287z" />
<glyph unicode="&#xf7;" horiz-adv-x="1474" d="M225 430v225h1024v-225h-1024zM573 20v287h328v-287h-328zM573 778v287h328v-287h-328z" />
<glyph unicode="&#xf8;" horiz-adv-x="1249" d="M61 532q0 257 157 405t407 148q188 0 327 -86l54 66h86v-51l-62 -74q158 -152 158 -408q0 -257 -156.5 -404.5t-406.5 -147.5q-189 0 -328 86l-53 -66h-86v51l61 74q-158 152 -158 407zM332 532q0 -132 47 -215l426 508q-71 56 -180 56q-139 0 -216 -91.5t-77 -257.5z M444 240q71 -56 181 -56q140 0 216.5 91t76.5 257q0 131 -48 216z" />
<glyph unicode="&#xf9;" d="M102 358v707h267v-686q0 -101 53.5 -150t150.5 -49q131 0 204 82t73 236v567h266v-1065h-254v154h-20q-86 -174 -344 -174q-57 0 -112 13t-107 42.5t-91 72.5t-62.5 107.5t-23.5 142.5zM317 1444v31h291l142 -246v-31h-220z" />
<glyph unicode="&#xfa;" d="M102 358v707h267v-686q0 -101 53.5 -150t150.5 -49q131 0 204 82t73 236v567h266v-1065h-254v154h-20q-86 -174 -344 -174q-57 0 -112 13t-107 42.5t-91 72.5t-62.5 107.5t-23.5 142.5zM438 1198v31l142 246h290v-31l-213 -246h-219z" />
<glyph unicode="&#xfb;" d="M102 358v707h267v-686q0 -101 53.5 -150t150.5 -49q131 0 204 82t73 236v567h266v-1065h-254v154h-20q-86 -174 -344 -174q-57 0 -112 13t-107 42.5t-91 72.5t-62.5 107.5t-23.5 142.5zM256 1198v31l205 246h287l204 -246v-31h-225l-123 143l-123 -143h-225z" />
<glyph unicode="&#xfc;" d="M102 358v707h267v-686q0 -101 53.5 -150t150.5 -49q131 0 204 82t73 236v567h266v-1065h-254v154h-20q-86 -174 -344 -174q-57 0 -112 13t-107 42.5t-91 72.5t-62.5 107.5t-23.5 142.5zM258 1198v246h287v-246h-287zM668 1198v246h286v-246h-286z" />
<glyph unicode="&#xfd;" horiz-adv-x="1175" d="M31 1034v31h274l283 -758h20l283 758h274v-31l-491 -1212q-51 -129 -132 -180.5t-235 -51.5h-235v197h303l24 16l66 154zM436 1198v31l142 246h290v-31l-213 -246h-219z" />
<glyph unicode="&#xfe;" horiz-adv-x="1275" d="M113 -410v1885h266v-502h20q106 112 297 112q229 0 373.5 -151t144.5 -402q0 -250 -144.5 -401t-373.5 -151q-191 0 -297 112h-20v-502h-266zM358 532q0 -166 77.5 -257t215.5 -91t215.5 91t77.5 257t-78 257.5t-215 91.5t-215 -91.5t-78 -257.5z" />
<glyph unicode="&#xff;" horiz-adv-x="1175" d="M31 1034v31h274l283 -758h20l283 758h274v-31l-491 -1212q-51 -129 -132 -180.5t-235 -51.5h-235v197h303l24 16l66 154zM256 1198v246h287v-246h-287zM666 1198v246h286v-246h-286z" />
<glyph unicode="&#x152;" horiz-adv-x="1992" d="M72 737q0 231 107.5 398.5t302 253.5t454.5 86h954v-213h-680v-398h578v-213h-578v-438h732v-213h-1006q-260 0 -454.5 85.5t-302 253t-107.5 398.5zM358 737q0 -240 150 -383.5t420 -140.5v1049q-270 3 -420 -141t-150 -384z" />
<glyph unicode="&#x153;" horiz-adv-x="2054" d="M61 532q0 257 157 405t407 148q135 0 243 -50t176 -146h21q68 96 174 146t236 50q229 0 373.5 -139t144.5 -375v-114h-797q5 -126 80.5 -201.5t202.5 -75.5q204 0 250 168h253v-31q-12 -48 -36.5 -94.5t-67 -92t-97.5 -79.5t-133.5 -55t-168.5 -21q-135 0 -241.5 51 t-174.5 148h-21q-69 -94 -176.5 -144t-240.5 -50q-250 0 -407 147.5t-157 404.5zM332 532q0 -166 76.5 -257t216.5 -91t216.5 91t76.5 257t-77 257.5t-216 91.5t-216 -91.5t-77 -257.5zM1196 645h537q-5 112 -70.5 176t-187.5 64q-127 0 -197 -63t-82 -177z" />
<glyph unicode="&#x178;" horiz-adv-x="1433" d="M0 1444v31h307l400 -682h20l399 682h308v-31l-574 -930v-514h-287v514zM336 1567v256h319v-256h-319zM778 1567v256h320v-256h-320z" />
<glyph unicode="&#x2c6;" horiz-adv-x="1024" d="M164 1198v31l205 246h286l205 -246v-31h-225l-123 143l-123 -143h-225z" />
<glyph unicode="&#x2dc;" horiz-adv-x="1155" d="M176 1192v31q21 101 89 163t173 62q41 0 70.5 -8.5t83.5 -32.5q69 -35 113 -35q81 0 102 76h172v-31q-21 -101 -89 -163t-173 -62q-41 0 -70.5 8.5t-83.5 32.5q-40 20 -62 27.5t-50 7.5q-82 0 -103 -76h-172z" />
<glyph unicode="&#x2000;" horiz-adv-x="972" />
<glyph unicode="&#x2001;" horiz-adv-x="1944" />
<glyph unicode="&#x2002;" horiz-adv-x="972" />
<glyph unicode="&#x2003;" horiz-adv-x="1944" />
<glyph unicode="&#x2004;" horiz-adv-x="648" />
<glyph unicode="&#x2005;" horiz-adv-x="486" />
<glyph unicode="&#x2006;" horiz-adv-x="324" />
<glyph unicode="&#x2007;" horiz-adv-x="324" />
<glyph unicode="&#x2008;" horiz-adv-x="243" />
<glyph unicode="&#x2009;" horiz-adv-x="388" />
<glyph unicode="&#x200a;" horiz-adv-x="108" />
<glyph unicode="&#x2010;" horiz-adv-x="819" d="M123 422v217h573v-217h-573z" />
<glyph unicode="&#x2011;" horiz-adv-x="819" d="M123 422v217h573v-217h-573z" />
<glyph unicode="&#x2012;" horiz-adv-x="819" d="M123 422v217h573v-217h-573z" />
<glyph unicode="&#x2013;" d="M123 422v217h983v-217h-983z" />
<glyph unicode="&#x2014;" horiz-adv-x="1884" d="M123 422v217h1638v-217h-1638z" />
<glyph unicode="&#x2018;" horiz-adv-x="471" d="M72 1065v315q0 138 79.5 204.5t239.5 66.5h39v-135h-39q-90 0 -127 -31t-37 -105v-28h172v-287h-327z" />
<glyph unicode="&#x2019;" horiz-adv-x="471" d="M41 899v135h39q90 0 127 30.5t37 104.5v29h-172v287h327v-316q0 -138 -79.5 -204t-239.5 -66h-39z" />
<glyph unicode="&#x201a;" horiz-adv-x="471" d="M41 -164h39q90 0 127 30.5t37 104.5v29h-172v287h327v-316q0 -138 -79.5 -204t-239.5 -66h-39v135z" />
<glyph unicode="&#x201c;" horiz-adv-x="880" d="M72 1065v315q0 138 79.5 204.5t239.5 66.5h39v-135h-39q-90 0 -127 -31t-37 -105v-28h172v-287h-327zM481 1065v315q0 271 320 271h39v-135h-39q-90 0 -127 -31t-37 -105v-28h172v-287h-328z" />
<glyph unicode="&#x201d;" horiz-adv-x="880" d="M41 889v135h39q90 0 127 30.5t37 104.5v29h-172v287h327v-316q0 -138 -79.5 -204t-239.5 -66h-39zM451 889v135h38q90 0 127 30.5t37 104.5v29h-172v287h328v-316q0 -138 -80 -204t-240 -66h-38z" />
<glyph unicode="&#x201e;" horiz-adv-x="880" d="M41 -164h39q90 0 127 30.5t37 104.5v29h-172v287h327v-316q0 -138 -79.5 -204t-239.5 -66h-39v135zM451 -164h38q90 0 127 30.5t37 104.5v29h-172v287h328v-316q0 -138 -80 -204t-240 -66h-38v135z" />
<glyph unicode="&#x2022;" horiz-adv-x="1273" d="M82 532q0 249 153.5 403.5t401.5 154.5t401.5 -154.5t153.5 -403.5t-153.5 -403t-401.5 -154t-401.5 154t-153.5 403z" />
<glyph unicode="&#x2026;" horiz-adv-x="1351" d="M72 0v287h327v-287h-327zM512 0v287h328v-287h-328zM952 0v287h328v-287h-328z" />
<glyph unicode="&#x202f;" horiz-adv-x="388" />
<glyph unicode="&#x2039;" horiz-adv-x="690" d="M51 520v29l271 348h266v-31l-260 -331l260 -332v-31h-266z" />
<glyph unicode="&#x203a;" horiz-adv-x="690" d="M102 172v31l260 332l-260 331v31h267l270 -348v-29l-270 -348h-267z" />
<glyph unicode="&#x205f;" horiz-adv-x="486" />
<glyph unicode="&#x20ac;" horiz-adv-x="1724" d="M0 504v31l20 157h191v45q0 46 2 58h-174v30l20 158h185q49 165 162 284.5t259.5 177.5t311.5 58q124 2 232.5 -30t184.5 -84.5t133.5 -120.5t87.5 -138t38 -137v-30h-283q-14 148 -114.5 235.5t-278.5 87.5q-159 0 -273.5 -78t-168.5 -225h432v-31l-21 -157h-446 q-2 -12 -2 -58q0 -35 2 -45h428v-30l-21 -158h-375q50 -152 166 -234t271 -82q183 0 286.5 88.5t135.5 245.5h282v-30q-17 -106 -73 -199.5t-144.5 -165.5t-215.5 -114t-275 -42q-165 0 -312 60t-258 182.5t-155 290.5h-240z" />
<glyph unicode="&#x2122;" horiz-adv-x="1798" d="M82 1393v82h670v-82h-289v-635h-90v635h-291zM844 758v717h147l258 -603h21l256 603h149v-717h-90v583h-20l-254 -583h-103l-254 583h-20v-583h-90z" />
<glyph unicode="&#x25fc;" horiz-adv-x="1064" d="M0 0v1065h1065v-1065h-1065z" />
</font>
</defs>
</svg>
