<?xml version="1.0" standalone="no"?>
<!DOCTYPE svg PUBLIC "-//W3C//DTD SVG 1.1//EN" "http://www.w3.org/Graphics/SVG/1.1/DTD/svg11.dtd" >
<svg xmlns="http://www.w3.org/2000/svg" xmlns:xlink="http://www.w3.org/1999/xlink" version="1.1">
<metadata></metadata>
<defs>
<font id="fk_groteskmedium" horiz-adv-x="481" >
<font-face units-per-em="2048" ascent="1638" descent="-410" />
<missing-glyph horiz-adv-x="591" />
<glyph unicode="&#xfb01;" horiz-adv-x="1218" d="M16 879v168h240v149q0 131 75 205t210 74h360v-168h-409l-17 -17v-243h612v-1047h-219v879h-393v-879h-219v879h-240z" />
<glyph unicode="&#xfb02;" horiz-adv-x="1234" d="M16 879v168h240v149q0 131 75 205t210 74h211v-168h-260l-17 -17v-243h242v-168h-242v-879h-219v879h-240zM885 0v1475h217v-1475h-217z" />
<glyph horiz-adv-x="0" />
<glyph horiz-adv-x="682" />
<glyph unicode=" "  horiz-adv-x="591" />
<glyph unicode="&#x09;" horiz-adv-x="591" />
<glyph unicode="&#xa0;" horiz-adv-x="591" />
<glyph unicode="!" horiz-adv-x="552" d="M131 0v258h291v-258h-291zM162 1047v428h225v-428l-39 -623h-147z" />
<glyph unicode="&#x22;" horiz-adv-x="866" d="M70 928v121h34q85 0 117.5 29.5t32.5 99.5v39h-154v258h289v-293q0 -132 -68 -193t-212 -61h-39zM451 928v121h34q85 0 117.5 29.5t32.5 99.5v39h-154v258h289v-293q0 -132 -68.5 -193t-212.5 -61h-38z" />
<glyph unicode="#" horiz-adv-x="1564" d="M82 422v182h324l77 266h-401v183h453l122 422h217v-31l-112 -391h223l121 422h219v-31l-113 -391h271v-183h-324l-78 -266h402v-182h-453l-123 -422h-219v31l115 391h-223l-123 -422h-217v31l112 391h-270zM627 600h231l80 274h-231z" />
<glyph unicode="$" horiz-adv-x="1394" d="M45 467v31h236q13 -160 121 -248t288 -88q170 0 266.5 64t96.5 175q-6 106 -76 150t-256 82l-191 37q-209 44 -311 140.5t-102 264.5q0 172 126 285.5t343 136.5v203h209v-205q216 -23 342 -138.5t143 -307.5v-31h-236q-1 151 -95 225t-261 74q-150 0 -243 -63t-93 -167 q0 -94 62.5 -139.5t216.5 -77.5l192 -39q234 -45 348.5 -137.5t114.5 -265.5q0 -185 -130 -305t-361 -143v-216h-209v213q-238 24 -379 155t-162 335z" />
<glyph unicode="%" horiz-adv-x="2017" d="M164 1159q0 147 102.5 244.5t255.5 97.5q152 0 254.5 -97.5t102.5 -244.5q0 -146 -103 -245t-254 -99q-152 0 -255 99t-103 245zM195 0v31l1366 1444h245v-31l-1366 -1444h-245zM350 1159q0 -75 48.5 -124.5t123.5 -49.5t122.5 49.5t47.5 124.5t-47.5 123.5t-122.5 48.5 t-123.5 -48.5t-48.5 -123.5zM1139 315q0 146 102.5 245t253.5 99q152 0 255 -99t103 -245q0 -145 -103 -243.5t-255 -98.5q-151 0 -253.5 98.5t-102.5 243.5zM1325 315q0 -74 48 -123t122 -49q75 0 123.5 49t48.5 123q0 77 -48.5 125.5t-123.5 48.5t-122.5 -48t-47.5 -126z " />
<glyph unicode="&#x26;" horiz-adv-x="1595" d="M123 403q0 238 266 404q-92 98 -131 172t-39 164q0 157 122 257.5t304 100.5q176 0 289 -101t113 -245q0 -125 -74.5 -214t-235.5 -171l-10 -4l293 -295l250 340h233v-31l-323 -444l-11 -14l123 -123l25 -11h186v-188h-153q-88 0 -140.5 20.5t-109.5 77.5l-62 62 q-89 -93 -192 -140t-238 -47q-212 0 -348.5 120t-136.5 310zM356 410q0 -109 72.5 -176.5t185.5 -67.5q85 0 150 33t129 106l-363 361q-85 -47 -129.5 -107.5t-44.5 -148.5zM451 1141q0 -62 29 -109.5t102 -120.5l55 27q92 45 135 96t43 119q0 72 -49.5 116t-128.5 44 q-83 0 -134.5 -45t-51.5 -127z" />
<glyph unicode="'" horiz-adv-x="485" d="M70 928v121h34q85 0 117.5 29.5t32.5 99.5v39h-154v258h289v-293q0 -132 -68 -193t-212 -61h-39z" />
<glyph unicode="(" horiz-adv-x="735" d="M106 584q0 653 371 993h215v-21q-185 -175 -272.5 -407t-87.5 -565t87.5 -565.5t272.5 -407.5v-21h-215q-371 340 -371 994z" />
<glyph unicode=")" horiz-adv-x="743" d="M51 -389q186 176 274.5 408.5t88.5 564.5t-88.5 564t-274.5 408v21h217q369 -341 369 -993q0 -653 -369 -994h-217v21z" />
<glyph unicode="*" horiz-adv-x="1046" d="M82 975v117h31l280 -33l6 18l-260 113l-26 14l57 101l27 -17l227 -168l14 13l-170 227l-16 26l100 58l15 -27l112 -260l21 4l-35 283v31h117v-31l-35 -283l18 -4l113 260l14 27l103 -58l-17 -26l-170 -227l13 -15l229 170l27 17l57 -101l-27 -14l-262 -113l6 -20l283 35 h31v-117h-31l-283 35l-6 -19l262 -112l27 -15l-57 -102l-27 16l-229 170l-13 -12l170 -229l17 -27l-103 -57l-14 26l-113 262l-18 -6l35 -282v-31h-117v31l35 282l-21 6l-112 -262l-15 -26l-100 57l16 27l170 229l-12 12l-229 -170l-27 -16l-57 102l26 15l260 112l-4 19 l-282 -35h-31z" />
<glyph unicode="+" horiz-adv-x="1398" d="M201 434v197h399v401h197v-401h401v-197h-401v-399h-197v399h-399z" />
<glyph unicode="," horiz-adv-x="485" d="M70 -168h34q85 0 117.5 29.5t32.5 99.5v39h-154v258h289v-293q0 -132 -68 -193t-212 -61h-39v121z" />
<glyph unicode="-" horiz-adv-x="800" d="M123 428v182h555v-182h-555z" />
<glyph unicode="." d="M96 0v258h289v-258h-289z" />
<glyph unicode="/" horiz-adv-x="1251" d="M82 0v31l860 1444h227v-31l-860 -1444h-227z" />
<glyph unicode="0" horiz-adv-x="1425" d="M90 737q0 350 168.5 556t454.5 206q285 0 454.5 -207t169.5 -555t-169.5 -555t-454.5 -207q-286 0 -454.5 206t-168.5 556zM326 737q0 -269 101.5 -418t285.5 -149q185 0 286 149t101 418q0 270 -101 419t-286 149q-184 0 -285.5 -149.5t-101.5 -418.5z" />
<glyph unicode="1" horiz-adv-x="786" d="M45 1077v183h145q118 0 167 40t49 144v31h229v-1475h-238v1077h-352z" />
<glyph unicode="2" horiz-adv-x="1241" d="M59 1014v30q24 206 179 334q150 123 389 123q238 0 386 -122.5t148 -325.5q0 -213 -176 -389q-69 -72 -199 -177l-368 -294h768v-193h-1096v162l576 497q142 124 202 209q58 82 58 191q0 115 -82 183.5t-219 68.5q-146 0 -234 -75.5t-98 -221.5h-234z" />
<glyph unicode="3" horiz-adv-x="1243" d="M37 446v31h221q12 -146 106 -229.5t246 -83.5q148 0 238 81t90 214q0 128 -88.5 203t-235.5 75q-113 0 -223 -43h-31v187l488 405h-776v189h1095v-160l-485 -404v-20h43q78 2 156 -26.5t144 -80.5t106 -137.5t38 -187.5q0 -145 -73 -256t-199.5 -170.5t-284.5 -59.5 q-234 0 -395 131.5t-180 341.5z" />
<glyph unicode="4" horiz-adv-x="1382" d="M45 428v178l764 869h272v-857h254v-190h-254v-428h-237v428h-799zM301 618h543v594h-21z" />
<glyph unicode="5" horiz-adv-x="1251" d="M55 420v31h221q12 -127 102.5 -207t229.5 -80q146 0 236 88t90 229q0 138 -87 219.5t-229 81.5q-177 0 -272 -147h-219l80 840h964v-189h-755l-41 -426h20q114 105 297 105q94 0 179.5 -32.5t151.5 -92t105 -151.5t39 -202q0 -149 -72 -266.5t-198.5 -182.5t-284.5 -65 q-227 0 -379.5 126t-177.5 321z" />
<glyph unicode="6" horiz-adv-x="1351" d="M90 678q0 384 183 603.5t479 219.5q115 0 210 -34t158 -92t99.5 -132t44.5 -158v-30h-220q-8 116 -84 186t-212 70q-194 0 -311.5 -156t-117.5 -430h21q61 102 165.5 158.5t244.5 56.5q135 0 248 -57t181 -165t68 -247q0 -215 -156 -356.5t-399 -141.5q-98 0 -187 28 t-165 86t-131.5 140.5t-87 198t-31.5 252.5zM375 457q0 -126 89 -210.5t230 -84.5t230.5 84t89.5 213q0 128 -89 210.5t-231 82.5t-230.5 -82.5t-88.5 -212.5z" />
<glyph unicode="7" horiz-adv-x="1161" d="M27 1286v189h1101v-162l-618 -1313h-248v31l604 1255h-839z" />
<glyph unicode="8" horiz-adv-x="1337" d="M86 397q0 124 70.5 213.5t201.5 137.5v20q-119 47 -183 133.5t-64 198.5q0 177 152 289t405 112q256 0 407.5 -111.5t151.5 -289.5q0 -112 -64.5 -198.5t-183.5 -133.5v-20q130 -48 201 -138t71 -213q0 -190 -159.5 -307t-423.5 -117q-263 0 -422.5 117t-159.5 307z M324 410q0 -112 92.5 -180t251.5 -68q162 0 254 68t92 180t-92 180.5t-254 68.5q-159 0 -251.5 -68.5t-92.5 -180.5zM346 1081q0 -105 85.5 -169t236.5 -64t237 64t86 169q0 102 -86.5 167t-236.5 65t-236 -65t-86 -167z" />
<glyph unicode="9" horiz-adv-x="1341" d="M84 1004q0 218 156 357.5t403 139.5q130 0 239.5 -45t192.5 -131t129.5 -221.5t46.5 -306.5q0 -399 -162.5 -611.5t-447.5 -212.5q-211 0 -351 108t-177 288v30h219q21 -107 100.5 -171t208.5 -64q186 0 284 144t97 433h-21q-56 -104 -160 -161.5t-245 -57.5 q-104 0 -198 36t-163.5 99t-110 153.5t-40.5 193.5zM317 1014q0 -132 90 -216.5t236 -84.5t236 84.5t90 216.5q0 131 -90 215t-236 84t-236 -84t-90 -215z" />
<glyph unicode=":" d="M96 0v258h289v-258h-289zM96 793v258h289v-258h-289z" />
<glyph unicode=";" horiz-adv-x="485" d="M70 -168h34q85 0 117.5 29.5t32.5 99.5v39h-154v258h289v-293q0 -132 -68 -193t-212 -61h-39v121zM100 793v258h289v-258h-289z" />
<glyph unicode="&#x3c;" horiz-adv-x="1398" d="M201 451v163l944 344h31v-192l-660 -223v-21l660 -223v-193h-31z" />
<glyph unicode="=" horiz-adv-x="1398" d="M207 260v197h985v-197h-985zM207 610v197h985v-197h-985z" />
<glyph unicode="&#x3e;" horiz-adv-x="1398" d="M221 106v193l662 223v21l-662 223v192h31l944 -344v-163l-944 -345h-31z" />
<glyph unicode="?" horiz-adv-x="1142" d="M51 1028v31q9 202 156 321t377 119q222 0 360.5 -113.5t138.5 -287.5q-2 -59 -15.5 -106.5t-33 -82.5t-55.5 -70t-69.5 -60t-88.5 -62l-137 -90l-10 -19v-104l-21 -92h-176l-20 92v49q0 96 30 149t115 107l57 37q63 41 95 64t58.5 53t36.5 60.5t13 76.5q0 97 -75.5 156 t-202.5 59q-145 0 -229.5 -71t-88.5 -216h-215zM422 0v258h289v-258h-289z" />
<glyph unicode="@" horiz-adv-x="2265" d="M164 541q-3 217 75 400.5t213.5 305.5t317.5 189t387 65q157 2 301.5 -39t261.5 -120t204 -187.5t133 -248t44 -294.5q0 -252 -114.5 -399t-282.5 -147q-94 0 -162 35.5t-98 103.5h-21q-101 -164 -329 -164q-95 0 -178 34t-145 97t-98 158.5t-36 212.5t36 212.5t98 158 t145 96.5t178 34q194 0 303 -133h20l35 109h168v-688q0 -82 88 -82q71 0 121.5 94t50.5 268q2 149 -55 279t-155 219t-231.5 139t-281.5 49q-156 2 -297 -50.5t-248 -147.5t-169 -240.5t-60 -318.5q-2 -173 61 -318.5t172.5 -241t254.5 -148t307 -50.5q334 0 534 176h21 l114 -145v-21q-256 -217 -673 -217q-166 -2 -319.5 40.5t-279.5 126t-219 200t-143.5 270.5t-48.5 328zM860 543q0 -153 73.5 -237.5t199.5 -84.5q127 0 200.5 83.5t73.5 238.5t-73.5 238t-200.5 83q-126 0 -199.5 -84t-73.5 -237z" />
<glyph unicode="A" horiz-adv-x="1413" d="M35 0v31l534 1444h275l534 -1444v-31h-239l-135 383h-594l-136 -383h-239zM475 571h463l-221 629h-21z" />
<glyph unicode="B" horiz-adv-x="1394" d="M152 0v1475h698q201 0 321.5 -98t120.5 -269q0 -123 -67 -209t-189 -121v-20q131 -36 204 -127t73 -228q0 -120 -62 -212.5t-168.5 -141.5t-240.5 -49h-690zM387 188h412q131 0 204.5 59t73.5 177t-73 176.5t-205 58.5h-412v-471zM387 846h420q121 0 186.5 55.5 t65.5 165.5q0 221 -252 221h-420v-442z" />
<glyph unicode="C" horiz-adv-x="1591" d="M82 737v14q0 133 37 250q39 123 110.5 214.5t167.5 156.5q96 66 211 98q112 32 233 31h7h15q109 0 205 -27q104 -29 177.5 -78t130 -113.5t87.5 -133t40 -137.5v-31h-235q-21 150 -131.5 241t-290.5 91q-238 0 -382 -154t-147 -422q0 -266 145.5 -419.5t379.5 -153.5 q368 0 446 340h238v-31q-19 -101 -73.5 -190t-139 -159t-206.5 -110.5t-265 -40.5h-7q-119 -1 -231 31q-114 32 -210 97.5t-166 156.5q-72 92 -110 215q-37 117 -36 250v14z" />
<glyph unicode="D" horiz-adv-x="1484" d="M152 0v1475h532q338 0 529.5 -196t191.5 -542t-191.5 -541.5t-529.5 -195.5h-532zM387 190h311q232 0 351.5 139t119.5 408q0 267 -120 408t-351 141h-311v-1096z" />
<glyph unicode="E" horiz-adv-x="1292" d="M152 0v1475h1032v-187h-797v-438h694v-184h-694v-478h830v-188h-1065z" />
<glyph unicode="F" horiz-adv-x="1183" d="M152 0v1475h987v-187h-752v-459h674v-186h-674v-643h-235z" />
<glyph unicode="G" horiz-adv-x="1595" d="M82 735q0 232 99.5 407t273.5 267t397 92q186 0 330 -69.5t226 -184t105 -260.5v-31h-227q-21 167 -135 262t-307 95q-241 0 -384 -154.5t-143 -419.5q0 -266 142.5 -420.5t380.5 -154.5q194 0 303.5 102t122.5 269h-488v182h701v-717h-172l-35 164h-21 q-150 -187 -442 -187h-11q-143 0 -272 52q-134 54 -233 152t-156 242q-55 139 -55 301v11z" />
<glyph unicode="H" horiz-adv-x="1470" d="M152 0v1475h235v-625h696v625h236v-1475h-236v662h-696v-662h-235z" />
<glyph unicode="I" horiz-adv-x="540" d="M152 0v1475h237v-1475h-237z" />
<glyph unicode="J" horiz-adv-x="1185" d="M51 446h234q0 -282 258 -282q137 0 200.5 75.5t63.5 225.5v1010h237v-1004q0 -245 -129 -371.5t-372 -126.5q-232 0 -362 120t-130 353z" />
<glyph unicode="K" horiz-adv-x="1476" d="M152 0v1475h235v-678h21l743 678h291v-31l-590 -526l578 -887v-31h-250l-494 768l-299 -266v-502h-235z" />
<glyph unicode="L" horiz-adv-x="1177" d="M152 0v1475h235v-1285h750v-190h-985z" />
<glyph unicode="M" horiz-adv-x="1955" d="M152 0v1475h301l516 -1205h20l516 1205h299v-1475h-233v1051h-21l-452 -1051h-240l-452 1051h-21v-1051h-233z" />
<glyph unicode="N" horiz-adv-x="1505" d="M152 0v1475h288l660 -1127h20v1127h234v-1475h-289l-659 1126h-21v-1126h-233z" />
<glyph unicode="O" horiz-adv-x="1693" d="M82 737q0 232 97.5 406t270.5 266t398 92t397.5 -92t269.5 -266t97 -406t-97 -406t-269.5 -266t-397.5 -92t-398 92t-270.5 266t-97.5 406zM317 737q0 -259 142 -413q138 -156 389 -156q248 0 388 154t140 415t-140 416.5t-388 155.5t-389.5 -155.5t-141.5 -416.5z" />
<glyph unicode="P" horiz-adv-x="1331" d="M152 0v1475h657q208 0 339.5 -120t131.5 -317t-131.5 -316.5t-339.5 -119.5h-422v-602h-235zM387 788h391q126 0 196 65t70 185q0 122 -70 186t-196 64h-391v-500z" />
<glyph unicode="Q" horiz-adv-x="1693" d="M82 737q0 232 97.5 406t270.5 266t398 92t397.5 -92t269.5 -266t97 -406q0 -319 -179 -521t-477 -236v-150l17 -16h223v-172h-186q-128 0 -200.5 72.5t-72.5 199.5v66q-299 34 -477 235.5t-178 521.5zM317 737q0 -259 142 -413q138 -156 389 -156q248 0 388 154t140 415 t-140 416.5t-388 155.5t-389.5 -155.5t-141.5 -416.5z" />
<glyph unicode="R" horiz-adv-x="1396" d="M152 0v1475h682q213 0 350 -117t137 -324q0 -175 -99.5 -286.5t-267.5 -143.5l297 -573v-31h-243l-291 594h-330v-594h-235zM387 780h410q139 0 213.5 65.5t74.5 188.5q0 124 -74 189t-214 65h-410v-508z" />
<glyph unicode="S" horiz-adv-x="1409" d="M45 467v31h236q13 -160 122 -248t287 -88q170 0 266.5 64t96.5 175q-6 105 -75 149t-255 83l-170 37q-208 44 -310 140.5t-102 264.5q0 190 155.5 308t414.5 118q263 0 419 -118.5t173 -333.5v-31h-234q-1 149 -95 223t-261 74q-150 0 -243 -62t-93 -166q0 -94 61 -138.5 t217 -78.5l170 -36q239 -52 350 -143.5t111 -266.5q0 -200 -159.5 -325.5t-438.5 -125.5q-283 0 -451 133.5t-192 360.5z" />
<glyph unicode="T" horiz-adv-x="1271" d="M20 1288v187h1231v-187h-497v-1288h-238v1288h-496z" />
<glyph unicode="U" horiz-adv-x="1464" d="M141 530v945h238v-955q0 -182 86.5 -269t265.5 -87t266.5 87t87.5 269v955h236v-945q0 -265 -152 -411t-438 -146q-287 0 -438.5 146t-151.5 411z" />
<glyph unicode="V" horiz-adv-x="1413" d="M35 1444v31h239l422 -1201h21l422 1201h239v-31l-534 -1444h-275z" />
<glyph unicode="W" horiz-adv-x="2076" d="M35 1444v31h246l268 -1153h20l346 1153h252l346 -1153h21l268 1153h240v-31l-359 -1444h-286l-344 1137h-21l-346 -1137h-287z" />
<glyph unicode="X" horiz-adv-x="1419" d="M20 0v31l533 725l-467 688v31h252l369 -568h20l406 568h251v-31l-505 -686l495 -727v-31h-254l-395 606h-20l-435 -606h-250z" />
<glyph unicode="Y" horiz-adv-x="1394" d="M10 1444v31h252l426 -703h21l426 703h251v-31l-569 -912v-532h-237v532z" />
<glyph unicode="Z" horiz-adv-x="1294" d="M82 0v150l807 1138h-772v187h1071v-150l-807 -1137h844v-188h-1143z" />
<glyph unicode="[" horiz-adv-x="657" d="M152 -410v1987h444v-160h-225v-1667h225v-160h-444z" />
<glyph unicode="\" horiz-adv-x="1251" d="M82 1444v31h227l860 -1444v-31h-227z" />
<glyph unicode="]" horiz-adv-x="657" d="M61 -250h226v1667h-226v160h445v-1987h-445v160z" />
<glyph unicode="^" horiz-adv-x="1075" d="M92 778v31l371 666h149l373 -666v-31h-203l-233 449h-21l-233 -449h-203z" />
<glyph unicode="_" horiz-adv-x="1146" d="M82 -80h983v-184h-983v184z" />
<glyph unicode="`" horiz-adv-x="733" d="M164 1444v31h246l161 -256v-31h-190z" />
<glyph unicode="a" horiz-adv-x="1165" d="M76 276q0 134 92.5 214t255.5 98l397 41v41q0 225 -241 225q-116 0 -185 -52.5t-76 -150.5h-215v31q23 159 152 252.5t326 93.5q212 0 334 -105t122 -302v-662h-211v143h-20q-108 -166 -352 -166q-175 0 -277 82t-102 217zM299 301q0 -71 54 -110t149 -39q139 0 229 81.5 t90 223.5v14l-344 -37q-178 -15 -178 -133z" />
<glyph unicode="b" horiz-adv-x="1257" d="M131 0v1475h219v-541h21q111 135 323 135t352 -149.5t140 -397.5q0 -247 -141.5 -396t-356.5 -149q-216 0 -326 146h-20l-41 -123h-170zM336 522q0 -173 83 -269.5t230 -96.5t230.5 96.5t83.5 269.5t-83.5 271t-230.5 98q-146 0 -229.5 -98t-83.5 -271z" />
<glyph unicode="c" horiz-adv-x="1157" d="M72 522q0 251 150 400t392 149q212 0 330 -100q121 -103 148 -248v-31h-209q-43 199 -267 199q-151 0 -237 -96t-86 -273q0 -175 87 -270.5t241 -95.5q238 0 276 219h209v-31q-26 -150 -152 -260q-127 -109 -340 -109q-241 0 -391.5 149.5t-150.5 397.5z" />
<glyph unicode="d" horiz-adv-x="1257" d="M72 522q0 249 139 398t354 149q214 0 322 -135h20v541h217v-1475h-211v127h-20q-111 -150 -334 -150q-210 0 -348.5 149t-138.5 396zM293 522q0 -171 84 -268.5t231 -97.5q144 0 229 98t85 268q0 172 -85 270.5t-229 98.5q-147 0 -231 -98t-84 -271z" />
<glyph unicode="e" horiz-adv-x="1169" d="M72 522q0 250 144.5 398.5t381.5 148.5q228 0 365 -139.5t137 -366.5v-102h-803q5 -139 86 -223t219 -84q224 0 275 190h213v-31q-16 -66 -53.5 -125t-96.5 -107.5t-145.5 -77t-190.5 -28.5q-244 0 -388 148t-144 399zM297 627h584q-5 122 -79 195t-204 73 q-136 0 -213 -71.5t-88 -196.5z" />
<glyph unicode="f" horiz-adv-x="780" d="M16 879v168h236v155q0 131 72 202t206 71h273v-168h-314l-18 -19v-241h270v-168h-270v-879h-219v879h-236z" />
<glyph unicode="g" horiz-adv-x="1247" d="M72 -70h219q65 -188 301 -188q309 0 309 307v103h-22q-110 -140 -316 -140q-217 0 -354 142.5t-137 386.5t137 386t354 142q213 0 322 -145h20l41 123h170v-986q0 -240 -132.5 -367.5t-393.5 -127.5q-96 0 -177.5 20.5t-138 53t-99.5 77t-67 90t-36 93.5v30zM293 541 q0 -166 83.5 -258.5t227.5 -92.5q143 0 226 92.5t83 258.5q0 165 -83 257.5t-226 92.5q-144 0 -227.5 -92t-83.5 -258z" />
<glyph unicode="h" horiz-adv-x="1218" d="M131 0v1475h219v-566h21q95 160 338 160q77 0 145 -23t122.5 -67.5t86 -117.5t31.5 -165v-696h-220v674q0 109 -59 165t-162 56q-138 0 -220.5 -90.5t-82.5 -247.5v-557h-219z" />
<glyph unicode="i" d="M102 1208v232h277v-232h-277zM131 0v1047h219v-1047h-219z" />
<glyph unicode="j" horiz-adv-x="503" d="M-123 -236h258l19 19v1264h219v-1188q0 -128 -71.5 -198.5t-201.5 -70.5h-223v174zM125 1208v232h276v-232h-276z" />
<glyph unicode="k" horiz-adv-x="1173" d="M131 0v1475h219v-873h21l495 445h267v-31l-416 -367l422 -618v-31h-236l-342 514l-211 -186v-328h-219z" />
<glyph unicode="l" d="M131 0v1475h219v-1475h-219z" />
<glyph unicode="m" horiz-adv-x="1849" d="M131 0v1047h209v-134h20q102 156 312 156q219 0 317 -178h21q111 178 348 178q163 0 264.5 -96t101.5 -268v-705h-219v684q0 103 -53 157t-152 54q-122 0 -193 -79.5t-71 -219.5v-596h-217v684q0 104 -53.5 157.5t-153.5 53.5q-122 0 -192 -79.5t-70 -219.5v-596h-219z " />
<glyph unicode="n" horiz-adv-x="1218" d="M131 0v1047h211v-160h20q99 182 347 182q77 0 145 -23t122.5 -67.5t86 -117.5t31.5 -165v-696h-220v674q0 109 -59 165t-162 56q-138 0 -220.5 -90.5t-82.5 -247.5v-557h-219z" />
<glyph unicode="o" horiz-adv-x="1214" d="M72 522q0 249 148 398t388 149q237 0 387 -149.5t150 -397.5q0 -246 -150 -395.5t-387 -149.5q-239 0 -387.5 149t-148.5 396zM293 522q0 -172 83.5 -269t231.5 -97t231 97t83 269q0 173 -83 271t-231 98t-231.5 -98t-83.5 -271z" />
<glyph unicode="p" horiz-adv-x="1257" d="M131 -410v1457h213v-127h21q110 149 333 149q136 0 246.5 -65.5t176 -191t65.5 -290.5q0 -246 -142.5 -395.5t-357.5 -149.5q-199 0 -315 134h-21v-521h-219zM336 522q0 -173 83 -269.5t230 -96.5t230.5 96.5t83.5 269.5t-83.5 271t-230.5 98q-146 0 -229.5 -98 t-83.5 -271z" />
<glyph unicode="q" horiz-adv-x="1257" d="M72 522q0 249 139 398t354 149q218 0 330 -145h20l41 123h168v-1457h-217v521h-20q-116 -134 -318 -134q-212 0 -354.5 149.5t-142.5 395.5zM293 522q0 -171 84 -268.5t231 -97.5q144 0 229 98t85 268q0 172 -85 270.5t-229 98.5q-147 0 -231 -98t-84 -271z" />
<glyph unicode="r" horiz-adv-x="763" d="M131 0v1047h211v-144h20q54 148 265 148h102v-189h-113q-144 0 -205 -72t-61 -225v-565h-219z" />
<glyph unicode="s" horiz-adv-x="1079" d="M51 328v30h213q7 -102 82 -155t207 -53q117 0 182.5 38.5t65.5 106.5q0 57 -44.5 83.5t-146.5 45.5l-213 37q-143 26 -219 95.5t-76 195.5q0 137 122 227t323 90t320.5 -87t138.5 -239v-30h-211q-9 186 -248 186q-108 0 -170 -38t-62 -101q0 -54 35.5 -81t110.5 -40 l213 -37q168 -31 254 -100.5t86 -194.5q0 -149 -125 -239.5t-338 -90.5q-221 0 -351.5 96t-148.5 255z" />
<glyph unicode="t" horiz-adv-x="829" d="M16 879v168h236v219l188 139h31v-358h281v-168h-281v-686l18 -19h289v-174h-264q-123 0 -192.5 69.5t-69.5 192.5v617h-236z" />
<glyph unicode="u" horiz-adv-x="1218" d="M127 348v699h217v-676q0 -109 59.5 -163t163.5 -54q137 0 219 89.5t82 243.5v560h219v-1047h-210v158h-21q-94 -181 -344 -181q-163 0 -274 96t-111 275z" />
<glyph unicode="v" horiz-adv-x="1087" d="M20 1016v31h224l288 -771h21l289 771h225v-31l-408 -1016h-231z" />
<glyph unicode="w" horiz-adv-x="1581" d="M41 1016v31h217l180 -766h21l219 766h227l219 -766h21l180 766h217v-31l-270 -1016h-254l-217 764h-21l-217 -764h-254z" />
<glyph unicode="x" horiz-adv-x="1157" d="M35 0v31l393 514l-336 471v31h234l249 -367h21l272 367h234v-31l-373 -488l354 -497v-31h-233l-268 393h-21l-293 -393h-233z" />
<glyph unicode="y" horiz-adv-x="1118" d="M31 1016v31h225l299 -797h20l299 797h224v-31l-490 -1225q-45 -108 -114.5 -154.5t-196.5 -46.5h-213v174h274l23 15l74 176z" />
<glyph unicode="z" horiz-adv-x="1032" d="M76 0v154l579 716h-559v177h838v-152l-578 -715h600v-180h-880z" />
<glyph unicode="{" horiz-adv-x="796" d="M61 506v156q124 0 177 38t53 140v522q0 215 235 215h209v-160h-209l-16 -16v-570q0 -93 -51 -154.5t-140 -82.5v-21q89 -21 140 -82.5t51 -154.5v-569l16 -17h209v-160h-209q-235 0 -235 215v523q0 104 -52.5 141t-177.5 37z" />
<glyph unicode="|" horiz-adv-x="546" d="M164 -410v1885h219v-1885h-219z" />
<glyph unicode="}" horiz-adv-x="796" d="M61 -250h209l17 17v569q0 93 50.5 154.5t139.5 82.5v21q-89 21 -139.5 82.5t-50.5 154.5v570l-17 16h-209v160h209q236 0 236 -215v-522q0 -102 53 -140t176 -38v-156q-125 0 -177 -36.5t-52 -141.5v-523q0 -215 -236 -215h-209v160z" />
<glyph unicode="~" horiz-adv-x="1398" d="M195 369v30q7 152 87 236t212 84q67 0 118 -21t125 -71q56 -37 88.5 -51.5t67.5 -14.5q60 0 92 36t37 101h180v-30q-7 -152 -86 -236t-211 -84q-67 0 -120 21.5t-123 68.5q-57 37 -88.5 51.5t-69.5 14.5q-123 0 -129 -135h-180z" />
<glyph unicode="&#xa1;" horiz-adv-x="552" d="M131 788v259h291v-259h-291zM162 0l39 623h147l39 -623v-410h-225v410z" />
<glyph unicode="&#xa2;" horiz-adv-x="1157" d="M72 522q0 221 117 364.5t317 176.5v203h209v-201q158 -24 254.5 -116.5t122.5 -225.5v-31h-209q-43 199 -267 199q-151 0 -237 -96t-86 -273q0 -175 87 -270.5t241 -95.5q238 0 276 219h209v-31q-26 -141 -126.5 -239t-264.5 -123v-207h-209v209q-200 33 -317 176 t-117 362z" />
<glyph unicode="&#xa3;" horiz-adv-x="1265" d="M80 635v170h160l-17 92q-12 71 -12 131q0 148 70.5 257t183 161.5t250.5 52.5q220 0 356 -121.5t143 -339.5h-233q-5 128 -73.5 198.5t-192.5 70.5q-126 0 -198.5 -72t-72.5 -211q0 -49 13 -119l18 -100h295v-170h-264q16 -106 16 -164q0 -97 -33 -163.5t-106 -117.5h821 v-190h-1077v166q87 62 124.5 133.5t37.5 169.5q0 54 -17 166h-192z" />
<glyph unicode="&#xa4;" horiz-adv-x="1429" d="M61 2l203 201q-108 144 -108 321q0 176 108 320l-203 200l132 132l204 -203q141 100 318 100q176 0 317 -100l205 203l131 -132l-203 -200q107 -143 107 -320q0 -174 -109 -319l205 -203l-131 -129l-205 203q-143 -101 -317 -101q-175 0 -318 101l-204 -203zM365 524 q0 -160 98 -258q97 -100 252 -100t252 100q98 98 98 258q0 159 -98 260q-99 99 -252 99t-252 -99q-98 -101 -98 -260z" />
<glyph unicode="&#xa5;" horiz-adv-x="1398" d="M10 1444v31h252l428 -703h21l428 703h252v-31l-455 -723h235v-168h-354v-117h354v-168h-354v-268h-235v268h-355v168h355v117h-355v168h238z" />
<glyph unicode="&#xa6;" horiz-adv-x="546" d="M164 242h219v-652h-219v652zM164 823v652h219v-652h-219z" />
<glyph unicode="&#xa7;" horiz-adv-x="1214" d="M72 635q0 182 170 278v21q-78 84 -78 207q0 159 122 259.5t322 100.5q195 0 318 -96t141 -254v-31h-223q-6 95 -69 147t-167 52q-97 0 -155 -46.5t-58 -119.5q0 -70 44.5 -106t156.5 -74l201 -70q173 -58 259.5 -142.5t86.5 -213.5q0 -178 -172 -281v-20q80 -77 80 -205 q0 -159 -122.5 -259.5t-324.5 -100.5q-195 0 -321.5 99t-149.5 265v31h229q12 -101 76.5 -156t165.5 -55q97 0 156 45.5t59 118.5q0 70 -44.5 106t-158.5 74l-200 70q-172 58 -258 142.5t-86 213.5zM283 676q0 -76 48.5 -123t160.5 -86l331 -113q109 41 109 152 q0 76 -48.5 123t-160.5 86l-332 114q-108 -47 -108 -153z" />
<glyph unicode="&#xa8;" horiz-adv-x="1026" d="M174 1208v232h258v-232h-258zM584 1208v232h258v-232h-258z" />
<glyph unicode="&#xa9;" horiz-adv-x="1685" d="M82 737q-3 155 56.5 297.5t162 244.5t245 162t298.5 58q155 2 297.5 -58t244.5 -162t162 -244.5t58 -297.5q2 -156 -58 -298.5t-162 -245t-244.5 -162t-297.5 -56.5q-156 -3 -298.5 56.5t-245 162t-162 245t-56.5 298.5zM168 737q-1 -140 51 -266.5t142 -218 t216.5 -144.5t266.5 -51q140 -2 266 51t216.5 144.5t143 218t50.5 266.5q2 140 -50.5 266.5t-143 218t-216.5 144.5t-266 51q-140 2 -266.5 -51t-216.5 -144.5t-142 -218t-51 -266.5zM475 739q0 180 108.5 295t276.5 115q130 0 216.5 -69t107.5 -177v-31h-82q-14 87 -79 141 t-163 54q-134 0 -216.5 -89.5t-82.5 -238.5q0 -148 82.5 -237.5t216.5 -89.5q104 0 168.5 53t83.5 149h82v-30q-21 -111 -111.5 -182.5t-222.5 -71.5q-168 0 -276.5 115t-108.5 294z" />
<glyph unicode="&#xab;" horiz-adv-x="1003" d="M51 512v29l275 338h215v-31l-262 -322l262 -323v-31h-215zM414 512v29l274 338h215v-31l-262 -322l262 -323v-31h-215z" />
<glyph unicode="&#xad;" horiz-adv-x="800" d="M123 428v182h555v-182h-555z" />
<glyph unicode="&#xae;" horiz-adv-x="1685" d="M82 737q-3 155 56.5 297.5t162 244.5t245 162t298.5 58q155 2 297.5 -58t244.5 -162t162 -244.5t58 -297.5q2 -156 -58 -298.5t-162 -245t-244.5 -162t-297.5 -56.5q-156 -3 -298.5 56.5t-245 162t-162 245t-56.5 298.5zM168 737q-1 -140 51 -266.5t142 -218 t216.5 -144.5t266.5 -51q140 -2 266 51t216.5 144.5t143 218t50.5 266.5q2 140 -50.5 266.5t-143 218t-216.5 144.5t-266 51q-140 2 -266.5 -51t-216.5 -144.5t-142 -218t-51 -266.5zM573 340v799h373q105 0 169.5 -63t64.5 -167q0 -99 -59 -161t-158 -68l163 -309v-31h-84 l-176 340h-207v-340h-86zM659 762h269q80 0 123 37.5t43 109.5t-43 110t-123 38h-269v-295z" />
<glyph unicode="&#xaf;" horiz-adv-x="944" d="M158 1208v166h628v-166h-628z" />
<glyph unicode="&#xb0;" horiz-adv-x="878" d="M82 1159q0 147 102.5 244.5t255.5 97.5q152 0 254.5 -97.5t102.5 -244.5q0 -146 -103 -245t-254 -99q-152 0 -255 99t-103 245zM268 1159q0 -75 48.5 -124.5t123.5 -49.5t122.5 49.5t47.5 124.5t-47.5 123.5t-122.5 48.5t-123.5 -48.5t-48.5 -123.5z" />
<glyph unicode="&#xb1;" horiz-adv-x="1398" d="M201 0v197h997v-197h-997zM201 676v196h399v363h197v-363h401v-196h-401v-365h-195v365h-401z" />
<glyph unicode="&#xb4;" horiz-adv-x="733" d="M164 1188v31l162 256h245v-31l-217 -256h-190z" />
<glyph unicode="&#xb6;" horiz-adv-x="1572" d="M123 1055q0 181 129 300.5t319 119.5h920v-183h-197v-1292h-235v1292h-180v-1292h-234v637h-74q-190 0 -319 119.5t-129 298.5z" />
<glyph unicode="&#xb7;" d="M96 436v258h289v-258h-289z" />
<glyph unicode="&#xb8;" horiz-adv-x="776" d="M150 -223h30q68 -42 117 -61t106 -19q42 0 67.5 19t25.5 46t-20 42.5t-56 15.5h-133v30l28 150h127l-20 -90l33 2q86 5 142 -34.5t56 -115.5q0 -87 -67.5 -139.5t-179.5 -52.5q-133 0 -256 63v144z" />
<glyph unicode="&#xbb;" horiz-adv-x="1003" d="M102 172v31l263 323l-263 322v31h215l275 -338v-29l-275 -340h-215zM465 172v31l262 323l-262 322v31h213l274 -338v-29l-274 -340h-213z" />
<glyph unicode="&#xbf;" horiz-adv-x="1142" d="M61 -33q2 58 15 105.5t32.5 82.5t55 70.5t69.5 61t89 61.5l137 90l10 19v86l20 92h177l20 -92v-31q0 -96 -30 -148.5t-113 -107.5l-58 -37q-47 -31 -67.5 -45.5t-49 -37t-39.5 -36.5t-24 -36t-17.5 -45t-6.5 -54q0 -97 75.5 -156t202.5 -59q145 0 229.5 71t88.5 216h217 v-31q-9 -200 -156 -323q-147 -117 -379 -117q-223 0 -360.5 113.5t-137.5 287.5zM432 788v259h289v-259h-289z" />
<glyph unicode="&#xc0;" horiz-adv-x="1413" d="M35 0v31l534 1444h275l534 -1444v-31h-239l-135 383h-594l-136 -383h-239zM418 1796v37h274l166 -221v-35h-205zM475 571h463l-221 629h-21z" />
<glyph unicode="&#xc1;" horiz-adv-x="1413" d="M35 0v31l534 1444h275l534 -1444v-31h-239l-135 383h-594l-136 -383h-239zM475 571h463l-221 629h-21zM555 1577v35l166 221h274v-37l-235 -219h-205z" />
<glyph unicode="&#xc2;" horiz-adv-x="1413" d="M35 0v31l534 1444h275l534 -1444v-31h-239l-135 383h-594l-136 -383h-239zM332 1577v35l237 221h275l237 -221v-35h-227l-147 133l-148 -133h-227zM475 571h463l-221 629h-21z" />
<glyph unicode="&#xc3;" horiz-adv-x="1413" d="M35 0v31l534 1444h275l534 -1444v-31h-239l-135 383h-594l-136 -383h-239zM330 1597v31q19 96 80.5 152.5t156.5 56.5q74 0 156 -49q46 -23 66.5 -30t44.5 -7q82 0 100 84h145v-31q-18 -96 -79 -153.5t-156 -57.5q-76 0 -158 49q-47 23 -66 30t-42 7q-80 0 -101 -82h-147 zM475 571h463l-221 629h-21z" />
<glyph unicode="&#xc4;" horiz-adv-x="1413" d="M35 0v31l534 1444h275l534 -1444v-31h-239l-135 383h-594l-136 -383h-239zM354 1581v238h277v-238h-277zM475 571h463l-221 629h-21zM782 1581v238h275v-238h-275z" />
<glyph unicode="&#xc5;" horiz-adv-x="1413" d="M35 0v31l534 1444h275l534 -1444v-31h-239l-135 383h-594l-136 -383h-239zM475 571h463l-221 629h-21zM504 1726q0 82 57.5 136.5t145.5 54.5q87 0 144.5 -54.5t57.5 -136.5t-57 -135t-145 -53t-145.5 53t-57.5 135zM633 1726q0 -30 20.5 -48.5t53.5 -18.5t53 18.5 t20 48.5q0 31 -20.5 50.5t-52.5 19.5t-53 -19.5t-21 -50.5z" />
<glyph unicode="&#xc6;" horiz-adv-x="2013" d="M35 0v31l764 1444h1108v-187h-717v-438h614v-184h-614v-478h747v-188h-981v383h-479l-194 -383h-248zM573 573h383v715h-20z" />
<glyph unicode="&#xc7;" horiz-adv-x="1591" d="M82 737q-2 141 37 264t110.5 214.5t167.5 156.5t211 97.5t240 31.5q116 2 219.5 -27t177.5 -78t130.5 -113.5t87.5 -133t40 -137.5v-31h-235q-21 150 -131.5 241t-290.5 91q-238 0 -382 -154t-147 -422q0 -266 145.5 -419.5t379.5 -153.5q368 0 446 340h238v-31 q-17 -94 -66.5 -178.5t-125.5 -152.5t-184.5 -112t-234.5 -55l-14 -65l33 2q86 5 142.5 -34.5t56.5 -115.5q0 -86 -69 -139t-181 -53q-131 0 -254 63v144h30q68 -42 117 -61t107 -19q42 0 66 17.5t24 47.5q0 58 -74 58h-135v30l24 125q-148 8 -276 63t-224 150.5t-151 237 t-55 311.5z" />
<glyph unicode="&#xc8;" horiz-adv-x="1292" d="M152 0v1475h1032v-187h-797v-438h694v-184h-694v-478h830v-188h-1065zM385 1796v37h274l166 -221v-35h-204z" />
<glyph unicode="&#xc9;" horiz-adv-x="1292" d="M152 0v1475h1032v-187h-797v-438h694v-184h-694v-478h830v-188h-1065zM522 1577v35l166 221h275v-37l-236 -219h-205z" />
<glyph unicode="&#xca;" horiz-adv-x="1292" d="M152 0v1475h1032v-187h-797v-438h694v-184h-694v-478h830v-188h-1065zM299 1577v35l238 221h274l238 -221v-35h-228l-147 133l-148 -133h-227z" />
<glyph unicode="&#xcb;" horiz-adv-x="1292" d="M152 0v1475h1032v-187h-797v-438h694v-184h-694v-478h830v-188h-1065zM322 1581v238h276v-238h-276zM750 1581v238h274v-238h-274z" />
<glyph unicode="&#xcc;" horiz-adv-x="540" d="M-18 1796v37h274l166 -221v-35h-205zM152 0v1475h237v-1475h-237z" />
<glyph unicode="&#xcd;" horiz-adv-x="540" d="M119 1577v35l166 221h274v-37l-235 -219h-205zM152 0v1475h237v-1475h-237z" />
<glyph unicode="&#xce;" horiz-adv-x="540" d="M-104 1577v35l237 221h275l237 -221v-35h-227l-148 133l-147 -133h-227zM152 0v1475h237v-1475h-237z" />
<glyph unicode="&#xcf;" horiz-adv-x="540" d="M-82 1581v238h277v-238h-277zM152 0v1475h237v-1475h-237zM346 1581v238h275v-238h-275z" />
<glyph unicode="&#xd0;" horiz-adv-x="1552" d="M31 676v143h188v656h533q337 0 527.5 -196t190.5 -542t-190.5 -541.5t-527.5 -195.5h-533v676h-188zM453 190h311q232 0 351.5 139t119.5 408q0 267 -120 408t-351 141h-311v-467h252v-143h-252v-486z" />
<glyph unicode="&#xd1;" horiz-adv-x="1505" d="M152 0v1475h288l660 -1127h20v1127h234v-1475h-289l-659 1126h-21v-1126h-233zM395 1597v31q19 95 81 152t157 57q73 0 155 -49q46 -23 66.5 -30t44.5 -7q82 0 100 84h146v-31q-18 -96 -79.5 -153.5t-156.5 -57.5q-75 0 -157 49q-46 23 -66 30t-43 7q-79 0 -100 -82h-148 z" />
<glyph unicode="&#xd2;" horiz-adv-x="1693" d="M82 737q0 232 97.5 406t270.5 266t398 92t397.5 -92t269.5 -266t97 -406t-97 -406t-269.5 -266t-397.5 -92t-398 92t-270.5 266t-97.5 406zM317 737q0 -259 142 -413q138 -156 389 -156q248 0 388 154t140 415t-140 416.5t-388 155.5t-389.5 -155.5t-141.5 -416.5z M559 1796v37h275l165 -221v-35h-204z" />
<glyph unicode="&#xd3;" horiz-adv-x="1693" d="M82 737q0 232 97.5 406t270.5 266t398 92t397.5 -92t269.5 -266t97 -406t-97 -406t-269.5 -266t-397.5 -92t-398 92t-270.5 266t-97.5 406zM317 737q0 -259 142 -413q138 -156 389 -156q248 0 388 154t140 415t-140 416.5t-388 155.5t-389.5 -155.5t-141.5 -416.5z M696 1577v35l166 221h275v-37l-236 -219h-205z" />
<glyph unicode="&#xd4;" horiz-adv-x="1693" d="M82 737q0 232 97.5 406t270.5 266t398 92t397.5 -92t269.5 -266t97 -406t-97 -406t-269.5 -266t-397.5 -92t-398 92t-270.5 266t-97.5 406zM317 737q0 -259 142 -413q138 -156 389 -156q248 0 388 154t140 415t-140 416.5t-388 155.5t-389.5 -155.5t-141.5 -416.5z M473 1577v35l238 221h274l238 -221v-35h-228l-147 133l-148 -133h-227z" />
<glyph unicode="&#xd5;" horiz-adv-x="1693" d="M82 737q0 232 97.5 406t270.5 266t398 92t397.5 -92t269.5 -266t97 -406t-97 -406t-269.5 -266t-397.5 -92t-398 92t-270.5 266t-97.5 406zM317 737q0 -259 142 -413q138 -156 389 -156q248 0 388 154t140 415t-140 416.5t-388 155.5t-389.5 -155.5t-141.5 -416.5z M471 1597v31q19 95 81 152t157 57q73 0 155 -49q46 -23 66.5 -30t44.5 -7q82 0 100 84h146v-31q-18 -96 -79.5 -153.5t-156.5 -57.5q-76 0 -158 49q-47 23 -66 30t-42 7q-80 0 -101 -82h-147z" />
<glyph unicode="&#xd6;" horiz-adv-x="1693" d="M82 737q0 232 97.5 406t270.5 266t398 92t397.5 -92t269.5 -266t97 -406t-97 -406t-269.5 -266t-397.5 -92t-398 92t-270.5 266t-97.5 406zM317 737q0 -259 142 -413q138 -156 389 -156q248 0 388 154t140 415t-140 416.5t-388 155.5t-389.5 -155.5t-141.5 -416.5z M494 1581v238h276v-238h-276zM922 1581v238h274v-238h-274z" />
<glyph unicode="&#xd7;" horiz-adv-x="1398" d="M227 190l342 342l-342 342l129 132l342 -342l342 342l131 -132l-342 -342l342 -342l-131 -129l-342 342l-342 -342z" />
<glyph unicode="&#xd8;" horiz-adv-x="1693" d="M82 737q0 232 97.5 406t270.5 266t398 92q286 0 481 -145l107 119h92v-41l-125 -142q209 -209 209 -555q0 -232 -97 -406t-269.5 -266t-397.5 -92q-284 0 -483 146l-107 -119h-92v41l125 141q-209 209 -209 555zM317 737q0 -242 119 -391l754 852q-138 111 -342 111 q-248 0 -389.5 -155.5t-141.5 -416.5zM504 279q135 -111 344 -111q248 0 388 154t140 415q0 242 -119 391z" />
<glyph unicode="&#xd9;" horiz-adv-x="1464" d="M141 530v945h238v-955q0 -182 86.5 -269t265.5 -87t266.5 87t87.5 269v955h236v-945q0 -265 -152 -411t-438 -146q-287 0 -438.5 146t-151.5 411zM442 1796v37h275l166 -221v-35h-205z" />
<glyph unicode="&#xda;" horiz-adv-x="1464" d="M141 530v945h238v-955q0 -182 86.5 -269t265.5 -87t266.5 87t87.5 269v955h236v-945q0 -265 -152 -411t-438 -146q-287 0 -438.5 146t-151.5 411zM580 1577v35l165 221h275v-37l-236 -219h-204z" />
<glyph unicode="&#xdb;" horiz-adv-x="1464" d="M141 530v945h238v-955q0 -182 86.5 -269t265.5 -87t266.5 87t87.5 269v955h236v-945q0 -265 -152 -411t-438 -146q-287 0 -438.5 146t-151.5 411zM356 1577v35l238 221h274l238 -221v-35h-227l-148 133l-147 -133h-228z" />
<glyph unicode="&#xdc;" horiz-adv-x="1464" d="M141 530v945h238v-955q0 -182 86.5 -269t265.5 -87t266.5 87t87.5 269v955h236v-945q0 -265 -152 -411t-438 -146q-287 0 -438.5 146t-151.5 411zM379 1581v238h276v-238h-276zM807 1581v238h274v-238h-274z" />
<glyph unicode="&#xdd;" horiz-adv-x="1394" d="M10 1444v31h252l426 -703h21l426 703h251v-31l-569 -912v-532h-237v532zM547 1577v35l166 221h274v-37l-235 -219h-205z" />
<glyph unicode="&#xde;" horiz-adv-x="1331" d="M152 0v1475h235v-281h420q210 0 341.5 -118t131.5 -316q0 -200 -131.5 -318t-341.5 -118h-420v-324h-235zM387 510h391q126 0 195 64t69 186q0 120 -69 184t-195 64h-391v-498z" />
<glyph unicode="&#xdf;" horiz-adv-x="1277" d="M131 0v958q0 251 147.5 396t380.5 145q177 0 298.5 -89.5t121.5 -231.5q-2 -53 -14 -93.5t-27.5 -69.5t-50.5 -61.5t-65.5 -54.5t-90.5 -63q-38 -23 -38 -56q0 -20 11.5 -32.5t41.5 -26.5l92 -49q62 -33 100 -56.5t78.5 -56t62 -66t37 -79.5t17.5 -103q0 -146 -113 -241 t-286 -95q-170 0 -280 82.5t-124 214.5v31h213q7 -71 59.5 -111t131.5 -40q80 0 131 43t51 114q0 82 -72 133q-16 9 -98 56l-88 47q-100 55 -141.5 104t-41.5 117q0 64 31 109t107 96q85 59 117 98t32 98q0 71 -56.5 113.5t-148.5 42.5q-59 0 -112.5 -20.5t-98 -62 t-70.5 -113t-26 -164.5v-963h-219z" />
<glyph unicode="&#xe0;" horiz-adv-x="1165" d="M76 276q0 134 92.5 214t255.5 98l397 41v41q0 225 -241 225q-116 0 -185 -52.5t-76 -150.5h-215v31q23 159 152 252.5t326 93.5q212 0 334 -105t122 -302v-662h-211v143h-20q-108 -166 -352 -166q-175 0 -277 82t-102 217zM299 301q0 -71 54 -110t149 -39q139 0 229 81.5 t90 223.5v14l-344 -37q-178 -15 -178 -133zM313 1444v31h246l162 -256v-31h-191z" />
<glyph unicode="&#xe1;" horiz-adv-x="1165" d="M76 276q0 134 92.5 214t255.5 98l397 41v41q0 225 -241 225q-116 0 -185 -52.5t-76 -150.5h-215v31q23 159 152 252.5t326 93.5q212 0 334 -105t122 -302v-662h-211v143h-20q-108 -166 -352 -166q-175 0 -277 82t-102 217zM299 301q0 -71 54 -110t149 -39q139 0 229 81.5 t90 223.5v14l-344 -37q-178 -15 -178 -133zM430 1188v31l162 256h246v-31l-217 -256h-191z" />
<glyph unicode="&#xe2;" horiz-adv-x="1165" d="M76 276q0 134 92.5 214t255.5 98l397 41v41q0 225 -241 225q-116 0 -185 -52.5t-76 -150.5h-215v31q23 159 152 252.5t326 93.5q212 0 334 -105t122 -302v-662h-211v143h-20q-108 -166 -352 -166q-175 0 -277 82t-102 217zM248 1188v31l205 256h252l204 -256v-31h-188 l-143 168l-142 -168h-188zM299 301q0 -71 54 -110t149 -39q139 0 229 81.5t90 223.5v14l-344 -37q-178 -15 -178 -133z" />
<glyph unicode="&#xe3;" horiz-adv-x="1165" d="M76 276q0 134 92.5 214t255.5 98l397 41v41q0 225 -241 225q-116 0 -185 -52.5t-76 -150.5h-215v31q23 159 152 252.5t326 93.5q212 0 334 -105t122 -302v-662h-211v143h-20q-108 -166 -352 -166q-175 0 -277 82t-102 217zM190 1186v31q14 94 81 155.5t169 61.5 q44 0 79.5 -12.5t84.5 -41.5q65 -41 111 -41q85 0 100 88h152v-30q-14 -95 -81 -157t-169 -62q-44 0 -79.5 13t-82.5 42q-45 25 -65 33t-48 8q-83 0 -98 -88h-154zM299 301q0 -71 54 -110t149 -39q139 0 229 81.5t90 223.5v14l-344 -37q-178 -15 -178 -133z" />
<glyph unicode="&#xe4;" horiz-adv-x="1165" d="M76 276q0 134 92.5 214t255.5 98l397 41v41q0 225 -241 225q-116 0 -185 -52.5t-76 -150.5h-215v31q23 159 152 252.5t326 93.5q212 0 334 -105t122 -302v-662h-211v143h-20q-108 -166 -352 -166q-175 0 -277 82t-102 217zM246 1208v232h258v-232h-258zM299 301 q0 -71 54 -110t149 -39q139 0 229 81.5t90 223.5v14l-344 -37q-178 -15 -178 -133zM655 1208v232h258v-232h-258z" />
<glyph unicode="&#xe5;" horiz-adv-x="1165" d="M76 276q0 134 92.5 214t255.5 98l397 41v41q0 225 -241 225q-116 0 -185 -52.5t-76 -150.5h-215v31q23 159 152 252.5t326 93.5q212 0 334 -105t122 -302v-662h-211v143h-20q-108 -166 -352 -166q-175 0 -277 82t-102 217zM299 301q0 -71 54 -110t149 -39q139 0 229 81.5 t90 223.5v14l-344 -37q-178 -15 -178 -133zM379 1325q0 79 57 130.5t142 51.5t141.5 -51.5t56.5 -130.5t-56.5 -130.5t-141.5 -51.5t-142 51.5t-57 130.5zM498 1325q0 -35 22.5 -56.5t57.5 -21.5t57 21.5t22 56.5t-21.5 55.5t-57.5 20.5t-58 -20.5t-22 -55.5z" />
<glyph unicode="&#xe6;" horiz-adv-x="1910" d="M76 305q0 151 110 234.5t306 83.5h327v47q0 223 -241 223q-232 0 -256 -195h-213v31q25 155 150.5 247.5t318.5 92.5q122 0 217 -47.5t145 -132.5h21q131 180 376 180q227 0 365.5 -144t138.5 -382v-82h-799q2 -141 82.5 -223t221.5 -82q221 0 272 188h213v-31 q-16 -66 -53.5 -125t-96 -107.5t-145 -77t-190.5 -28.5q-141 0 -247.5 54t-168.5 155h-21q-127 -207 -413 -207q-188 0 -304 93.5t-116 234.5zM297 315q0 -73 59 -116t158 -43q141 0 223 77t82 228h-321q-98 0 -149.5 -38.5t-51.5 -107.5zM1042 623h576q-5 126 -77 198 t-204 72q-136 0 -211.5 -72t-83.5 -198z" />
<glyph unicode="&#xe7;" horiz-adv-x="1157" d="M72 522q0 251 150 400t392 149q212 0 330 -100q121 -103 148 -248v-31h-209q-43 199 -267 199q-151 0 -237 -96t-86 -273q0 -175 87 -270.5t241 -95.5q238 0 276 219h209v-31q-28 -148 -139.5 -249t-292.5 -118l-15 -67l33 2q86 5 142.5 -34.5t56.5 -115.5 q0 -86 -69 -139t-181 -53q-131 0 -254 63v144h31q68 -42 117 -61t106 -19q42 0 66 17.5t24 47.5q0 58 -74 58h-135v30l27 127q-218 23 -347.5 169t-129.5 376z" />
<glyph unicode="&#xe8;" horiz-adv-x="1169" d="M72 522q0 250 144.5 398.5t381.5 148.5q228 0 365 -139.5t137 -366.5v-102h-803q5 -139 86 -223t219 -84q224 0 275 190h213v-31q-16 -66 -53.5 -125t-96.5 -107.5t-145.5 -77t-190.5 -28.5q-244 0 -388 148t-144 399zM297 627h584q-5 122 -79 195t-204 73 q-136 0 -213 -71.5t-88 -196.5zM338 1444v31h246l161 -256v-31h-190z" />
<glyph unicode="&#xe9;" horiz-adv-x="1169" d="M72 522q0 250 144.5 398.5t381.5 148.5q228 0 365 -139.5t137 -366.5v-102h-803q5 -139 86 -223t219 -84q224 0 275 190h213v-31q-16 -66 -53.5 -125t-96.5 -107.5t-145.5 -77t-190.5 -28.5q-244 0 -388 148t-144 399zM297 627h584q-5 122 -79 195t-204 73 q-136 0 -213 -71.5t-88 -196.5zM453 1188v31l161 256h246v-31l-217 -256h-190z" />
<glyph unicode="&#xea;" horiz-adv-x="1169" d="M72 522q0 250 144.5 398.5t381.5 148.5q228 0 365 -139.5t137 -366.5v-102h-803q5 -139 86 -223t219 -84q224 0 275 190h213v-31q-16 -66 -53.5 -125t-96.5 -107.5t-145.5 -77t-190.5 -28.5q-244 0 -388 148t-144 399zM270 1188v31l205 256h252l205 -256v-31h-189 l-143 168l-141 -168h-189zM297 627h584q-5 122 -79 195t-204 73q-136 0 -213 -71.5t-88 -196.5z" />
<glyph unicode="&#xeb;" horiz-adv-x="1169" d="M72 522q0 250 144.5 398.5t381.5 148.5q228 0 365 -139.5t137 -366.5v-102h-803q5 -139 86 -223t219 -84q224 0 275 190h213v-31q-16 -66 -53.5 -125t-96.5 -107.5t-145.5 -77t-190.5 -28.5q-244 0 -388 148t-144 399zM268 1208v232h258v-232h-258zM297 627h584 q-5 122 -79 195t-204 73q-136 0 -213 -71.5t-88 -196.5zM678 1208v232h258v-232h-258z" />
<glyph unicode="&#xec;" d="M-25 1444v31h246l162 -256v-31h-190zM131 0v1047h219v-1047h-219z" />
<glyph unicode="&#xed;" d="M92 1188v31l162 256h246v-31l-217 -256h-191zM131 0v1047h219v-1047h-219z" />
<glyph unicode="&#xee;" d="M-90 1188v31l205 256h252l204 -256v-31h-188l-143 168l-142 -168h-188zM131 0v1047h219v-1047h-219z" />
<glyph unicode="&#xef;" d="M-92 1208v232h258v-232h-258zM131 0v1047h219v-1047h-219zM317 1208v232h258v-232h-258z" />
<glyph unicode="&#xf0;" horiz-adv-x="1185" d="M72 512q0 233 145.5 387t360.5 154q151 0 247 -84h21q-45 177 -205 278l-272 -129h-35v82l205 96q-93 35 -205 35v170h35q218 -15 370 -108l234 110h37v-82l-187 -88q293 -246 293 -790q0 -257 -144.5 -414.5t-377.5 -157.5q-228 0 -375 153t-147 388zM281 512 q0 -166 85.5 -263t227.5 -97q140 0 225.5 97.5t85.5 262.5t-85.5 262.5t-225.5 97.5q-142 0 -227.5 -97t-85.5 -263z" />
<glyph unicode="&#xf1;" horiz-adv-x="1218" d="M131 0v1047h211v-160h20q99 182 347 182q77 0 145 -23t122.5 -67.5t86 -117.5t31.5 -165v-696h-220v674q0 109 -59 165t-162 56q-138 0 -220.5 -90.5t-82.5 -247.5v-557h-219zM217 1186v31q14 94 81 155.5t169 61.5q44 0 79.5 -12.5t84.5 -41.5q65 -41 110 -41 q86 0 101 88h151v-30q-14 -95 -81 -157t-169 -62q-44 0 -78.5 13t-82.5 42q-45 25 -65 33t-48 8q-83 0 -98 -88h-154z" />
<glyph unicode="&#xf2;" horiz-adv-x="1214" d="M72 522q0 249 148 398t388 149q237 0 387 -149.5t150 -397.5q0 -246 -150 -395.5t-387 -149.5q-239 0 -387.5 149t-148.5 396zM293 522q0 -172 83.5 -269t231.5 -97t231 97t83 269q0 173 -83 271t-231 98t-231.5 -98t-83.5 -271zM342 1444v31h246l162 -256v-31h-191z" />
<glyph unicode="&#xf3;" horiz-adv-x="1214" d="M72 522q0 249 148 398t388 149q237 0 387 -149.5t150 -397.5q0 -246 -150 -395.5t-387 -149.5q-239 0 -387.5 149t-148.5 396zM293 522q0 -172 83.5 -269t231.5 -97t231 97t83 269q0 173 -83 271t-231 98t-231.5 -98t-83.5 -271zM459 1188v31l162 256h245v-31l-217 -256 h-190z" />
<glyph unicode="&#xf4;" horiz-adv-x="1214" d="M72 522q0 249 148 398t388 149q237 0 387 -149.5t150 -397.5q0 -246 -150 -395.5t-387 -149.5q-239 0 -387.5 149t-148.5 396zM276 1188v31l205 256h252l205 -256v-31h-188l-144 168l-141 -168h-189zM293 522q0 -172 83.5 -269t231.5 -97t231 97t83 269q0 173 -83 271 t-231 98t-231.5 -98t-83.5 -271z" />
<glyph unicode="&#xf5;" horiz-adv-x="1214" d="M72 522q0 249 148 398t388 149q237 0 387 -149.5t150 -397.5q0 -246 -150 -395.5t-387 -149.5q-239 0 -387.5 149t-148.5 396zM219 1186v31q14 94 81 155.5t169 61.5q44 0 79.5 -12.5t84.5 -41.5q65 -41 110 -41q86 0 101 88h151v-30q-14 -95 -81 -157t-169 -62 q-44 0 -78.5 13t-82.5 42q-45 25 -65 33t-48 8q-83 0 -98 -88h-154zM293 522q0 -172 83.5 -269t231.5 -97t231 97t83 269q0 173 -83 271t-231 98t-231.5 -98t-83.5 -271z" />
<glyph unicode="&#xf6;" horiz-adv-x="1214" d="M72 522q0 249 148 398t388 149q237 0 387 -149.5t150 -397.5q0 -246 -150 -395.5t-387 -149.5q-239 0 -387.5 149t-148.5 396zM274 1208v232h258v-232h-258zM293 522q0 -172 83.5 -269t231.5 -97t231 97t83 269q0 173 -83 271t-231 98t-231.5 -98t-83.5 -271zM684 1208 v232h258v-232h-258z" />
<glyph unicode="&#xf7;" horiz-adv-x="1398" d="M207 434v197h985v-197h-985zM555 35v258h289v-258h-289zM555 774v258h289v-258h-289z" />
<glyph unicode="&#xf8;" horiz-adv-x="1214" d="M72 522q0 249 148 398t388 149q183 0 322 -92l59 70h92v-43l-77 -91q141 -147 141 -391q0 -246 -150 -395.5t-387 -149.5q-181 0 -321 93l-60 -70h-94v41l78 92q-139 151 -139 389zM293 522q0 -141 55 -229l455 534q-79 64 -195 64q-148 0 -231.5 -98t-83.5 -271z M412 217q79 -61 196 -61q148 0 231 97t83 269q0 139 -54 230z" />
<glyph unicode="&#xf9;" horiz-adv-x="1218" d="M127 348v699h217v-676q0 -109 59.5 -163t163.5 -54q137 0 219 89.5t82 243.5v560h219v-1047h-210v158h-21q-94 -181 -344 -181q-163 0 -274 96t-111 275zM338 1444v31h246l161 -256v-31h-190z" />
<glyph unicode="&#xfa;" horiz-adv-x="1218" d="M127 348v699h217v-676q0 -109 59.5 -163t163.5 -54q137 0 219 89.5t82 243.5v560h219v-1047h-210v158h-21q-94 -181 -344 -181q-163 0 -274 96t-111 275zM455 1188v31l161 256h246v-31l-217 -256h-190z" />
<glyph unicode="&#xfb;" horiz-adv-x="1218" d="M127 348v699h217v-676q0 -109 59.5 -163t163.5 -54q137 0 219 89.5t82 243.5v560h219v-1047h-210v158h-21q-94 -181 -344 -181q-163 0 -274 96t-111 275zM270 1188v31l205 256h252l205 -256v-31h-189l-143 168l-141 -168h-189z" />
<glyph unicode="&#xfc;" horiz-adv-x="1218" d="M127 348v699h217v-676q0 -109 59.5 -163t163.5 -54q137 0 219 89.5t82 243.5v560h219v-1047h-210v158h-21q-94 -181 -344 -181q-163 0 -274 96t-111 275zM268 1208v232h258v-232h-258zM678 1208v232h258v-232h-258z" />
<glyph unicode="&#xfd;" horiz-adv-x="1118" d="M31 1016v31h225l299 -797h20l299 797h224v-31l-490 -1225q-45 -108 -114.5 -154.5t-196.5 -46.5h-213v174h274l23 15l74 176zM416 1188v31l162 256h245v-31l-217 -256h-190z" />
<glyph unicode="&#xfe;" horiz-adv-x="1257" d="M131 -410v1885h219v-541h21q111 135 315 135q140 0 253 -65.5t180 -191t67 -290.5q0 -246 -142.5 -395.5t-357.5 -149.5q-199 0 -315 134h-21v-521h-219zM336 522q0 -173 83 -269.5t230 -96.5t230.5 96.5t83.5 269.5t-83.5 271t-230.5 98q-146 0 -229.5 -98t-83.5 -271z " />
<glyph unicode="&#xff;" horiz-adv-x="1118" d="M31 1016v31h225l299 -797h20l299 797h224v-31l-490 -1225q-45 -108 -114.5 -154.5t-196.5 -46.5h-213v174h274l23 15l74 176zM231 1208v232h258v-232h-258zM641 1208v232h258v-232h-258z" />
<glyph unicode="&#x152;" horiz-adv-x="1974" d="M82 737q0 173 61.5 312.5t173 232.5t267 143t342.5 50h942v-187h-715v-438h612v-184h-612v-478h745v-188h-972q-251 0 -440.5 85.5t-296.5 253.5t-107 398zM317 737q0 -256 160.5 -405t440.5 -146v1104q-279 3 -440 -147t-161 -406z" />
<glyph unicode="&#x153;" horiz-adv-x="2025" d="M72 522q0 249 148 398t388 149q135 0 242.5 -55t173.5 -158h20q66 103 171.5 158t238.5 55q226 0 363 -139.5t137 -366.5v-102h-801q5 -138 87.5 -222.5t217.5 -84.5q220 0 275 190h211v-31q-14 -66 -51.5 -125t-96.5 -107.5t-146 -77t-190 -28.5q-139 0 -245.5 55 t-172.5 158h-20q-67 -101 -173.5 -156t-240.5 -55q-239 0 -387.5 149t-148.5 396zM293 522q0 -172 83.5 -269t231.5 -97t231 97t83 269q0 173 -83 271t-231 98t-231.5 -98t-83.5 -271zM1153 627h582q-5 122 -77.5 195t-203.5 73q-136 0 -212.5 -71.5t-88.5 -196.5z" />
<glyph unicode="&#x178;" horiz-adv-x="1394" d="M10 1444v31h252l426 -703h21l426 703h251v-31l-569 -912v-532h-237v532zM344 1581v238h277v-238h-277zM772 1581v238h275v-238h-275z" />
<glyph unicode="&#x2c6;" horiz-adv-x="989" d="M164 1188v31l205 256h252l204 -256v-31h-188l-143 168l-142 -168h-188z" />
<glyph unicode="&#x2dc;" horiz-adv-x="1118" d="M170 1186v31q14 94 81 155.5t169 61.5q44 0 79.5 -12.5t84.5 -41.5q65 -41 110 -41q86 0 101 88h151v-30q-14 -95 -81 -157t-169 -62q-44 0 -78.5 13t-82.5 42q-45 25 -65 33t-48 8q-83 0 -98 -88h-154z" />
<glyph unicode="&#x2000;" horiz-adv-x="958" />
<glyph unicode="&#x2001;" horiz-adv-x="1917" />
<glyph unicode="&#x2002;" horiz-adv-x="958" />
<glyph unicode="&#x2003;" horiz-adv-x="1917" />
<glyph unicode="&#x2004;" horiz-adv-x="639" />
<glyph unicode="&#x2005;" horiz-adv-x="479" />
<glyph unicode="&#x2006;" horiz-adv-x="319" />
<glyph unicode="&#x2007;" horiz-adv-x="319" />
<glyph unicode="&#x2008;" horiz-adv-x="239" />
<glyph unicode="&#x2009;" horiz-adv-x="383" />
<glyph unicode="&#x200a;" horiz-adv-x="106" />
<glyph unicode="&#x2010;" horiz-adv-x="800" d="M123 428v182h555v-182h-555z" />
<glyph unicode="&#x2011;" horiz-adv-x="800" d="M123 428v182h555v-182h-555z" />
<glyph unicode="&#x2012;" horiz-adv-x="800" d="M123 428v182h555v-182h-555z" />
<glyph unicode="&#x2013;" horiz-adv-x="1247" d="M123 428v182h1001v-182h-1001z" />
<glyph unicode="&#x2014;" horiz-adv-x="1865" d="M123 428v182h1620v-182h-1620z" />
<glyph unicode="&#x2018;" horiz-adv-x="485" d="M96 1104v291q0 133 68.5 194.5t212.5 61.5h39v-121h-35q-85 0 -117.5 -29.5t-32.5 -99.5v-39h154v-258h-289z" />
<glyph unicode="&#x2019;" horiz-adv-x="485" d="M70 934v121h34q85 0 117.5 29.5t32.5 99.5v39h-154v258h289v-293q0 -132 -68 -193t-212 -61h-39z" />
<glyph unicode="&#x201a;" horiz-adv-x="485" d="M70 -168h34q85 0 117.5 29.5t32.5 99.5v39h-154v258h289v-293q0 -132 -68 -193t-212 -61h-39v121z" />
<glyph unicode="&#x201c;" horiz-adv-x="866" d="M96 1104v291q0 133 68.5 194.5t212.5 61.5h39v-121h-35q-85 0 -117.5 -29.5t-32.5 -99.5v-39h154v-258h-289zM477 1104v291q0 133 68.5 194.5t212.5 61.5h39v-121h-35q-85 0 -117.5 -29.5t-32.5 -99.5v-39h154v-258h-289z" />
<glyph unicode="&#x201d;" horiz-adv-x="866" d="M70 928v121h34q85 0 117.5 29.5t32.5 99.5v39h-154v258h289v-293q0 -132 -68 -193t-212 -61h-39zM451 928v121h34q85 0 117.5 29.5t32.5 99.5v39h-154v258h289v-293q0 -132 -68.5 -193t-212.5 -61h-38z" />
<glyph unicode="&#x201e;" horiz-adv-x="866" d="M70 -168h34q85 0 117.5 29.5t32.5 99.5v39h-154v258h289v-293q0 -132 -68 -193t-212 -61h-39v121zM451 -168h34q85 0 117.5 29.5t32.5 99.5v39h-154v258h289v-293q0 -132 -68.5 -193t-212.5 -61h-38v121z" />
<glyph unicode="&#x2022;" horiz-adv-x="1269" d="M86 522q0 244 153.5 396.5t395.5 152.5t395.5 -152.5t153.5 -396.5q0 -240 -154 -393.5t-395 -153.5t-395 153.5t-154 393.5z" />
<glyph unicode="&#x2026;" horiz-adv-x="1294" d="M96 0v258h289v-258h-289zM504 0v258h289v-258h-289zM909 0v258h289v-258h-289z" />
<glyph unicode="&#x202f;" horiz-adv-x="383" />
<glyph unicode="&#x2039;" horiz-adv-x="643" d="M51 512v29l275 338h215v-31l-262 -322l262 -323v-31h-215z" />
<glyph unicode="&#x203a;" horiz-adv-x="643" d="M102 172v31l263 323l-263 322v31h215l275 -338v-29l-275 -340h-215z" />
<glyph unicode="&#x205f;" horiz-adv-x="479" />
<glyph unicode="&#x20ac;" horiz-adv-x="1695" d="M0 518v31l20 135h203q-2 12 -2 53q0 56 2 70h-178v31l21 135h184q68 250 263.5 389t453.5 139q115 1 216 -28t174 -77.5t128 -113t85.5 -133t39.5 -137.5v-31h-238q-19 152 -124 242t-283 90q-174 0 -298 -88t-178 -252h463v-31l-20 -135h-473q-2 -14 -2 -70q0 -43 2 -53 h450v-31l-20 -135h-404q49 -168 175.5 -261t300.5 -93q362 0 432 340h237v-31q-15 -80 -51 -153.5t-94.5 -136.5t-134.5 -110t-176 -73.5t-213 -26.5q-170 0 -316 62.5t-252.5 187t-146.5 295.5h-246z" />
<glyph unicode="&#x2122;" horiz-adv-x="1798" d="M82 1393v82h670v-82h-289v-635h-90v635h-291zM844 758v717h147l258 -603h21l256 603h149v-717h-90v583h-20l-254 -583h-103l-254 583h-20v-583h-90z" />
<glyph unicode="&#x25fc;" horiz-adv-x="1044" d="M0 0v1044h1044v-1044h-1044z" />
</font>
</defs>
</svg>
